<svg id="logo" data-name="Aray Logo" xmlns="http://www.w3.org/2000/svg" viewBox="0 0 527.17 142.82">
  <defs>
    <style>
      #logo .svg-fill-purple {
        fill: #2a275b;
      }

      #logo .svg-fill-orange {
        fill: #ef7622;
      }

      #logo .cls-3 {
        fill: none;
        stroke: #393277;
        stroke-linecap: round;
        stroke-miterlimit: 10;
        stroke-width: 2px;
      }

      #logo .cls-4 {
        fill: #ff9852;
      }
    </style>
  </defs>
  <g id="trademark">
    <polygon class="cls-1 svg-fill-purple" points="305.97 98.54 308.48 98.54 308.48 105.56 310.19 105.56 310.19 98.54 312.69 98.54 312.69 97.11 305.97 97.11 305.97 98.54"/>
    <polygon class="cls-1 svg-fill-purple" points="319.66 97.11 318.14 102.88 316.61 97.11 314.05 97.11 314.05 105.56 315.64 105.56 315.64 98.91 317.31 105.56 318.96 105.56 320.64 98.91 320.64 105.56 322.22 105.56 322.22 97.11 319.66 97.11"/>
  </g>
  <g id="name">
    <path class="cls-1 svg-fill-purple" d="M151.59,105.52V38.31h8.08A6.51,6.51,0,0,1,165,41L166,42.51l1.6-.84a29.29,29.29,0,0,1,13.65-3.36h1.48v15h-1.47a14.62,14.62,0,0,0-10.39,3.92A12.41,12.41,0,0,0,166.62,67v38.54Z"/>
    <path class="cls-1 svg-fill-purple" d="M244.37,105.56a6.2,6.2,0,0,1-6.2-6.2v-.26L235,101a32.21,32.21,0,0,1-39.74-5.42A33,33,0,0,1,185.79,72a33.63,33.63,0,0,1,57.48-23.75A32.55,32.55,0,0,1,253.2,72v33.57Zm-24.9-52.22A18.77,18.77,0,0,0,200.82,72a18.68,18.68,0,1,0,31.82-13.12A17.84,17.84,0,0,0,219.46,53.35Z"/>
    <path class="cls-1 svg-fill-purple" d="M131.67,105.56a6.2,6.2,0,0,1-6.2-6.2v-.26L122.33,101A32.21,32.21,0,0,1,82.59,95.6,33,33,0,0,1,73.09,72a33.79,33.79,0,0,1,33.68-33.68,32.61,32.61,0,0,1,23.81,9.93A32.55,32.55,0,0,1,140.51,72v33.57Zm-24.9-52.22A18.77,18.77,0,0,0,88.12,72a18.67,18.67,0,0,0,18.64,18.65A18.77,18.77,0,0,0,125.47,72a18.88,18.88,0,0,0-18.7-18.64Z"/>
    <path class="cls-1 svg-fill-purple" d="M309.37,38.12,289,86.72l-20.33-48.6H252.52l28.43,68-.4,1-.1.26c-1.14,3-4.79,9.39-8.82,10.08-3.3.56-12.08.51-16.84.35l-.51,14.93c.65,0,3.68.12,7.32.12a88.14,88.14,0,0,0,12.52-.67c13.21-2.23,19.35-17,20.26-19.43l31.19-74.57Z"/>
  </g>
  <g id="tagline">
    <g id="medical">
      <path class="cls-2 svg-fill-orange" d="M366.5,54.27l-3.88-12.64h-.1q.21,3.86.21,5.15v7.5h-3.05V38.16h4.65l3.81,12.32h.07l4-12.32h4.65V54.27h-3.19V46.64q0-.54,0-1.25t.15-3.75h-.1l-4.16,12.62Z"/>
      <path class="cls-2 svg-fill-orange" d="M391.37,54.27h-9.28V38.16h9.28V41h-5.86V44.5H391v2.8h-5.46v4.16h5.86Z"/>
      <path class="cls-2 svg-fill-orange" d="M409.24,46.06a7.94,7.94,0,0,1-2.27,6.1q-2.26,2.12-6.54,2.12h-4.56V38.16h5.06a8.52,8.52,0,0,1,6.13,2.08A7.66,7.66,0,0,1,409.24,46.06Zm-3.55.09q0-5.19-4.59-5.19h-1.82V51.45h1.47Q405.69,51.45,405.69,46.15Z"/>
      <path class="cls-2 svg-fill-orange" d="M413.7,54.27V38.16h3.42V54.27Z"/>
      <path class="cls-2 svg-fill-orange" d="M429.15,40.77a3.48,3.48,0,0,0-3,1.45,6.75,6.75,0,0,0-1.06,4q0,5.39,4,5.39a12.78,12.78,0,0,0,4.11-.85v2.87a11.41,11.41,0,0,1-4.43.83,6.76,6.76,0,0,1-5.38-2.13,9,9,0,0,1-1.86-6.12,10,10,0,0,1,.91-4.4,6.61,6.61,0,0,1,2.63-2.9,7.78,7.78,0,0,1,4-1,10.85,10.85,0,0,1,4.72,1.14l-1.1,2.78a18.38,18.38,0,0,0-1.82-.75A5.43,5.43,0,0,0,429.15,40.77Z"/>
      <path class="cls-2 svg-fill-orange" d="M447.68,54.27l-1.17-3.84h-5.87l-1.17,3.84h-3.68l5.69-16.18h4.18l5.71,16.18Zm-2-6.7q-1.62-5.21-1.82-5.9t-.29-1.08q-.36,1.41-2.08,7Z"/>
      <path class="cls-2 svg-fill-orange" d="M454.52,54.27V38.16h3.42V51.45h6.54v2.82Z"/>
    </g>
    <g id="technology">
      <path class="cls-2 svg-fill-orange" d="M367.55,79.92h-3.42V66.65h-4.38V63.81h12.17v2.84h-4.38Z"/>
      <path class="cls-2 svg-fill-orange" d="M384.81,79.92h-9.28V63.81h9.28v2.8h-5.86v3.54h5.46v2.8h-5.46V77.1h5.86Z"/>
      <path class="cls-2 svg-fill-orange" d="M396.15,66.42a3.48,3.48,0,0,0-3,1.45,6.75,6.75,0,0,0-1.06,4q0,5.39,4,5.39a12.78,12.78,0,0,0,4.11-.85v2.87a11.41,11.41,0,0,1-4.43.83A6.76,6.76,0,0,1,390.45,78a9,9,0,0,1-1.86-6.12,10,10,0,0,1,.91-4.4,6.61,6.61,0,0,1,2.63-2.9,7.78,7.78,0,0,1,4-1,10.85,10.85,0,0,1,4.72,1.14l-1.1,2.78a18.38,18.38,0,0,0-1.82-.75A5.43,5.43,0,0,0,396.15,66.42Z"/>
      <path class="cls-2 svg-fill-orange" d="M418,79.92h-3.41V73h-6.38v7h-3.42V63.81h3.42v6.32h6.38V63.81H418Z"/>
      <path class="cls-2 svg-fill-orange" d="M437.52,79.92h-4.34l-7-12.19h-.1q.21,3.23.21,4.61v7.58h-3.05V63.81h4.31l7,12.07h.08q-.16-3.14-.17-4.44V63.81h3.08Z"/>
      <path class="cls-2 svg-fill-orange" d="M457.33,71.85a8.75,8.75,0,0,1-2,6.15A8.6,8.6,0,0,1,444,78a8.78,8.78,0,0,1-2-6.17,8.66,8.66,0,0,1,2-6.14,7.44,7.44,0,0,1,5.7-2.12,7.34,7.34,0,0,1,5.68,2.14A8.77,8.77,0,0,1,457.33,71.85Zm-11.76,0a6.73,6.73,0,0,0,1,4.07,3.59,3.59,0,0,0,3.06,1.37q4.09,0,4.09-5.43t-4.07-5.45a3.61,3.61,0,0,0-3.08,1.37A6.7,6.7,0,0,0,445.57,71.85Z"/>
      <path class="cls-2 svg-fill-orange" d="M461.8,79.92V63.81h3.42V77.1h6.54v2.82Z"/>
      <path class="cls-2 svg-fill-orange" d="M490.31,71.85a8.75,8.75,0,0,1-2,6.15,8.6,8.6,0,0,1-11.38,0,8.78,8.78,0,0,1-2-6.17,8.66,8.66,0,0,1,2-6.14,7.44,7.44,0,0,1,5.7-2.12,7.34,7.34,0,0,1,5.68,2.14A8.77,8.77,0,0,1,490.31,71.85Zm-11.76,0a6.73,6.73,0,0,0,1,4.07,3.59,3.59,0,0,0,3.06,1.37q4.09,0,4.09-5.43t-4.07-5.45a3.61,3.61,0,0,0-3.08,1.37A6.7,6.7,0,0,0,478.54,71.85Z"/>
      <path class="cls-2 svg-fill-orange" d="M500.89,70.88h6.39v8.36a18.05,18.05,0,0,1-2.93.71,19,19,0,0,1-2.81.2A7.1,7.1,0,0,1,496,78a8.92,8.92,0,0,1-1.92-6.16,8.12,8.12,0,0,1,2.23-6.08,8.48,8.48,0,0,1,6.19-2.18,12,12,0,0,1,4.78,1l-1.14,2.73a8.11,8.11,0,0,0-3.67-.88,4.53,4.53,0,0,0-3.55,1.49,5.77,5.77,0,0,0-1.33,4,6.43,6.43,0,0,0,1.07,4,3.72,3.72,0,0,0,3.13,1.38,11,11,0,0,0,2.17-.22V73.72h-3.05Z"/>
      <path class="cls-2 svg-fill-orange" d="M517.26,70.45l3.36-6.64h3.68L519,73.65v6.27h-3.39V73.76l-5.35-10h3.7Z"/>
    </g>
    <g id="simplified">
      <path class="cls-1 svg-fill-purple" d="M370.32,101.1a4.17,4.17,0,0,1-1.57,3.44,6.82,6.82,0,0,1-4.37,1.26,10.27,10.27,0,0,1-4.56-1v-3.17a18.82,18.82,0,0,0,2.76,1,8.18,8.18,0,0,0,2.07.3,2.94,2.94,0,0,0,1.73-.43,1.47,1.47,0,0,0,.6-1.28,1.41,1.41,0,0,0-.26-.84,3,3,0,0,0-.78-.71,20,20,0,0,0-2.09-1.09,9.9,9.9,0,0,1-2.22-1.33,5,5,0,0,1-1.18-1.49,4.25,4.25,0,0,1-.44-2,4.16,4.16,0,0,1,1.45-3.36,6,6,0,0,1,4-1.22,9.46,9.46,0,0,1,2.4.3,16.46,16.46,0,0,1,2.39.84L369.14,93a16.12,16.12,0,0,0-2.13-.74,6.88,6.88,0,0,0-1.66-.21,2.2,2.2,0,0,0-1.49.45,1.49,1.49,0,0,0-.52,1.18,1.46,1.46,0,0,0,.21.79,2.3,2.3,0,0,0,.67.65,20.71,20.71,0,0,0,2.17,1.13,8.62,8.62,0,0,1,3.1,2.17A4.23,4.23,0,0,1,370.32,101.1Z"/>
      <path class="cls-1 svg-fill-purple" d="M374.37,105.58V89.46h3.42v16.12Z"/>
      <path class="cls-1 svg-fill-purple" d="M389.79,105.58l-3.88-12.64h-.1q.21,3.86.21,5.15v7.5H383V89.46h4.65l3.81,12.32h.07l4-12.32h4.65v16.12H397V97.95q0-.54,0-1.25t.15-3.75h-.1l-4.16,12.62Z"/>
      <path class="cls-1 svg-fill-purple" d="M416.51,94.49a4.93,4.93,0,0,1-1.63,4,7,7,0,0,1-4.62,1.38H408.8v5.73h-3.42V89.46h5.15A6.85,6.85,0,0,1,415,90.72,4.6,4.6,0,0,1,416.51,94.49ZM408.8,97h1.12a3.74,3.74,0,0,0,2.36-.62,2.18,2.18,0,0,0,.78-1.81,2.24,2.24,0,0,0-.66-1.77,3.07,3.07,0,0,0-2.06-.57H408.8Z"/>
      <path class="cls-1 svg-fill-purple" d="M420.68,105.58V89.46h3.42v13.29h6.54v2.82Z"/>
      <path class="cls-1 svg-fill-purple" d="M434.57,105.58V89.46H438v16.12Z"/>
      <path class="cls-1 svg-fill-purple" d="M446.53,105.58h-3.36V89.46h9.24v2.8h-5.87v4.16H452v2.79h-5.47Z"/>
      <path class="cls-1 svg-fill-purple" d="M456.69,105.58V89.46h3.42v16.12Z"/>
      <path class="cls-1 svg-fill-purple" d="M474.57,105.58h-9.28V89.46h9.28v2.8h-5.86V95.8h5.46v2.8h-5.46v4.16h5.86Z"/>
      <path class="cls-1 svg-fill-purple" d="M492.43,97.37a7.94,7.94,0,0,1-2.27,6.1q-2.26,2.12-6.54,2.12h-4.56V89.46h5.06a8.52,8.52,0,0,1,6.13,2.08A7.66,7.66,0,0,1,492.43,97.37Zm-3.55.09q0-5.19-4.59-5.19h-1.82v10.49h1.47Q488.88,102.76,488.88,97.45Z"/>
    </g>
  </g>
  <line id="pipe" class="cls-3" x1="342.65" y1="24.61" x2="342.65" y2="119.27"/>
  <g id="rays">
    <path class="cls-2 svg-fill-orange" d="M58.31,71.94A48.42,48.42,0,0,1,76.69,34L63.32,24.35a64.39,64.39,0,0,0,0,95.17l13.37-9.62A48.42,48.42,0,0,1,58.31,71.94Z"/>
    <path class="cls-4" d="M6.56,71.94A100,100,0,0,0,33.88,140.7l16.5-11.87a80.1,80.1,0,0,1,0-113.78L33.88,3.18A100,100,0,0,0,6.56,71.94Z"/>
  </g>
</svg>
