<!-- Generator: Adobe Illustrator 21.0.0, SVG Export Plug-In  -->
<svg version="1.1"
	 xmlns="http://www.w3.org/2000/svg" xmlns:xlink="http://www.w3.org/1999/xlink" xmlns:a="http://ns.adobe.com/AdobeSVGViewerExtensions/3.0/"
	 x="0px" y="0px" width="8.1px" height="8px" viewBox="0 0 8.1 8" style="enable-background:new 0 0 8.1 8;" xml:space="preserve">
	<path d="M6.6,8C6.3,8,6.1,8,5.8,7.9C5.5,7.8,5.2,7.7,4.9,7.6C4.6,7.4,4.3,7.2,4,7.1C3.7,6.8,3.3,6.6,3,6.3 C2.7,6,2.3,5.7,2,5.4C1.7,5,1.4,4.6,1.1,4.2C0.8,3.8,0.6,3.4,0.4,3C0.2,2.6,0.1,2.2,0,1.8c0-0.2,0-0.5,0-0.7 c0-0.1,0.1-0.3,0.3-0.4c0.2-0.2,0.3-0.3,0.5-0.4C1,0.1,1.2,0,1.4,0C1.6,0,1.8,0.1,2,0.2c0.3,0.2,0.5,0.5,0.7,0.9 c0.1,0.2,0.2,0.4,0.1,0.7c0,0.2-0.1,0.3-0.2,0.4C2.5,2.3,2.4,2.4,2.3,2.5C2.1,2.6,2.1,2.8,2.2,3c0.1,0.2,0.2,0.4,0.3,0.6 C2.8,4,3.2,4.4,3.6,4.8C3.8,5,4,5.2,4.3,5.4C4.5,5.6,4.8,5.8,5,5.9c0.1,0,0.1,0,0.2,0c0.1,0,0.2,0,0.3-0.1 c0.1-0.1,0.3-0.3,0.4-0.4c0.2-0.2,0.5-0.2,0.7-0.2c0.3,0.1,0.5,0.2,0.7,0.4C7.5,5.8,7.7,5.9,7.8,6C7.9,6.2,8,6.3,8.1,6.4 c0.1,0.2,0,0.5-0.1,0.7C7.8,7.2,7.7,7.4,7.6,7.5C7.5,7.6,7.5,7.7,7.4,7.7C7.2,8,7,8,6.6,8C6.7,8,6.6,8,6.6,8z"/>
</svg>
