<svg version="1.1" id="twitter" xmlns="http://www.w3.org/2000/svg" xmlns:xlink="http://www.w3.org/1999/xlink" x="0px"
	 y="0px" viewBox="0 0 100 100" style="enable-background:new 0 0 100 100;" xml:space="preserve">
<path d="M80.7,14C80.7,14,80.7,14,80.7,14H19.3c-2.9,0-5.3,2.3-5.3,5.2c0,0,0,0,0,0v61.6c0,2.9,2.4,5.2,5.3,5.2h61.4
	c2.9,0,5.3-2.3,5.3-5.2V19.2C86,16.3,83.6,14,80.7,14z M67.9,40.8c0,0.4,0,0.8,0,1.2c0,12.2-9.3,26.3-26.3,26.3
	c-5,0-9.9-1.4-14.1-4.1c0.7,0.1,1.5,0.1,2.2,0.1c4.2,0,8.2-1.4,11.5-4c-4-0.1-7.4-2.6-8.6-6.4c1.4,0.3,2.8,0.2,4.2-0.2
	c-4.3-0.9-7.4-4.7-7.4-9v-0.1c1.3,0.7,2.7,1.1,4.2,1.2c-4.1-2.7-5.3-8.1-2.9-12.3c4.7,5.8,11.6,9.3,19,9.7c-1.2-5,1.9-9.9,6.9-11.1
	c3.2-0.7,6.6,0.3,8.8,2.7c2.1-0.4,4-1.2,5.9-2.2c-0.7,2.1-2.1,4-4,5.1c1.8-0.2,3.6-0.7,5.3-1.5C71.3,37.9,69.7,39.5,67.9,40.8z"/>
</svg>
