<svg id="fullsystem" data-name="Layer 1" xmlns="http://www.w3.org/2000/svg" xmlns:xlink="http://www.w3.org/1999/xlink" viewBox="0 0 864 720">
  <defs>
    <style>
      #fullsystem .cls-1 {
        fill: inherit;
        fill-rule: evenodd;
      }
    </style>
    <symbol id="fullsystem-path">
      <path class="cls-1" transform="translate(0 5)" d="M778.56,404.64h1.2l.24,1.44,6.24.24v6.48H770.88c-2.74,0-6.05.21-8.4-.24-.5-1.48-.26-4.11-.24-6,1.45-.76,4.52-.51,6.72-.48a3.1,3.1,0,0,0-.48-2.16c-.41-.27-1.08,0-1.68-.24-1.45-.61-2.86-2.54-4.32-3.12H722.64c-5.76,0-15.12-1.27-15.12,4.32H708c.66.42,2.82.34,3.6.48a8.52,8.52,0,0,1,.48,3.84c-.19.25-.09.07-.24.48-2.3,1.19-13.09.5-16.8.48-.55-1-.51-2.85-.48-4.56,1-.53,2.67-.51,4.32-.48l.24-2.16c-1.45-.82-3-2.11-4.56-2.64-1.62,1.28-6.19,3.47-8.88,3.6v2.16a33.15,33.15,0,0,1,6,.24v.48c.49.7.48,4.33,0,5-.61,1.53-3.73,1-5.76,1H668.64c-.76-1.45-.51-4.52-.48-6.72l5.52-.24v-.48c1-2.15-2.82-1.53-4.08-2.16-1.58-.79-3.41-2.36-5-2.88H650.88c0,5.81,3.13,16.65-.72,19.44C647,422,635.62,421,630.24,421H272.64c-2,0-5.22.4-6.48-.48-4.22-1.34-2.22-12.11-1.92-17-57.17-.06-114.53.71-172.32.72l-1,3.12H77.52l-.24-.24-.48-3.12-18.48-.72-.48,2.4H45.6l-.24-.24-.48-2.88-6.48-.24a4.39,4.39,0,0,1-.24-1.44c.94-1.53.48-4.07,1-6,1.23-5,1.13-10.36,2.4-15.6,2.69-11.06,3-23.29,5.76-34.32,1.3-5.24,1-10.82,2.88-15.36a40.42,40.42,0,0,1,5-8.16c6.26-8.33,20.86-10,32.88-12.48v-1c-.55-.9-.19-2.14-.48-3.36-.9-3.78-.73-8-1.68-12-1.7-7.22-1.68-15.37-3.36-22.56l-.48-5.28c-1-4.21-2.44-11.69-1.44-15.84,2.23-1.4,4.79-1.93,8.64-1.92a6.68,6.68,0,0,1,.48-2.16,12.93,12.93,0,0,1,3.84-1.68l4.56-.24c.84-.42,1.48-2.12,2.88-2.64,2-.76,4.4,0,6.72-.48,5-1.09,10.93-.37,15.84-1.44h3.12c4.72-1,10.4-.41,15.12-1.44H145c3.74-.82,8-.08,12-1,2.71-.6,5.89-.06,8.88-.72,2.8-.62,6.06,0,9.12-.72,8.22-1.8,17.7-.6,25.92-2.4l24.72-1.68c3.09-.67,8.76-1.54,11.52-.48,2.77,5.05,2.07,12.65,3.6,19,1.59,6.55,1.68,13.64,3.36,20.4.8,3.22.82,6.85,1.68,10.32a61.83,61.83,0,0,1,1.68,9.84L255.6,288l4.32-.24c3.76-.84,8.47-.91,12.72-1a10.86,10.86,0,0,0,.24-3.12c1-1.65,0-4.6.48-6.72.92-4.2,0-9,1-13.44.68-3.11,0-6.69.72-10.08,2-9.36.38-20.66,2.4-30l.72-12.72c1.71-7.82.46-16.91,2.16-24.72l.24-5.76c1.45-6.63.48-14.47,1.92-21.12l.24-6.24c1.22-5.56.47-12.18,1.68-17.76V132c.83-3.78.38-8.45,1.2-12.24v-3.12c.82-3.75.08-8,1-12,.6-2.73.06-5.86.72-8.88.59-2.71.07-5.89.72-8.88,1.87-8.52.55-18.36,2.4-26.88l.48-9.12c.52-2.38-.12-5.39.48-8.16,1.77-8.13.09-18,1.92-25.92,1.13-.75,1.87-2,3.36-2.4h19.44l36.72-.24h18c3.67-.79,8.85-.24,13-.24H409l76.56-.24,92.16-.24h28.56c5.16,0,11.46-.44,15.84.48,2.67,4.87,1,13.66,2.4,19.92L628.56,84h.24v-.24c2.26-1.78,3.84-4.82,5.52-7.2,1-1.44,2.56-2.67,3.6-4.08a77.07,77.07,0,0,1,5.52-7.2L726,73.92l4.56.24c9.3,2.08,22.11.37,28.56,5.28,3.72,2.83,4.07,13.14,4.08,19.68,17,7.73,29.14,19.14,35.76,37.2,2.75,7.5,2.24,16.49,4.08,25,1,4.52,0,9.61,1,13.92l.72,13.92c1.43,6.54.26,14.32,1.68,20.88l.24,7c1.47,6.76.21,14.8,1.68,21.6v3.6c.94,4.32.27,9.61,1.2,13.92v3.6c.95,4.36,0,9.29,1,13.92.7,3.23,0,7.12.72,10.56.7,3.21,0,7.13.72,10.56.45,2.07,0,4.59.48,7,1.66,7.64.26,16.59,1.92,24.24L816,354.48c1.05,4.84.16,10.77,1.2,15.6v3.84c.5,2.31-.08,5.08.48,7.68,1,4.76,1.18,12.58,1,17.28l-.72.24c-1.36.84-5.3.24-7.2.24H789.36c-3.86,1.18-5.82,5.5-10.8,4.56ZM640.8,254.4c.89,4.09,0,8.91,1,13.2.68,3.15,0,6.95.72,10.32a49.66,49.66,0,0,1,.72,10.32c-1.09-1.72-.38-8.86-1-11.52-.83-3.83-.07-8.13-1-12.24-.39-1.78-.32-4.43-.72-6.24v-4.08c-.79-3.66-.76-8.52-.72-12.48C641.05,243.59,640.16,251.44,640.8,254.4Zm2.64,36.48a3.11,3.11,0,0,1-.24-1.68A3.11,3.11,0,0,1,643.44,290.88Z"/>
    </symbol>
    <mask id="fullsystem__mask">
      <use xlink:href="#fullsystem-path" fill="white" />
    </mask>
  </defs>
  <image xlink:href="ROOT_URL/wp-content/themes/aray_med/assets/img/page-drx/fullsystem-shadow.png" x="0" y="339" width="864" height="368" />
  <image
    mask="url(#fullsystem__mask)"
    class="lazyload"
    data-responsive="page-drx/fullsystem.jpg"
    xlink:href="ROOT_URL/wp-content/themes/aray_med/assets/img/page-drx/fullsystem.jpg"
    x="0"
    y="0"
    width="864"
    height="720"
    />
</svg>
