<svg id="ip57" xmlns="http://www.w3.org/2000/svg" xmlns:xlink="http://www.w3.org/1999/xlink" viewBox="0 0 170.96 170.96">
  <defs>
    <style>
      #ip57 .cls-1,
      #ip57 .cls-10,
      #ip57 .cls-11,
      #ip57 .cls-2,
      #ip57 .cls-3,
      #ip57 .cls-4,
      #ip57 .cls-5,
      #ip57 .cls-6,
      #ip57 .cls-7,
      #ip57 .cls-8,
      #ip57 .cls-9 {
        fill: none;
        stroke-miterlimit: 10;
        stroke-width: 2.2px;
        stroke: white;
      }
    </style>
  </defs>
  <title>ip57</title>
  <g id="Layer_2" data-name="Layer 2">
    <g id="Layer_1-2" data-name="Layer 1">
      <circle class="cls-1" cx="85.48" cy="85.48" r="84.38"/>
      <path class="cls-2" d="M87.68,141V105.11a5.82,5.82,0,0,0-5.8-5.8H49.17a5.82,5.82,0,0,0-5.8,5.8V131"/>
      <path class="cls-3" d="M59.52,89.51a7.58,7.58,0,0,0-3.17,6.17v3.59H75.13V95.68A7.58,7.58,0,0,0,72,89.51"/>
      <path class="cls-4" d="M42.51,68.92H40.77a5.85,5.85,0,0,0-5.85,5.85h0a5.85,5.85,0,0,0,5.85,5.85H58.83"/>
      <path class="cls-5" d="M42.74,68.42l6-8.14H84.1l7.29,5.88V75.6l-6.86,5.06H72.74l-.23,8.67-.54.17a7.56,7.56,0,0,0-4.43-1.43H63.95a7.56,7.56,0,0,0-4.43,1.43L59,89.34V80.48"/>
      <path class="cls-6" d="M91.39,66.11H96.3A4.75,4.75,0,0,1,101,70.86v0A4.75,4.75,0,0,1,96.3,75.6H91.39a0,0,0,0,1,0,0V66.11A0,0,0,0,1,91.39,66.11Z"/>
      <path class="cls-7" d="M81.14,80.66S84.84,93.93,96.22,95.1c0,0-9.93-8.19-9.07-16.37"/>
      <path class="cls-8" d="M123.42,101.32a7.16,7.16,0,0,0,5.67-11.53,7.16,7.16,0,0,0,7.41-11.16,7.16,7.16,0,1,0,.12-14,7.16,7.16,0,0,0-7.53-11A7.15,7.15,0,0,0,118,44.54"/>
      <path class="cls-9" d="M131.88,66.48"/>
      <path class="cls-10" d="M111.56,89.33A7.25,7.25,0,0,0,119.07,78a7.25,7.25,0,1,0,.12-14.2,7.25,7.25,0,0,0-7.62-11.14"/>
      <path class="cls-11" d="M105.66,76.19a5.46,5.46,0,1,0,.09-10.69"/>
    </g>
  </g>
</svg>
