<svg id="preview" xmlns="http://www.w3.org/2000/svg" xmlns:xlink="http://www.w3.org/1999/xlink" viewBox="0 0 80.94 91.12">
  <defs>
    <style>
      #preview .cls-1,
      #preview .cls-2,
      #preview .cls-3,
      #preview .cls-4,
      #preview .cls-6 {
        fill: none;
      }

      #preview .cls-1,
      #preview .cls-2,
      #preview .cls-3,
      #preview .cls-4,
      #preview .cls-5,
      #preview .cls-6 {
        stroke-miterlimit: 10;
      }

      #preview .cls-1,
      #preview .cls-2,
      #preview .cls-3,
      #preview .cls-6 {
        stroke-width: 2.2px;
      }

      #preview .cls-1 {
        stroke: url(#New_Gradient_Swatch_4);
      }

      #preview .cls-2 {
        stroke: url(#New_Gradient_Swatch_4-2);
      }

      #preview .cls-3 {
        stroke: url(#New_Gradient_Swatch_4-3);
      }

      #preview .cls-4 {
        stroke-linecap: round;
        stroke-width: 6px;
        stroke: url(#New_Gradient_Swatch_4-4);
      }

      #preview .cls-5 {
        fill: #ef7622;
        stroke-width: 2.3px;
      }

      #preview .cls-5,
      #preview .cls-6 {
        stroke: #fff;
      }
    </style>
    <linearGradient id="New_Gradient_Swatch_4" data-name="New Gradient Swatch 4" y1="50.65" x2="80.94" y2="50.65" gradientUnits="userSpaceOnUse">
      <stop offset="0" stop-color="#fff"/>
      <stop offset="1" stop-color="#e7e7e7"/>
    </linearGradient>
    <linearGradient id="New_Gradient_Swatch_4-2" x1="5.14" y1="8.1" x2="75.8" y2="8.1" xlink:href="#New_Gradient_Swatch_4"/>
    <linearGradient id="New_Gradient_Swatch_4-3" x1="9.39" y1="2.85" x2="71.55" y2="2.85" xlink:href="#New_Gradient_Swatch_4"/>
    <linearGradient id="New_Gradient_Swatch_4-4" x1="40.35" y1="61.41" x2="61.45" y2="61.41" xlink:href="#New_Gradient_Swatch_4"/>
  </defs>
  <title>preview</title>
  <g transform="scale(0.75) translate(14 14)">
    <rect class="cls-1" x="1.1" y="11.28" width="78.74" height="78.74" rx="1.72" ry="1.72"/>
    <path class="cls-2" d="M74.7,11.28V7.65A1.63,1.63,0,0,0,73.07,6H7.87A1.63,1.63,0,0,0,6.24,7.65v3.62"/>
    <path class="cls-3" d="M70.45,5.7V2.52A1.42,1.42,0,0,0,69,1.1H11.92a1.42,1.42,0,0,0-1.42,1.42V5.7"/>
    <line class="cls-4" x1="58.45" y1="68.96" x2="43.35" y2="53.86"/>
    <path class="cls-5" d="M20.77,44.58A12.75,12.75,0,1,0,33.52,31.83,12.75,12.75,0,0,0,20.77,44.58Z"/>
    <polyline class="cls-6" points="73.38 27.16 73.38 17.43 63.66 17.43"/>
    <polyline class="cls-6" points="63.66 83.83 73.38 83.83 73.38 74.11"/>
    <polyline class="cls-6" points="7.21 27.16 7.21 17.43 16.93 17.43"/>
    <polyline class="cls-6" points="16.93 83.83 7.21 83.83 7.21 74.11"/>
  </g>
</svg>
