<svg id="wireless" xmlns="http://www.w3.org/2000/svg" viewBox="0 0 261.46 384.05">
  <defs>
    <style>
      #wireless .cls-1 {
        fill: none;
        stroke: #fff;
        stroke-miterlimit: 10;
        stroke-width: 3.3px;
      }

      #wireless .cls-2 {
        font-size: 36px;
        font-family: 'sofia-pro', SofiaProLight, Sofia Pro;
      }

      #wireless .cls-2,
      #wireless .cls-3 {
        fill: #ef7622;
      }
    </style>
  </defs>
  <title>wireless</title>
  <g id="Layer_2" data-name="Layer 2">
    <g id="Guides">
      <g>
        <circle class="cls-1" cx="130.73" cy="130.73" r="129.58"/>
        <text class="cls-2" transform="translate(51.17 331.57)">WIRELESS <tspan x="0" y="43.2">FREEDOM </tspan></text>
        <g id="oa2DdQ.tif">
          <g>
            <path class="cls-3" d="M52.45,111.33c-.2-3.9,2.41-6.2,4.94-8.48C69,92.38,82.23,84.42,97.23,79.93c39.64-11.86,75.17-3.84,106.61,22.85a18.93,18.93,0,0,1,3.9,4.33c2.3,3.73,1.41,8.19-1.94,11.18-3.15,2.81-7.62,3-11.33.18-3.2-2.42-6.12-5.21-9.35-7.59a91,91,0,0,0-114.2,4.22c-2.86,2.45-5.45,5.34-9.83,5.11C55.94,119.93,52.43,116.47,52.45,111.33Z"/>
            <path class="cls-3" d="M187.35,135.6c0,3.48-1.32,6.32-4.48,7.86a9.12,9.12,0,0,1-9.93-.83c-2.4-1.78-4.55-3.89-7-5.63a58.38,58.38,0,0,0-33.23-11.55c-16.43-.5-30.19,5-42.36,15.54a14.42,14.42,0,0,1-5.52,3.16,8.5,8.5,0,0,1-9.8-4.09,9.07,9.07,0,0,1,1.61-10.81,71.94,71.94,0,0,1,22.26-15.35,76.92,76.92,0,0,1,84.47,14C186.55,130.87,187.34,132.41,187.35,135.6Z"/>
            <path class="cls-3" d="M166.35,159.69c-.5,3.81-2.07,6.48-5.14,8.1a8.4,8.4,0,0,1-9.34-.66c-1.75-1.26-3.3-2.79-5-4.12a26.06,26.06,0,0,0-32.35,0c-1.46,1.13-2.79,2.45-4.25,3.58-4.17,3.22-9.2,2.89-12.52-.76-3.11-3.42-2.91-8.53.47-12.32,17.08-19.11,48.21-19,65.2.32C164.8,155.42,165.39,157.72,166.35,159.69Z"/>
            <path class="cls-3" d="M130.46,173c6.42,0,11.05,4.44,11.09,10.69,0,5.76-5,11.09-10.53,11.18A11,11,0,0,1,119.8,183.8,10.57,10.57,0,0,1,130.46,173Z"/>
          </g>
        </g>
      </g>
    </g>
  </g>
</svg>
