<svg id="excel__ambiance" data-name="Layer 1" xmlns="http://www.w3.org/2000/svg" xmlns:xlink="http://www.w3.org/1999/xlink" viewBox="0 0 256.96 256.96">
  <defs>
    <style>
      #excel__ambiance .cls-1,
      #excel__ambiance .cls-2,
      #excel__ambiance .cls-3,
      #excel__ambiance .cls-5 {
        fill: none;
      }

      #excel__ambiance .cls-2 {
        stroke-width: 2.2px;
      }

      #excel__ambiance .cls-2,
      #excel__ambiance .cls-3,
      #excel__ambiance .cls-5 {
        stroke-miterlimit: 10;
      }

      #excel__ambiance .cls-3 {
        stroke-width: 2.71px;
        opacity: 0.2;
        stroke: url(#New_Gradient_Swatch_3);
      }

      #excel__ambiance .cls-4 {
        fill: #fff;
      }

      #excel__ambiance .cls-5 {
        stroke: #fff;
        stroke-width: 0.16px;
      }
    </style>
    <linearGradient id="New_Gradient_Swatch_3" data-name="New Gradient Swatch 3" x1="58.89" y1="128.48" x2="194.03" y2="128.48" gradientUnits="userSpaceOnUse">
      <stop offset="0" stop-color="#ececec"/>
      <stop offset="1" stop-color="#fff"/>
    </linearGradient>
  </defs>
  <g>
    <!-- <circle class="cls-1" cx="126.46" cy="128.48" r="53.84"/> -->
    <circle class="cls-2 svg-stroke-orange" cx="126.46" cy="128.48" r="53.84"/>
    <circle class="cls-3" cx="126.46" cy="128.48" r="66.22"/>
    <g class="ambiance-note">
      <path class="cls-4" d="M148.4,99.87c0,.32,0,.61,0,.89q0,19.7,0,39.39a23.39,23.39,0,0,1-.45,5.25,6.53,6.53,0,0,1-5.8,5.51,15.24,15.24,0,0,1-7.77-.62,5.23,5.23,0,0,1-3.5-4.88c-.3-4.14,1.86-6.64,6.12-7.17,2.72-.34,5.46-.3,8.19-.39.55,0,.68-.17.68-.72q0-12,0-24c0-.6-.15-.66-.71-.57q-12.55,2.13-25.1,4.21c-1.19.2-2.38.45-3.57.6-.63.08-.8.3-.8.93q0,13.22,0,26.44a23.29,23.29,0,0,1-.42,5c-.87,3.94-2.77,5.7-6.78,6.21a15.79,15.79,0,0,1-6.1-.4c-3.72-1-4.87-3.77-4.45-7.1.33-2.66,2-4.33,4.85-5,2.56-.63,5.18-.45,7.77-.63.8-.05,1.88.32,2.34-.18s.12-1.5.12-2.28q0-17.09,0-34.18c0-.62.09-.88.8-1,8.52-1.28,17-2.61,25.55-3.92Z"/>
      <path class="cls-5" d="M148.4,99.87c0,.32,0,.61,0,.89q0,19.7,0,39.39a23.39,23.39,0,0,1-.45,5.25,6.53,6.53,0,0,1-5.8,5.51,15.24,15.24,0,0,1-7.77-.62,5.23,5.23,0,0,1-3.5-4.88c-.3-4.14,1.86-6.64,6.12-7.17,2.72-.34,5.46-.3,8.19-.39.55,0,.68-.17.68-.72q0-12,0-24c0-.6-.15-.66-.71-.57q-12.55,2.13-25.1,4.21c-1.19.2-2.38.45-3.57.6-.63.08-.8.3-.8.93q0,13.22,0,26.44a23.29,23.29,0,0,1-.42,5c-.87,3.94-2.77,5.7-6.78,6.21a15.79,15.79,0,0,1-6.1-.4c-3.72-1-4.87-3.77-4.45-7.1.33-2.66,2-4.33,4.85-5,2.56-.63,5.18-.45,7.77-.63.8-.05,1.88.32,2.34-.18s.12-1.5.12-2.28q0-17.09,0-34.18c0-.62.09-.88.8-1,8.52-1.28,17-2.61,25.55-3.92Z"/>
    </g>
  </g>
</svg>
