<svg id="features" data-name="Layer 1" xmlns="http://www.w3.org/2000/svg" xmlns:xlink="http://www.w3.org/1999/xlink" viewBox="0 0 348.72 405.84">
  <defs>
    <style>
      #features .cls-1 {
        fill: inherit;
        fill-rule: evenodd;
      }
    </style>
    <symbol id="features-path">
      <path class="cls-1" d="M79.44,3.6c3,0,4.83-.45,7.44-.48,1.51,2.91,1.39,8.43,2.4,11.76.71,2.33,1.44,5.09,2.16,7.44l.48,2.88c.33.81,1.16,1.57,1.44,2.64l.24,36.24c5.18-.56,11-.93,16.56-1,.5-.75,1-.82,1.2-1.92-1.41-.91-1.51-2.38-1.44-4.8h-.72l-.48-.72.24-.24c1.22-.16,2.49-.86,4.08-.48.56.13,1.22.68,2.16.48,4.1-.87,11.41-2.3,15.6-.48,2.62,1.14,5.22,4.39,6.72,6.72.65,1,.55,2.15,1.44,2.88,2.08,1.37,9.67,1.38,12.72,2.16,8.19,2.1,17.49,2.89,25,6,1.15,2.65.48,8,.48,11.52l.24,23.52c6.1.28,12.33,3,17,5,1.42.62,4.18,1.32,4.8,2.64v31.68l102.72-1.2,1-5.28c1.75-1.1,4.47-1.15,7-1.68h4.08c5.74-1.22,18.22-.15,23,1,2.93,4.58,1.06,12.92,2.4,19.2.87,4,0,8.62,1,13,.69,3.28,1.24,9.73.48,13.2-.46,2.1.15,4.92-.24,6.72v4.8a37.5,37.5,0,0,1-.72,7v2.64c-.85,3.82-.59,8.44-1.44,12.24-.37,1.67.28,3.33-1,4.08-1.3,1.18-3.37.51-5.52,1-5.14,1.07-17.06.86-22.08-.24-2.59-.56-5.36.48-6.72-1.2-1-1.33-1.22-4.85-1.44-6.72l-102.48,1v87.36c.83,2.53,3.18,5.41,4.56,7.68,2.62,4.31,4.34,8.89,7,13.2,1.2,2,3.31,4.27,3.6,7a17.72,17.72,0,0,1-4.8.24c-1.35.85-9.26.27-11.52.24-.26,1-.63,1.08-1.2,1.68-11.32.77-23.79.24-35.52.24L163,342c.54,2.36,0,4.43,0,6.72l-1.44,1.44c-3.69,2.5-9.64,3.34-14.4,4.56-2,.51-4.32.29-6.24.72l-16.32.24c-3.86.85-9-.67-13.2.24-2.36.52-5.87.24-8.64.24l-11.28.24L91,358.8l-.72.24c-1.06.67-5.08,0-7,0a1.79,1.79,0,0,0-1-1c-1,1.34-5.23.88-7,.72-.4,4.18-2.43,3.79-7,3.6-.8-.47-2.24,0-3.36-.24-3.22-.71-6.61-.7-9.6-1.68-5.83-1.9-9.69-5.43-14.16-8.64-1.64-1.18-4.2-2.42-5-4.32-1.59-3.6-.06-11.16,0-15.12H19.44l-.24-.72c2.41-1.94,4.38-6.47,6.24-9.12,2.32-3.3,4.59-6.7,7-10.08,1.07-1.53,3.14-3.32,3.84-5V296.88c-.63-1-.24-3.8-.24-5.28v-13l-.48-31.2v-17c-.76-3.52-.24-8.52-.24-12.48L35,197.28V187.2c-.89-4.1-.24-9.84-.24-14.4l-.24-24.72-.72-69.36-.48-44.88V28.08c-.13-.3-.83-.74-1-1.2v-9.6c.92-2.87,4.6-4.91,7-6.48,6-4,9.27-7.53,18.48-8.64,2.34-.28,11.32-1.66,12.72,0S72.14,6.89,73,8.88h.48V5.28c1.08-.57,3-.51,4.8-.48l.48.48V5C79.42,4.64,79.39,4.69,79.44,3.6Z"/>
    </symbol>
    <mask id="features__mask">
      <use xlink:href="#features-path" fill="white" />
    </mask>
  </defs>
  <image xlink:href="ROOT_URL/wp-content/themes/aray_med/assets/img/page-excel/features-shadow.png" x="0" y="302" width="348.72" height="99" />
  <image
    class="lazyload"
    mask="url(#features__mask)"
    data-responsive="page-excel/features.jpg"
    xlink:href="ROOT_URL/wp-content/themes/aray_med/assets/img/page-excel/features.jpg"
    x="0"
    y="0"
    width="348.72"
    height="405.84"
    />
</svg>
