<svg id="excel__sizes" data-name="Layer 1" xmlns="http://www.w3.org/2000/svg" xmlns:xlink="http://www.w3.org/1999/xlink" viewBox="0 0 256.96 256.96">
  <defs>
    <style>
      #excel__sizes .cls-1,
      #excel__sizes .cls-2,
      #excel__sizes .cls-3,
      #excel__sizes .cls-4 {
        fill: none;
        stroke-miterlimit: 10;
      }

      #excel__sizes .cls-1,
      #excel__sizes .cls-2 {
        stroke: #fff;
      }

      #excel__sizes .cls-1 {
        stroke-width: 1.12px;
      }

      #excel__sizes .cls-2 {
        stroke-width: 1.28px;
      }

      #excel__sizes .cls-3 {
        stroke-width: 2px;
        stroke: url(#New_Gradient_Swatch_3);
      }

      #excel__sizes .cls-4 {
        stroke-linecap: round;
        stroke-width: 2.2px;
      }
    </style>
    <linearGradient id="New_Gradient_Swatch_3" data-name="New Gradient Swatch 3" x1="-233.33" y1="-167.36" x2="-118.82" y2="-167.36" gradientTransform="translate(307.11 290.27)" gradientUnits="userSpaceOnUse">
      <stop offset="0" stop-color="#ececec"/>
      <stop offset="1" stop-color="#fff"/>
    </linearGradient>
  </defs>
  <title>sizes</title>
  <g class="small">
    <circle class="cls-1" cx="91.49" cy="114.35" r="6.58"/>
    <path class="cls-1" d="M102.24,127.23a3.32,3.32,0,0,0-3.31-3.09H83.63a3.32,3.32,0,0,0-3.31,3.09l-5.87,17.87a2.24,2.24,0,1,0,4.26,1.4L82.5,135a3.31,3.31,0,0,0,1,.2l.65,5.34L77.7,159h6.61v17.4a2.8,2.8,0,0,0,5.6,0V159h2.61v17.4a2.8,2.8,0,0,0,5.6,0V159h6.74L98.4,140.49l.65-5.31a3.31,3.31,0,0,0,1-.2l3.78,11.52a2.24,2.24,0,1,0,4.26-1.4Z"/>
    <circle class="cls-3" cx="91.49" cy="114.35" r="6.58"/>
    <path class="cls-3" d="M102.24,127.23a3.32,3.32,0,0,0-3.31-3.09H83.63a3.32,3.32,0,0,0-3.31,3.09l-5.87,17.87a2.24,2.24,0,1,0,4.26,1.4L82.5,135a3.31,3.31,0,0,0,1,.2l.65,5.34L77.7,159h6.61v17.4a2.8,2.8,0,0,0,5.6,0V159h2.61v17.4a2.8,2.8,0,0,0,5.6,0V159h6.74L98.4,140.49l.65-5.31a3.31,3.31,0,0,0,1-.2l3.78,11.52a2.24,2.24,0,1,0,4.26-1.4Z"/>
  </g>
  <g class="large">
    <circle class="cls-2" cx="157.05" cy="76.06" r="9.91"/>
    <path class="cls-2" d="M187.21,119.73,173.64,91.45a4.43,4.43,0,0,0-.94-1.28,3.72,3.72,0,0,0-3.26-1.87H143.76A3.87,3.87,0,0,0,140,91.14a4.32,4.32,0,0,0-.23.39l-13,28.28a4.46,4.46,0,1,0,8.12,3.72L141.62,109c-1.62,11.69-.85,22.53,3.78,23.68v41.9a5.06,5.06,0,0,0,10.13,0V132.84h2.25v41.78a5.06,5.06,0,0,0,10.13,0V132.76c4.85-.94,6.63-10.9,4.73-22.78l6.53,13.61a4.46,4.46,0,1,0,8-3.86Z"/>
    <circle class="cls-3" cx="157.05" cy="76.06" r="9.91"/>
    <path class="cls-3" d="M187.21,119.73,173.64,91.45a4.43,4.43,0,0,0-.94-1.28,3.72,3.72,0,0,0-3.26-1.87H143.76A3.87,3.87,0,0,0,140,91.14a4.32,4.32,0,0,0-.23.39l-13,28.28a4.46,4.46,0,1,0,8.12,3.72L141.62,109c-1.62,11.69-.85,22.53,3.78,23.68v41.9a5.06,5.06,0,0,0,10.13,0V132.84h2.25v41.78a5.06,5.06,0,0,0,10.13,0V132.76c4.85-.94,6.63-10.9,4.73-22.78l6.53,13.61a4.46,4.46,0,1,0,8-3.86Z"/>
  </g>
  <line class="cls-4 svg-stroke-orange" x1="59.98" y1="190.81" x2="196.98" y2="190.81"/>
</svg>
