<svg id="elbow" xmlns="http://www.w3.org/2000/svg" viewBox="0 0 82.78 98.94">
  <defs>
    <style>
      #elbow path {
        fill: none;
        stroke: #fff;
        stroke-miterlimit: 10;
        stroke-width: 2.5px;
        stroke-linecap: round;
      }
    </style>
  </defs>
  <title>elbow</title>
  <path d="M1.25,87.31c11-6.9,13.39-7.22,22.06-15.61,10.3-10,26.15-18.5,29.1-16C40.63,44.93,28.1,25,35,10.37,39,1.79,53.7-2.82,62.52,6c7.21,7.23,12.88,26.21,14.23,39.14.41,3.89,3.51,8.37,4.38,11.37,2,7-4.1,12.56-8.46,15A119.84,119.84,0,0,1,45.27,85.88c-7.83,2.87-22.94,7.88-32.59,11.81C7.08,97.69,1.25,92.91,1.25,87.31Z"/>
  <path d="M69.14,66.72s2.63,3,9.39,0"/>
</svg>
