<svg id="foot" xmlns="http://www.w3.org/2000/svg" viewBox="0 0 87.01 94.75">
  <defs>
    <style>
      #foot path {
        fill: none;
        stroke: #fff;
        stroke-linecap: round;
        stroke-miterlimit: 10;
        stroke-width: 2.5px;
      }
    </style>
  </defs>
  <title>foot</title>
  <path d="M3,11.63C.8,22.65,9.8,46.19,9.8,60.88c0,4-3.1,6-5.33,8.82C1.39,73.63.66,79.52,1.69,84.32c.75,3.48,2.93,6.8,6.22,8.15C14.21,95,23.06,92.13,29.45,91a70.24,70.24,0,0,1,18.22,0c3.68.7,13.14,1.05,22.25,1.75s13.84-3.14,15.47-6.18S83.52,79,76.52,79c-7.24,0-12.74-4.22-19.39-6.89S45.23,68.78,38.68,66c-5.61-2.34-6-9.37-6-9.37s.69-40.83.69-52.8c0-3-7.56-3-12.49-2.13C14.52,2.88,7.51,5.35,3.58,10.82A2.84,2.84,0,0,0,3,11.63Z"/>
  <path d="M12.29,76.31c1.06,2.45,1.4,4.92,8.41,5.39"/>
  <path d="M3,11.63C.8,22.65,9.8,46.19,9.8,60.88c0,4-3.1,6-5.33,8.82C1.39,73.63.66,79.52,1.69,84.32c.75,3.48,2.93,6.8,6.22,8.15C14.21,95,23.06,92.13,29.45,91a70.24,70.24,0,0,1,18.22,0c3.68.7,13.14,1.05,22.25,1.75s13.84-3.14,15.47-6.18S83.52,79,76.52,79c-7.24,0-12.74-4.22-19.39-6.89S45.23,68.78,38.68,66c-5.61-2.34-6-9.37-6-9.37s.69-40.83.69-52.8c0-3-7.56-3-12.49-2.13C14.52,2.88,7.51,5.35,3.58,10.82A2.84,2.84,0,0,0,3,11.63Z"/>
  <path d="M12.29,76.31c1.06,2.45,1.4,4.92,8.41,5.39"/>
</svg>
