<svg id="hand" xmlns="http://www.w3.org/2000/svg" viewBox="5 0 79.72 112.15">
  <defs>
    <style>
      #hand path,
      #hand line {
        fill: none;
        stroke: #fff;
        stroke-width: 2.5px;
        stroke-linecap: round;
        stroke-miterlimit: 10;
      }
    </style>
  </defs>
  <title>hand</title>
  <path d="M36.35,106.56V91.86C26.06,83.2,13.48,65.69,1.68,51.93-1,48.83,9.12,42.78,16.8,49.36a99.36,99.36,0,0,1,10.55,10l.22-40.81s-.88-8.52,5.92-8.52a7.85,7.85,0,0,1,3.37.63,3.81,3.81,0,0,1,1.89,2S38.17,1.25,46.4,1.25c7.46,0,7.06,10.48,7.06,10.48a8.52,8.52,0,0,1,3.14-3.1,7.51,7.51,0,0,1,2.79-.76s6.8-.47,6.8,8.53v7.46s1-2.94,6.45-2.94,5.83,4.92,5.83,7.77V72.11s-1.1,14.26-11.19,17.55v16.89s-5,4.35-15.94,4.35S36.35,106.56,36.35,106.56Z"/>
  <path d="M66,47.1c0-.88.18-23.26.18-23.26"/>
  <path d="M35.63,67.63s14.54-.78,14.54,9.53c0,0,2.41-9.37,16.89-9.37"/>
  <line x1="53.46" y1="11.13" x2="53.46" y2="42.28"/>
  <line x1="38.76" y1="10.25" x2="38.76" y2="44.25"/>
</svg>
