<svg id="onsight-hero" data-name="Layer 1" xmlns="http://www.w3.org/2000/svg" xmlns:xlink="http://www.w3.org/1999/xlink" viewBox="0 0 1313 1250">
  <defs>
    <style>
      #onsight-hero .cls-1 {
        fill: inherit;
        fill-rule: evenodd;
      }
    </style>
    <symbol id="onsight-hero-path">
      <path class="cls-1" d="M1159,312l1,29c29.56-1.5,46.16,5.4,64,18,4.22,3,9.09,3.7,11,9,2.52,3.91-.58,10.77-1,16-5.55,2.93-5.66,10.61-12,13-8.89,6.54-55,1.11-63,6h-1c1.8,5.77-.42,14.3-2,21l1,12c.15,7.81-1.36,14.49-2,20-.6,5.18-.37,19.08-3,26-2.2,5.81-6,13-8,20-1.65,5.74-1.77,11.87-3,17v16c-.66,2.34-3.32,5.66-4,8l-1,24c-2.28,10-4.81,20.6-5,32,26.4,17.76,33.8,73.22,5,94-3.38,2.44-7.32,2.77-11,5-4.13,2.5-8.94,6.61-13,9l-10,3V816c-2.08,3.89,1.69,13.85,3,18,2.07,6.58,1.49,12.1,4,18,4,9.49,11.31,17.1,16,26,7.27,13.81,7.23,30.93,12,48,13,46.63,14.32,106.16,26,153l1,17c1.17,2.22,7.43,5.12,9,9l1,12c-.16,8.3,10.09,42.45-4,48-4.71,4.4-9.55,1.71-16,1-19.2,31.79-48.72,27.65-89,18-1.12-2.09-1.43-1.83-2-5,1.05-2,.78-11,1-15,11.87-9,32.62-30.42,37-46h-3c-8.27,5.43-29.62,1-38-1-1.37-2.54-1.92-3.5-2-8,2.39-3.7-1.63-17.94-3-23-5.52-20.3-3.95-49.81-9-72-1.68-7.39,1.6-17.71-4-21-4.67,3.55-15.62,6.12-22,7,0,22.9-4.22,72,2,85,.83,1.74,4.17,3.82,5,6,1.6,4.23,2.25,31.35,0,35-1.08,3.44-2.6,4.88-6,6-9,7-25,2.29-37,2-8,16.18-36.38,27.25-60,21-7.36-1.95-18.62-.2-22-6-2.76-3.85-2.65-15.29,0-19,3.12-8.3,14.47-10.9,22-15,9.79-5.33,21.19-15.93,25-27H933c-2.27,1.47-9,1.7-12,2a14.14,14.14,0,0,1-1-4c6.74-7.54,7-41.09,7-56h-1c-10.42,7-25.81,5.64-37,12-5.23,3-9.77,9.52-16,12-6.56,2.61-8.23-3.37-13-3-3.09.24-9,3.89-12,5-11.26,4.2-23.34,7.43-34,11-17.22,5.77-33.76,10-50,16l-13,3-3,4-8,3c-3.55,4.82-4.07,10.71-9,14-8.69,5.79-33.41,6.52-38-3-3.64-3.76-3.2-11.37-3-19-9.63.59-18.61,3.93-27,6-13.49,3.32-26.72,3.1-39,6-19.22,4.54-39.46,1.86-58,6H549c-10.44,2.26-38.36,4.91-51,2-13.73-3.16-27.55-10.93-40-12-5.28,5-21.62,13.51-31,14v-2c-4.21-6.69,4.3-18.73,9-21-1-.8-.27-.35-2-1-8.1-7.21-29.15-8.13-33-19-1.53-2.33-1.39-6.23-2-7v-1c-1.75.63-1,.19-2,1-3.78.9-6.56,2.77-8,6-4.43,4.92,0,14.84,0,20-4.45,3-6.51,4.16-15,4-8.21-5.2-20.36-4.87-30-8-18.39-6-38.36-9.59-58-16-3.44-1.12-9-2.89-12-5-3.82-2.68-1.86-5.86-8-7-3.46,2.2-12.74,1-18,1-14.89,0-33.26,0-47-3l-44-1c-14.28-3.17-26.75-5.37-38-10-5-2-11.31-1.88-14-6-3.62-5.54-1.79-17.82,0-23V992c0-14.33,1.74-32.45-1-45V924c-1.85-3.48-17-8.07-21-11s-3.07-7.76-6-12c-1.9-2.75-10.91-8.12-14-11,0-34.53-8.31-71.22-1-106,3.69-.91,11.16-3.13,13-6,1.66-2.59.49-5.43,3-7,4.5-2.83,17.26-6.15,23-7V743c-1.24-2.81-6.49-4-5-10,.18-.72,2.84-3.28,3-4,1.31-5.84-2-17.91,2-24,6.17-9.32,17.79-12.37,29-17,12.13-5,25.54-10.63,39-15,12.67-4.11,23.4-3.73,37-7,26.1-6.28,58.24-4.62,86-11l31-1c13.63-3,31.26-.85,45-4h26c14.94-3.28,36.21-1,53-1l113,1V526c0-15.87-3.45-44.88,1-58,3.4-10,15.79-13.41,25-18,24.12-12,52.75-26,84-30,.12-15.15,2.93-49.22-1-61-2.61.31-19.25,1.92-25-1-3.83-1.95-3.92-5.76-9-7-6.14,3.8-15.94,1.19-24,3-21.9,4.93-63,4-79,15s-30.89,51.55-42,70c-3.16,5.24-1.34,17.1-7,20-9.33,8.38-25.61-11.5-30-16,.67-13.83,11.55-25.55,17-36,17.68-33.89,30.79-63.49,70-76,19.69-6.28,43.93-4.32,64-9,6.85-1.6,15,.3,20-3-2-1.58-2.85-3.58-4-6-17.3,3.14-33.53-2.68-50,1-17.25,3.85-39,1-57,5H497c-14.66,3.25-33.34.74-48,4H433c-8.38,1.86-18.7-.08-28,2-36.56,8.17-77.83,4.74-114,13-23.45,5.35-49.4,2.78-72,8-8.7,2-16.37.13-24,3-21.63,8.13-39,46.63-51,66-1.82,2.93-5.25,8.14-6,11-1.46,5.54,3.48,8.15-3,11-8.11,5.16-27.22-12.77-27-23,7.4-6,10.82-18.75,16-27,15.82-25.18,31.06-54.86,60-67,11-4.6,22.68-3,36-6l78-9,31-2c27.54-6.1,59.26-3,87-9,11.54-2.5,23.87.19,34-2,10.82-2.34,22.38.09,32-2l45-2c12.77-2.78,29.23-1.23,42-4h14l16-6,70-6V168h-2c-1.45-2.1-.28-3.38,0-5,1.79-10.4-.78-22.71,4-30,12.68-19.31,44-21.37,75-22,.76-2.63,1.2-2.39,2-5-8.33-1.84-35.7-13.63-38-20-3.59-4.12-3.12-27.64-3-36-18.44,3.6-36.15,16.71-53,23-9.66,3.61-22.73,5.35-24,17l-3,30c-7.25,4.06-14.7-.12-23,3-2.38.9-2.58,2.58-7,3v18c-10.52,3.73-32,0-46,0-9.69,0-21.22.72-28-2-1-2.89-1.06-7.67-1-12,3.12-1.82,3.77-2,4-7,3.9,0,4.5.5,6-2H507c-1.52-1.05-4.91-1.59-7-2l-1-3c-3.15-5-.06-18.35,0-26,.16-20.41,1.07-52.26,5-71l3-1c5.15-3.32,20.64-1,28-1,23.49,0,60.37-3.52,81,1,9.51,2.08,15.27-3.07,16,8,1.75,3,.14,15.71,0,22h2c6.86-6.32,18.92-8.05,28-12,12-5.22,27.46-14.58,38-18,4-1.29,14.54.46,17,2l17,11V43c3.34,5.34.86,21.77,2,28,7.14,4,16.27,10.52,24,13,6,1.93,12.6.24,17,2,.68,6.05,1.9,10.95,2,18,3.83,1.12,4.46,3.9,7,5h16c4.36-2.68,13.05.28,19-1,20-4.28,48-1.28,70-1,6.36.08,18.83,2.83,23,1h1c-3-7.18-5.47-13.71-6-21-.22-3,2.29-7.8,2-12-.64-9.24-3-17.89,0-28,6.23-20.79,27.3-37.93,52-40,6.81-.57,15.34,4.56,21,7,8.36,3.6,14.16,8.92,20,15-.68,2.49-2.36,1.86-1,3,10.24,17.47,24.43,30.21,30,53,2.62,10.71-1.66,22.49-3,30-2.67,15,.1,42.69,5,55,4.92,2.8,10,7.82,15,10,5.81,2.53,12,2.69,17,5V173c-2.5-4-2.08-40.59-2-49,3.13-1.08,8.41-1.06,13-1,5.13,3.13,29.75,1,38,1l94,1c11,0,34-3.26,41,2,5.32,8.71.19,41.93,3,55,3.09,14.33-1.37,31.34,2,47,2.75,12.76-1,27.94,2,42,2.26,10.49,2,24.41,2,36l-1,1C1227,310.06,1192.35,311.86,1159,312Z"/>
      <path fill="black" d="M999,30a11,11,0,0,0,2,5V30Z"/>
    </symbol>
    <mask id="onsight-hero__mask">
      <use xlink:href="#onsight-hero-path" fill="white" />
    </mask>
  </defs>
  <image xlink:href="ROOT_URL/wp-content/themes/aray_med/assets/img/page-onsight/onsight-hero-shadow.png" x="0" y="806" width="1313" height="444" />
  <image
    class="lazyload"
    mask="url(#onsight-hero__mask)"
    data-responsive="page-onsight/onsight-hero.jpg"
    xlink:href="ROOT_URL/wp-content/themes/aray_med/assets/img/page-onsight/onsight-hero.jpg"
    x="0"
    y="0"
    width="1313"
    height="1250"
  />
</svg>
