<svg id="weight-bearing" data-name="Layer 1" xmlns="http://www.w3.org/2000/svg" xmlns:xlink="http://www.w3.org/1999/xlink" viewBox="0 0 882.72 941.52">
  <defs>
    <style>
      #weight-bearing .cls-1 {
        fill: inherit;
        fill-rule: evenodd;
      }
    </style>
    <symbol id="weight-bearing-path">
      <path class="cls-1" d="M513.36,331.92V265.68l-1.68-.24,2.16-17.52c5.8-13.72,28.24-14.09,47.52-14.16,0-4,.34-9.74,1.92-12.48L574.8,221l16.32-5.76V215c-3.69.07-17.88.53-19.68-1-1.86-1.27-1.55-8-1-10.8,1.48,0,1.71.09,2.16-1-6.05-.48-13.68-.19-19-1.44-1.35-2.09-1.25-7.32-.72-10.8l1.68-32.16c.69-4.58-1.07-11,2.4-12.72l57.12.24c6.66,0,17.5-1.4,22.08,1.2,1.45,4.94.59,13.22-.24,18.72l-1.2,24.24c-.71,4.73.44,9.91-1.44,13.2-3,.72-2.9,2.46-2.64,6.24-.72,3.08-.23,5.49-1.68,7.44-12.76,4.22-26.44,11.07-40.32,13.68v.24c19.36-.27,41-1.71,59.28,1.2,8.69,1.38,18.35.19,25.44,3.12,4.16,1.72,9.77,6.14,12,9.84s2.2,12.72,2.4,18l-2.4.48-.24,20.88c18.47,10,15.42,36.42,15.36,64.56l17.76-7,29.76-12c1.72-6.73-1.39-19.69,1.44-25.92,2,.07,4.67.15,6-.48l7.44-10.8c5.67-8,11.07-16.18,16.8-24,2.72-3.72,5.34-9.67,9.36-12,1,.37,1,1.13,1.68,1.44,5.23,2.22,10.77-2.38,14.88-.24-1.17-11.81-6.16-31.68.24-41.28l44.64-4.08c5.72-.92,15.51-2.61,21.36-.72l7.44,71L882,311c-2,2.51-8.4,2.29-12,3.12l-32.64,6.48c.39,3.91,1.81,9.1.72,13.2l.48.48c11.75-3.89,25,3.05,32.64,7l8.16,4.56c1.59,2.75-.7,7.13,0,9.12-1.85,2.69-3.71,6.13-6.48,7.92s-29.22,9.11-33.36,8.4c-7.38-1.27-22.06-7.95-24.72-13.68-3.09-6.66,3.82-16.9,6.48-19.92,2.25-2.56.13-10.56,0-13.92-2.32.4-3.94.63-5.52-.48-1.45-4.1-3.49-8.42-4.56-13.2l-4.32-37.92h-.72l-1,1c-1.17,3.06.16,7-1.44,9.36-1.71,2.51-5.09,2.2-7.44,4.08l-18,25.68c-3.21,9,14.94,22.17,2.16,30-8,4.89-14.34-2.54-20.4-1l-38.64,15.84c-2.94,1.2-13,3.84-14.64,5.76-2.09,3.32-.05,11.07-1,15.36-1.81,8.55-11.35,14.22-21.36,14.64v8.4h16.8c14.26,3.1,27.15,10.54,38.16,17.28,6.06,3.71,13.72,6.81,16.56,13.68,2.23,5.4,1.2,14.89,1.2,22.08L757,500.64c0,55.17-1.67,109.82-1.68,164.16l-11.76,5.52c-1.46,10.11-3.86,13.42-11.76,17.28l.24.48,11.28,2.16c1.13,1.41.48,6.1.48,8.4,0,6,1.19,21.46-1,25.68L590.64,794.88l-31.92,14.88-2.88,4.08c-3.12,3.47-11.1,5.19-17.28,3.36-6.47-1.91-5.11-5.33-8.64-8.16L497,801.6c-3.85-1-10.89-1.11-12.48-4.32-.67-1.2-.31-3.9-.48-5h-.24l-1,.48c.53,4.25,3.77,8.85,2.88,13.68l-2.88,7.44c-.4,2.24,1.74,5.81,0,7.2-3.85,3.08-14.08,4.2-20.88,3.12l-5.76-.48c-3.59.64-13.82,5-16.08,7.2l4.56,24c1.46,3.47,7.7,7.37,5.28,13.92-1.79,3.56-7.3,5.31-11,7l-27.36,13-28.08,13.44c-6.39,3.72-13.65,8-21.84,9.6L349.2,912c-15.56-.35-28.74-1.43-42-4.08-36.42-7.27-71.58-11.33-103-23.52-12.87-5-25.63-10.19-37-16.8l-13.44-7.2c-5.07-3.8-1.06-15.1,4.56-16.08l5.52-39.6c1-5.43.21-13.39,2.88-17.52,2.34-3.62,9.7-5,13.92-6.72,12.2-5,24.8-10.15,38.16-13.68l.24-12c-11.76-.48-14.83-5.46-16.56-16.08l.72-7.44-1.68-7.68L199,719.76c-.64-2.74,1.59-3.58,1.44-5.76L198,700.8c-2.71-.42-3.24-1.56-4.32-3.6l1.68-4.8-7-39.6c-3.18-1-13.68-6.06-15.36-8.4-1.27-1.77-1-4.41-2.64-5.76-1.87-1.51-5.82-2.43-6.72-4.8l-.72-8.4c-1.49-9.11-1.68-18.92-1.68-29.28l.72-25.92c-.48-1.08-6.34-3.32-7.68-4.8-1.06-1.16-1-2.64-1.92-4.08-2.41-4-10.51-11.63-14.64-13.92h-.24c1.28,6.12,6.06,10.55,7.68,17,2.32,9.33.37,21.46,2.4,31.2,1.37,6.59,3.88,11.28,5.76,16.56l5,31c.66,4.12-2.14,7.87-2.88,11.28L153.36,672l-9.84,68.88L138,784.8c-1.25,7.58.92,18.75-2.4,24.72-1.9.47-4.55.93-5.76,2.16l.24.48L139.2,816c5.2,2,11.93,2.81,16.08,6,1.52,1.17,1.81,2.85,2.4,5,2,7.44-4.59,10.71-10.56,12.48,3.27,8.81-17.78,17-28.08,15.36-8.89-1.39-17.53-1.87-25-4.8l-13-7.2c-3.37-.81-4.15,1.62-6,2.16-2.28.67-11.07-1.86-13-2.64-5.31-2.18-7.29-18.39-4.32-25.68.79-1.93,2.93-2.1,4.08-3.6l1.92-7.92c.86-1.25,2.83-1.28,3.6-2.64,3.19-11.87,1.78-25.31,4.08-38.16,3-16.88,4.32-35.9,7.44-52.08l1.2-14.88C82,686.92,86,679.75,89.28,670.32c1-2.71,2.42-5.31,2.64-8.64l-15.6-21.84C66.26,623.9,57.21,607.7,45.84,593l-11-11.52A120.77,120.77,0,0,1,16.32,549.6l-.72.24-3.84,5.76C7,554.11-.91,544.46.48,537.12l2.64-9.84c1-5.26-.84-12.61.24-17l5.28-9.12,4.56-8.4c3.85-5.43,8.48-10,12.24-15.6,6.3-9.46,13.82-18.72,22.8-25.44,6-4.46,12.36-7.86,18-12.48,3.07-2.51,4.08-7.32,7.2-9.84L98.88,405.6c1.94-2,2.56-5.46,4.8-7.2l21.84-10.32L131,386.4c3.61-2.18,6.31-6.59,11-7.92,4.92-1.38,5.3,4.31,9.6,3.36,3.51-.78,7-5.09,10.32-6.24.56-.2,11.53-1,12-1,1.48.27,3,1.37,4.08,1.68,2.16.63,3.22-1.63,6-1.68,1.9,1.17,2,3.32,3.6,4.56l4.8,2.4,2.16,4.32,2.4,1a79.34,79.34,0,0,1,8.88,9.6l.48-.24,6.24-10.08c9.24-13.86,19.72-21.71,38.88-25.92l40.8-7c-1.12-2,0-5-.72-7.44s-4-3-3.12-7.2l2.16-5.76c-.45-2.45-3.11-4.28-2.64-8.16l1.92-10.8a137.33,137.33,0,0,1,0-40.32c1.21-7.5-1.51-14-.24-20.64,3.8-19.86,8.69-39.26,13.44-57.6l.72-6.72,2.88-8.16c1.16-5.1-1.91-9.64-1-15.36,1.73-10.46,6.16-18.88,11.28-26.16,3.61-5.12,8.1-8.6,13-12.48,5.06-4,8.26-10.08,13.68-13.92l10.8-6.48,6.72-2.4c4.42-3.92,8.76-13.1,9.12-20.64,2.77.44,11.78.94,13.2-1,1.26-2.42,1.64-6.79,1.68-10.08-11.57-5.12-10.24-18.82-7.68-31.2L376.8,30c.8-3.23,2.91-4.35,4.8-6.48,1.4-1.59,2-4.35,3.6-6.24,2.75-3.2,7.55-5.21,10.8-7.92l2.4-3.12c1.95-1.14,4.37.44,6.72,0,3.4-.64,8.52-2.4,10.32-4.08a49.06,49.06,0,0,0,16.8,4.08c.47-1.2-.28-1.08,1.44-1,.86-.74,5,1.88,6.48,2.64,1.74.87,1.35,2,3.12,3.12l1.2-.48c4.82,2.06,4.29-.24,8.64,3.84V13.2l.48.24c.42,2.25,2.32,5.65,1.92,9.84.67.13.59-.19.48.48.11,1-.58.68-1,2.4h1.68l-.24,1c-1.93.5-3,.86-3.6,2.64l-1.44-.48-.48.24c0,1.87.62,1.59.72,3.84-.84-.26-.13-.48-1,0L454.8,54c-.6,2.39-3.68,3.82-4.32,5.76l.24,13-2.4,17-2.88,5.76c-1,3.64-.46,5.56-2.16,7.92a22.68,22.68,0,0,0,8.64,6.24c2.46,1,5.4.83,7,2.64L457.2,115c18.77,6.35,27,27.44,31,48.48l2.4,24.24,12,45.36c1,5.75-3.08,8.84-2.4,13,.52,3.15,3,8.36,3.6,12l-1,3.84c.13.34,1.11.93,1.2,1.68.2,1.7-1.27,3.56-.72,6,.9,4,2,10.06,2.88,14.4l-.24,9.6c1.08,3.91,4.66,7.68,3.84,13.68-.69,5-3,8.54-3.84,12.24-.8,3.53,2.83,11,4.56,12.72Z"/>
      <path fill="black" d="M414.24,3.84l-.24.48h1.44C415,3.94,415.11,4,414.24,3.84Z"/>
      <path fill="black" d="M421.2,5c.43.49,0,.17.72.48C421.49,5,421.92,5.35,421.2,5Z"/>
      <path fill="black" d="M434.16,5.28l.48.72Z"/>
      <path fill="black" d="M433.44,5.76l-.24.72.48.24h.72l-.48-1Z"/>
      <path fill="black" d="M408.48,6l-.48.24v.48l1.44-.48V6Z"/>
      <path fill="black" d="M430.8,7l.48.48Z"/>
      <path fill="black" d="M429.84,7.2l.48.48Z"/>
      <path fill="black" d="M432,7.2l-.24.72C432.09,7.41,432.2,7.79,432,7.2Z"/>
      <path fill="black" d="M434.4,7.2l.48.72.24-.72Z"/>
      <path fill="black" d="M437,7.68l.48.24Z"/>
      <path fill="black" d="M440.88,9.12l.72,1.2C441.35,9.44,441.4,9.61,440.88,9.12Z"/>
      <path fill="black" d="M446.16,12.48V13C446.39,12.54,446.38,12.91,446.16,12.48Z"/>
      <path fill="black" d="M450.24,12.72l.48.48Z"/>
      <path fill="black" d="M451.2,12.72l.48.72Z"/>
      <path fill="black" d="M452.4,12.72l.48.48Z"/>
      <path fill="black" d="M447.84,13l-.24.48C448,13.14,447.73,13.23,447.84,13Z"/>
      <path fill="black" d="M446.16,13.2l.48.24Z"/>
      <path fill="black" d="M452.16,16.08l.24.48.24-.48Z"/>
      <path fill="black" d="M453.12,16.56l.72,1.92h.24v-.72Z"/>
      <path fill="black" d="M456,16.56l1,2.4h-.24v-.48Z"/>
      <path fill="black" d="M454.32,19.2l.72,2.16h.24L455,19.2Z"/>
      <path fill="black" d="M456.48,19.92a1.3,1.3,0,0,1-.48,1.92Z"/>
      <path fill="black" d="M457,21.6a5,5,0,0,1,1.2,2.88h-.24V24Z"/>
      <path fill="black" d="M456.24,22.08l.24.72h-.24Z"/>
      <path fill="black" d="M453.84,22.8l-.48,1,1-1Z"/>
      <path fill="black" d="M453.12,24.24l-.48,1.2h.24c.38-.38,0-.08.48-.24l-.72,1,1.68-.72.48-1.2Z"/>
      <path fill="black" d="M691,347.76c.16-14.93,2.94-44.53-5.28-51.12h-.24L685,329.52c.89,2.08,3.26,3,3.84,6,1.09,5.61-2.61,7.42-1.2,12.72Z"/>
      <path fill="black" d="M335.28,346.8c.12-11.43-1.1-31.49-5-38.88l-.24.48c-2.73,4.77.29,6-.72,11-.81,4-4,6.66-5.76,9.84,1.55,8.45,2.18,13.42,8.16,17.76Z"/>
      <path fill="black" d="M765.84,326.4v10.32c2.89.42,9.91,2.36,12.24,0,3-3.05-2.7-15.48-4.32-17.52a14.54,14.54,0,0,0-4.56,7Z"/>
      <path fill="black" d="M336.48,364.08l-1.68.24-1.92,6.24-.72.24c-2-1.27-3.2-4.88-5.52-4.8-.64,6-10.54,8.44-16.32,7.2-2.16-.46-5.19-2.56-7-3.12l-16.8,2.64c-15.51,3-35.75,2.39-47.52,9.6-10.86,6.65-15.78,20.25-22.32,31.2l-6,9.84c-1.42,4.57,2.46,6.17,1.44,9.84l-2.4,4.8-.72,5.76c-1,3.93-3.25,6.49-5.52,9.12,1,2.18.69,6.9-.72,8.88-2.53,1-2.21,2-3.6,4.08-1.81,2.73-5.31,4.55-8.88,5.52,3.11,11.83,3.38,28.75,5.76,42.24l-.72,6.24c1,6.34,1.27,12.33,2.64,17.52l1-.48,15.12-10.56c4.2-5.77,7-11.24,12.48-15.6,15.22-12,35.68-22.18,55.92-28.56,13.14-4.14,35.3-.36,49.92,1.92l17.52-2.64c2.57-9.73.22-22.18-1.44-33.12l-.72-29.76-1.68-24-1.92-11c-5.14-.6-5.36-13.72-6-19.44Z"/>
      <path fill="black" d="M182.4,375.12l-.48.72c1.44-.32,1.42.37,3.36.72l-.48-1Z"/>
      <path fill="black" d="M500.64,387.6l-4.8,1-.24.48,5,23h.24L513.36,409c.06-3.2,1-16.59-.24-18-2.63-1-8.1-.43-11-1.2l-.48-2.16Z"/>
      <path fill="black" d="M165.36,497.52c-2.62,3.71-5.47,11.62-9.84,13.44,1.67,6,20.25,25.15,25.44,29h.24c-.75-6.77-2.46-16-6.24-20.16-1,.34-1.13.3-1.68-.48C171.32,515.83,167.88,498.61,165.36,497.52Z"/>
      <path fill="black" d="M303.36,752.4c-10.18,4.69-26.77-.26-38.64,2.88v1l32.64.72c3.78,0,10.64,1,13.44-.48C307.55,755.64,305.89,753.66,303.36,752.4Z"/>
    </symbol>
    <mask id="weight-bearing__mask">
      <use xlink:href="#weight-bearing-path" fill="white" />
    </mask>
  </defs>
  <image xlink:href="ROOT_URL/wp-content/themes/aray_med/assets/img/page-onsight/weight-bearing-shadow.png" x="-23" y="634" width="882.72" height="315" />
  <image
    x="0"
    y="0"
    width="882.72"
    height="941.52"
    mask="url(#weight-bearing__mask)"
    class="lazyload"
    data-responsive="page-onsight/weight-bearing.jpg"
    xlink:href="ROOT_URL/wp-content/themes/aray_med/assets/img/page-onsight/weight-bearing.jpg"
    />
</svg>
