<svg id="wrist" xmlns="http://www.w3.org/2000/svg" viewBox="0 -4 109.68 59.53">
  <defs>
    <style>
      #wrist path,
      #wrist line {
        fill: none;
        stroke-width: 2.5px;
        stroke: white;
      }
    </style>
  </defs>
  <title>wrist</title>
  <path d="M7.94,6.76H50.47S67.21.18,77.93,1.4,95.15,3.75,97.5,10.9c.85.09,7,1.22,7,7.05,0,0,.09,3.62-1.88,4.3,0,0,4,1.62,4,7.08,0,0-.38,5.08-3.86,5.83,0,0,6.21.85,5.74,6.21s-6.77,5.27-6.77,5.27H99.38s4.7,2.54,4.33,4.7-2.54,2.63-5.36,4A45.64,45.64,0,0,1,92.51,58c-1.22.38-5.08.28-9,0s-6.77.31-8.94.25-5.27-.34-8.75-4.57S53.86,37.24,37.58,37.24H7.28s-6-4.32-6-15.37S7.94,6.76,7.94,6.76Z"/>
  <line x1="84.99" y1="10.15" x2="97.5" y2="10.9"/>
  <line x1="102.58" y1="22.26" x2="89.69" y2="21.47"/>
  <line x1="102.67" y1="35.17" x2="91.67" y2="34.07"/>
  <path d="M79,48.15a37.35,37.35,0,0,1,8-1.22h12.9"/>
  <path d="M7.94,6.76H50.47S67.21.18,77.93,1.4,95.15,3.75,97.5,10.9c.85.09,7,1.22,7,7.05,0,0,.09,3.62-1.88,4.3,0,0,4,1.62,4,7.08,0,0-.38,5.08-3.86,5.83,0,0,6.21.85,5.74,6.21s-6.77,5.27-6.77,5.27H99.38s4.7,2.54,4.33,4.7-2.54,2.63-5.36,4A45.64,45.64,0,0,1,92.51,58c-1.22.38-5.08.28-9,0s-6.77.31-8.94.25-5.27-.34-8.75-4.57S53.86,37.24,37.58,37.24H7.28s-6-4.32-6-15.37S7.94,6.76,7.94,6.76Z"/>
  <line x1="84.99" y1="10.15" x2="97.5" y2="10.9"/>
  <line x1="102.58" y1="22.26" x2="89.69" y2="21.47"/>
  <line x1="102.67" y1="35.17" x2="91.67" y2="34.07"/>
  <path d="M79,48.15a37.35,37.35,0,0,1,8-1.22h12.9"/>
</svg>
