<svg id="xray" xmlns="http://www.w3.org/2000/svg" xmlns:xlink="http://www.w3.org/1999/xlink" viewBox="0 120 1206 976.78">
  <defs>
    <style>
      #xray .cls-1,
      #xray .cls-10,
      #xray .cls-11,
      #xray .cls-13,
      #xray .cls-14,
      #xray .cls-15,
      #xray .cls-16,
      #xray .cls-17,
      #xray .cls-28,
      #xray .cls-29,
      #xray .cls-3,
      #xray .cls-4,
      #xray .cls-8,
      #xray .cls-9 {
        fill: none;
      }


      #xray .cls-10,
      #xray .cls-11,
      #xray .cls-12,
      #xray .cls-13,
      #xray .cls-14,
      #xray .cls-15,
      #xray .cls-16,
      #xray .cls-17,
      #xray .cls-28,
      #xray .cls-29,
      #xray .cls-3,
      #xray .cls-4,
      #xray .cls-5,
      #xray .cls-8,
      #xray .cls-9 {
        stroke-miterlimit: 10;
      }

      #xray .cls-3,
      #xray .cls-5 {
        stroke-width: 3px;
      }

      #xray .cls-4 {
        stroke: #010101;
        stroke-width: 2.5px;
      }

      #xray .cls-12,
      #xray .cls-5 {
        fill: none;
      }

      #xray .cls-6 {
        clip-path: url(#clip-path);
      }

      #xray .cls-10,
      #xray .cls-11,
      #xray .cls-13,
      #xray .cls-14,
      #xray .cls-15,
      #xray .cls-16,
      #xray .cls-28,
      #xray .cls-29,
      #xray .cls-8,
      #xray .cls-9 {
        stroke-width: 4px;
      }

      #xray .cls-9 {
        stroke-dasharray: 3.96 7.91;
      }

      #xray .cls-10 {
        stroke-dasharray: 3.97 7.93;
      }

      #xray .cls-11 {
        stroke-dasharray: 3.96 7.92;
      }

      #xray .cls-12,
      #xray .cls-17 {
        stroke-width: 2px;
      }

      #xray .cls-14 {
        stroke-dasharray: 4 8.01;
      }

      #xray .cls-15 {
        stroke-dasharray: 3.97 7.93;
      }

      #xray .cls-16 {
        stroke-dasharray: 4 8;
      }

      #xray .cls-18 {
        font-size: 65px;
      }

      #xray .cls-18,
      #xray .cls-30,
      #xray .cls-39 {
        fill: #231f20;
        font-family: 'sofia-pro', SofiaProExtraLight, Sofia Pro;
        font-weight: 100;
      }

      #xray .cls-19 {
        letter-spacing: -0.03em;
      }

      #xray .cls-20 {
        letter-spacing: -0.01em;
      }

      #xray .cls-21 {
        letter-spacing: -0.06em;
      }

      #xray .cls-22 {
        letter-spacing: -0.04em;
      }

      #xray .cls-23 {
        letter-spacing: -0.03em;
      }

      #xray .cls-24 {
        letter-spacing: -0.02em;
      }

      #xray .cls-25 {
        letter-spacing: 0em;
      }

      #xray .cls-26 {
        letter-spacing: -0.01em;
      }

      #xray .cls-27 {
        letter-spacing: -0.01em;
      }

      #xray .cls-28,
      #xray .cls-29 {
        stroke-dasharray: 4 8;
      }

      #xray .cls-30 {
        font-size: 40px;
      }

      #xray .cls-31 {
        letter-spacing: -0.03em;
      }

      #xray .cls-32 {
        letter-spacing: -0.01em;
      }

      #xray .cls-33 {
        letter-spacing: -0.04em;
      }

      #xray .cls-34 {
        letter-spacing: -0.03em;
      }

      #xray .cls-35 {
        letter-spacing: 0em;
      }

      #xray .cls-36 {
        letter-spacing: -0.02em;
      }

      #xray .cls-37 {
        letter-spacing: 0em;
      }

      #xray .cls-38 {
        letter-spacing: -0.01em;
      }

      #xray .cls-39 {
        font-size: 45px;
      }

      #xray .cls-40 {
        letter-spacing: -0.03em;
      }

      #xray .cls-41 {
        letter-spacing: 0em;
      }

      #xray .cls-42 {
        letter-spacing: -0.01em;
      }

      #xray .cls-43 {
        letter-spacing: -0.04em;
      }

      #xray .cls-44 {
        letter-spacing: -0.03em;
      }

      #xray .cls-45 {
        letter-spacing: -0.02em;
      }

      #xray .cls-46 {
        letter-spacing: -0.01em;
      }
      #xray .emitter-label {
        text-anchor: middle;
        font-family: 'sofia-pro', SofiaProExtraLight, Sofia Pro;
      }
      #xray #Mobile .emitter-label {
        font-size: 44px;
        font-weight: 500;
      }
      #xray #Mobile .emitter-line {
        stroke-width: 4px;
      }
      #xray #Tablet .emitter-label {
        font-size: 35px;
        font-weight: 100;
      }
      #xray #Laptop .emitter-label {
        font-size: 25px;
        font-weight: 100;
      }
      #xray #backboard {
        fill: white;
      }
    </style>
    <clipPath id="clip-path">
      <polygon class="cls-1" points="1014.79 848.92 1014.79 888.31 887.03 888.31 887.03 848.92 744.58 848.92 744.58 967.72 812.15 967.72 887.03 967.72 1014.79 967.72 1014.79 991.11 1148.24 991.11 1148.24 848.92 1014.79 848.92"/>
    </clipPath>
    <symbol id="Beam_Source" data-name="Beam Source" viewBox="0 0 104.94 98.47">
      <g>
        <path class="cls-3 svg-stroke-orange" d="M1.5,49.24A47.74,47.74,0,0,0,92.19,70.08H65.64a12,12,0,0,1-12-12V40.39a12,12,0,0,1,12-12H92.19A47.74,47.74,0,0,0,1.5,49.24Z"/>
        <path class="cls-3 svg-stroke-orange" d="M59.41,39.91V58.56a5.91,5.91,0,0,0,5.89,5.89H97.55a5.91,5.91,0,0,0,5.89-5.89V57.25a1.23,1.23,0,0,1-.85.42c-1.55,0-2.81-3.95-2.81-8.81S101,40,102.59,40a1.23,1.23,0,0,1,.85.42v-.55A5.91,5.91,0,0,0,97.55,34H65.3A5.91,5.91,0,0,0,59.41,39.91Z"/>
      </g>
    </symbol>
    <symbol id="bone">
      <path class="cls-5 svg-stroke-orange" d="M250.5,263.4c-10.8-10.3-25.4-16.8-34.5-28.7c-16.5-21.7-16.5-61.9-16.5-93.1c0-35.6,0-89.9,0-140.1l-65,0l0,0 h-0.4h-0.4l0,0l-60,0c0,50.2,0,104.5,0,140.1c0,31.2,2.9,73.4-16.5,93.1c-10.5,10.7-23.7,18.4-34.5,28.7 C9,276.4,1.5,294.9,1.5,313.8c0,40.4,31.7,69.9,72.2,69.9c12.3,0,23.9-3,34.1-8.4c0,0,9.2-5.7,21.5-5.9H144 c12.3,0.2,21.5,5.9,21.5,5.9c10.2,5.4,21.8,8.4,34.1,8.4c40.4,0,72.2-29.4,72.2-69.9C271.7,294.9,264.2,276.4,250.5,263.4z" />
      <line class="svg-stroke-orange" style="stroke-width: 3;stroke-dasharray: 8 10;" y1="3" x1="136.5" x2="136.5" y2="368"></line>
    </symbol>
    <symbol id="Beam" data-name="Beam" viewBox="0 0 961.4 414.38">
      <polygon class="cls-2" points="0 194 961.4 0 961.4 414.38 0.85 212.52 0 194"/>
    </symbol>
    <clipPath id="beam-path">
      <polygon points="0 194 961.4 0 961.4 414.38 0.85 212.52 0 194"/>
    </clipPath>
    <linearGradient id="beamPulse">
      <stop offset="0%" stop-color="#2a275b" stop-opacity="0.05" />
      <stop offset="100%" stop-color="#2a275b" stop-opacity="0.2" />
    </linearGradient>
  </defs>
  <g transform="translate(26.1 128.55)">
    <use xlink:href="#bone" transform="translate(825 70)" />
    <use xlink:href="#bone" transform="translate(1098 880) rotate(180 0 0)" />
    <use xlink:href="#Beam_Source" class="triple beam-emitter" width="104.94" height="98.47" transform="translate(78.04 255.83)"/>
    <use xlink:href="#Beam_Source" width="104.94" height="98.47" transform="translate(78.04 423.16)"/>
    <use xlink:href="#Beam_Source" class="triple beam-emitter" width="104.94" height="98.47" transform="translate(78.04 583.95)"/>
    <g transform="translate(179.62 101.88) scale(0.98 1)" style="clip-path: url(#beam-path);">
      <rect width="1200" height="800" class="triple-beam"/>
    </g>
    <use xlink:href="#Beam" width="961.4" height="414.38" transform="translate(179.62 270.21) scale(0.98 1)"/>
    <g transform="translate(179.62 430.71) scale(0.98 1)" style="clip-path: url(#beam-path);">
      <rect width="1200" height="800" class="triple-beam"/>
    </g>
    <g class="cls-6" id="rotator" transform="translate(13 -90)">
      <path class="cls-7 svg-fill-orange" d="M943.56,860c-104.78,0-189.72,16.44-189.72,36.71,0,19.23,76.44,35,173.74,36.58v14.05l38.33-22.13-38.33-22.13v14.46c-81.46-1.32-145.1-12.66-145.1-26.44,0-14.68,72.12-26.58,161.08-26.58s161.08,11.9,161.08,26.58c0,13.54-61.34,24.71-140.66,26.36l13.43,7.76-13.87,8c95.38-1.93,169.73-17.54,169.73-36.51C1133.28,876.44,1048.34,860,943.56,860Z"/>
    </g>
    <g id="triple-source-reconstruction" class="triple">
      <polyline class="cls-9 svg-stroke-orange"  points="1120,103 782,172.5 782,772 1120,844" />
    </g>
    <rect class="cls-12 svg-stroke-purple" x="1120.71" y="101.88" width="32.1" height="741.04" id="backboard"/>
    <polyline id="single-source-reconstruction" class="cls-14 svg-stroke-purple" points="1120,271 794,338 794,617 1120,684" />
    <polygon class="cls-17 svg-stroke-purple" transform="translate(0 170)" points="197.7,34.8 197.7,1 1,1 1,34.8 1,564.3 1,598.1 197.7,598.1 197.7,564.3 58.5,564.3 58.5,34.8 	"/>
  </g>
  <g id="Mobile">
    <g>
      <text class="triple emitter-label svg-fill-orange" transform="rotate(270 50 50) translate(-500 70.7)">3-SOURCE X-RAY TUBE</text>
    </g>
    <text class="cls-18 triple label" transform="translate(106.2 134.2)">3-SOURCE<tspan x="0" y="78">RECONSTRUCTION</tspan></text>
    <text class="cls-18 single" transform="translate(106.02 134.2)">SINGLE-SOURCE<tspan x="0" y="78">RECONSTRUCTION</tspan></text>
    <line class="cls-28 svg-stroke-purple single" x1="444" y1="230.43" x2="823.75" y2="464.88"/>
    <line class="cls-29 svg-stroke-orange triple label" x2="802.17" y2="300.9" y1="236.88" x1="686"></line>
  </g>
  <g id="Laptop">
    <g>
      <text class="triple emitter-label svg-fill-orange" transform="rotate(270 50 50) translate(-500 65)">3-SOURCE X-RAY TUBE</text>
      <line class="triple emitter-line svg-stroke-orange" x1="54" x2="54" y2="450" y1="332"/>
      <line class="triple emitter-line svg-stroke-orange" x1="54" x2="54" y2="864" y1="747"/>
    </g>
    <text class="cls-30 triple label" transform="translate(395.45 169.28)">3-SOURCE<tspan x="0" y="48">R</tspan><tspan class="cls-36" x="24.16" y="48">E</tspan><tspan class="cls-37" x="45.56" y="48">CON</tspan><tspan class="cls-38" x="131.52" y="48">S</tspan><tspan class="cls-37" x="153.72" y="48">TRUCTION</tspan></text>
    <text class="cls-30 single" transform="translate(395.45 169.28)">SINGLE-SOURCE<tspan x="0" y="48">R</tspan><tspan class="cls-36" x="24.16" y="48">E</tspan><tspan class="cls-37" x="45.56" y="48">CON</tspan><tspan class="cls-38" x="131.52" y="48">S</tspan><tspan class="cls-37" x="153.72" y="48">TRUCTION</tspan></text>
    <line class="cls-28 svg-stroke-purple single" x1="581.23" y1="234.87" x2="824.34" y2="465.82"/>
    <line class="cls-29 svg-stroke-orange triple label" x2="802.17" y2="300.9" y1="236.88" x1="686"></line>
  </g>
  <g id="Tablet">
    <g>
      <text class="triple emitter-label svg-fill-orange" transform="rotate(270 50 50) translate(-500 68)">3-SOURCE X-RAY TUBE</text>
      <line class="triple emitter-line svg-stroke-orange" x1="54" x2="54" y2="410" y1="332"/>
      <line class="triple emitter-line svg-stroke-orange" x1="54" x2="54" y2="864" y1="780"/>
    </g>
    <text class="cls-39 triple label" transform="translate(317.07 176.28)">3-SOURCE<tspan x="0" y="54">R</tspan><tspan class="cls-45" x="27.18" y="54">E</tspan><tspan class="cls-41" x="51.25" y="54">CON</tspan><tspan class="cls-46" x="147.96" y="54">S</tspan><tspan x="172.93" y="54">TRUCTION</tspan></text>
    <text class="cls-39 single" transform="translate(317.07 176.28)">SINGLE-SOURCE<tspan x="0" y="54">R</tspan><tspan class="cls-45" x="27.18" y="54">E</tspan><tspan class="cls-41" x="51.25" y="54">CON</tspan><tspan class="cls-46" x="147.96" y="54">S</tspan><tspan x="172.93" y="54">TRUCTION</tspan></text>
    <line class="cls-28 svg-stroke-purple single" x1="516.94" y1="247.51" x2="823.75" y2="463.51"/>
    <line class="cls-29 svg-stroke-orange triple label" x2="802.17" y2="300.9" y1="236.88" x1="686"></line>
  </g>
</svg>
