<svg id="revolution-hero" data-name="Layer 1" xmlns="http://www.w3.org/2000/svg" xmlns:xlink="http://www.w3.org/1999/xlink" viewBox="0 0 1090.32 1144.32">
  <defs>
    <style>
      #revolution-hero .cls-1 {
        fill: inherit;
        fill-rule: evenodd;
      }
    </style>
    <symbol id="revolution-path">
      <path class="cls-1" d="M930.48,367.44c-.49,3.85-6.59,8.7-11.52,8.64-1.53-1.69-3.43-3.2-4.8-5-.53-.71-1.12-2.28-1.92-2.64h-1.92c-1.84-1.13-5-.23-7.2-1a16.69,16.69,0,0,1-3.84-2.4C893,360.35,887.67,353.6,883,347.28c-4.09-5.47-8.78-10.58-13-16.08-1.08-1.42-3.25-1.92-4.8-2.88-3.29-2-6.71-4.19-9.84-6.48-2.13-1.56-4-3.92-6.24-5.28-2.1-1.25-4.35-1.78-6.48-2.88-1.22-.63-2.69-1.8-4.08-2.16-2-.5-4.36,1-5.76,1.44-3.8,1.14-7.63,1-11.28,2.4-1.58.6-2.51,2.37-4.08,2.88-2.83.92-7.5.24-10.8.24l-21.12.24c-.67,2-.26,5.5-.24,7.92l-.72.24c-1.72,1.28-3.74-.08-6.24.48-5.46,1.22-12.81,1.21-19.68,1.2V329c-.84,1.38-.23,8.38-.72,10.56-.69,3.05-1.74,5.82-2.4,8.64v2.64c-1.12,5.15-.24,13.23-.24,19,0,30.57-.45,61-.48,91.2l.24.24,3.6.48c.11,119.65-2.28,240.37-2.4,360.72,3.38,1.7,8,1.83,11.52,3.36,2.35,1,3.43,2.6,5,4.32,0,1.66.65,3.63.48,5a13.46,13.46,0,0,1-1,2.4c2.52,1.72,2.46,7.06,2.88,10.8,3.38.36,7.15,2.39,10.08,3.6,6.11,2.53,12.54,4,18.48,6.48,2.53,1,7.26,1.25,8.16,3.84,1,1.09,1.07,4.09.72,5.76,2.56.63,7.31,2.33,8.64,4.32s3,12,2.4,14.64a22.29,22.29,0,0,1-7.2,1.92c.11,2.11,1.26,1.89,1.68,3.36a3.45,3.45,0,0,1-.48,2.4v14.64c-.17.52-1,1-1.2,1.44-.37.88-.26,5.37-.48,6.48-3.86,2.23-14.85,2.61-20.64,2.88v.24h.48c.84.8,2.19,1,3.12,1.68.5.39.3,1.21.72,1.68s1.46.81,1.92,1.44c1.18,1.63,1.69,3.69,2.64,5.52s2.56,4,3.12,6.24l-.48,15.36c-4.47,2.8-7.58,6.52-13.2,8.4-1.41.47-5.56.17-7,.24v.48c-.92,1.52-.43,4.24-1,6-1,3.31-2.12,7.25-3.84,10.08-5.32,8.76-17.34,20.43-33.6,16.32a59.48,59.48,0,0,1-8.88-2.64,36.94,36.94,0,0,1-10.8-7.44c-1.49-1.49-3.09-5.61-5.52-5.76-2.19,1.31-10.67.48-13.92,1.2-8.92,2-19.17.68-28.08,2.64l-5.52.24-61.2,5.52-17.28,1c-4.31.93-9.6.26-13.92,1.2h-3.6c-5.55,1.2-12.2.23-17.76,1.44h-4.08c-1.76.37-7.16,1-9.12.48L539.76,989a46.31,46.31,0,0,1-11.28,12.72c-3.54,2.67-6.59,6.49-10.32,9.12a77.19,77.19,0,0,1-20.64,9.84c-2.79.91-5.32.74-8.4,1.44-3.59.82-12.37,1.67-16.56.72-3.57-.81-7.26-.83-10.56-1.92-15.84-5.21-29.73-12.59-38.64-24.72-2.19-3-4.31-6.2-6.24-9.36-1.1-1.81-1.4-4-2.64-5.76-.92-1.27-2.78-1.12-3.6-2.64h-.24v1.2c.88,1.3.67,3.41,1.2,5,1.18,3.66,2.82,7.76,2.64,12H414c-1.17.69-5.57-2.27-6.72-2.88-6.9-3.64-14.1-6.81-20.64-10.8-3-1.81-6.12-2.85-8.88-4.8-2.18-1.53-3.6-3.76-5.52-5.52-.7-.64-1.81-.69-2.64-1.2-2.79-1.71-5.74-3.26-8.64-5-7.78-4.77-16-9.38-23.76-14.16-2.19-1.34-4.5-2-6.72-3.36-4.76-2.89-9.87-5.2-14.88-7.92-1.81-1-3.71-2.75-6-3.12a11.85,11.85,0,0,0-.24,3.36c-.58.95.05,2.78-.24,4.08-.54,2.4-.1,5.77-.72,8.16v3.84c-1.08,4.78-.1,10.42-1.2,15.36-.33,1.46-.81,5.41-.24,7.2.26.83,1.1,1.87,1.44,2.64,1.24,2.78,2.09,5.93,3.12,8.64.81,2.11,1,9.57,1,12.24,0,8.6-3,12.33-5.76,17.76-.62,1.22-1.22,5.86-.48,6.72.85,2.33,4.13,3.87,6,5.28,5.54,4.16,9,10.93,7.2,20.4-9.46,5.45-32.4,7.79-44.4,2.88a31.15,31.15,0,0,1-6.72-3.36l-.72-1.2a12.8,12.8,0,0,0-5.52-3.6l-4.56-.48c-3.87-.87-8.76-.88-13-1.2-.6-1-1.08-2.25-2.64-2.4-1.51-1-7.38-1-9.36-1.44-2.59-4.35,1.23-3.63,1.44-7.44a2.15,2.15,0,0,1-1-1.92,3.35,3.35,0,0,0,1.44-3.12c-1.38-.63-1.54-1.24-1.44-3.36a6.65,6.65,0,0,0,.72-4.32h-.48v.24c-1.32,1.1-3.47,5.87-4.08,7.68-.43,1.29-.22,2.64-1,3.6-.3.39-1.09.6-1.44,1,1.65,2.08,3.83,9.63,4.56,12.72v3.36c.26,1,1.16,2,1.44,2.88.75,2.25-.66,6.56-2.4,7.2-2.62,2-8.52.85-12.48,1.68-3.38.71-8.09,0-11.52,0-7.71-.06-20.76.13-25.2-2.88-1-.67-1.36-2-2.16-2.88a16.93,16.93,0,0,1,1-7c.18-.43.87-1.16,1-1.68.13-.73-.38-.85-.48-1.2-.39-1.45.26-2.89.48-3.84-2.29-.43-4.09-1.54-4.08-4.32a6.23,6.23,0,0,0,2.16-3.84c-.75-.5-.93-.89-1-2.16a2.3,2.3,0,0,0,1-1.44c-1-.74-1-1.74-2.64-1.92-1.14-.83-9.93.07-12.48.48a9.86,9.86,0,0,1-.24-2.88c-1.12-1.88-.11-8.74-.72-11.52a31.6,31.6,0,0,1,0-11,6.8,6.8,0,0,0,.48-3.36c-.9-3.67-1.65-8-2.88-11.76-2.14-6.55-3.46-14.2-5.28-21.36-.93-3.67-.87-7.48-1.68-11l-.24-4.32c-1.3-5.78-.87-12.33-2.16-18.24l-1-19v-5.76c-1-4.39-.91-9.61-1.92-14.16l-.24-5.28c-.61-2.79,0-6-.72-9.12-1.4-6.45-1.2-15.87-1.2-23.28,0-5.49,0-10.47,0-15.6,0-2.7-.26-6.11.24-8.4l.48-28.8c.42-2-.25-4.95.24-7.2.58-2.67.47-6.78.48-9.6v-6c.45-2.08.24-5.2.24-7.68l.24-14.64c.62-11.07.47-22.89.48-34.56-.85-.57-1.15-1.21-2.4-1.44-.83.93-3.05,1.89-4.32,1-2.68-1-2-4.29-5.76-4.32a3.39,3.39,0,0,1-2.4,0c-4-1.3-1.62-3.54-3.6-6.24-2.26-1.41-9.89-.7-13.2-1.44-2.94-.66-6.37-.24-9.6-1-3-.67-6.52-.22-9.84-1-4.7-1-10-1.24-14.4-2.16a3.61,3.61,0,0,1-.48-1c-.47-.73.82-7.48,1.2-8.88,2.29-8.4,2.71-17.56,5-26.16,2-7.26,2.37-15,4.32-22.56,5-19.5,6.77-40.48,11.76-60,1.73-6.76,2.1-13.67,3.84-20.16s2.21-13.54,3.84-19.92c.56-2.21.72-8.11,1.68-9.6l.72-.24c.4-1-.6-1-.48-1.92.26-1.92,1-6.57,2.64-7.2,1.59-1.23,7.05-.51,9.6-.48.17-3.21,1.36-6.7,2.16-9.6,1.51-5.45,1.8-10.84,3.12-16.32-2.85-.82-5.74-3.29-8.16-4.8-1.36-.84-3.21-.79-3.36-2.88,1.55-1.77,2.12-4.7,3.12-7,2.44-5.51,5.18-10.91,7.68-16.56,5.46-12.37,11.79-24.85,18-36.72,3.79-7.24,6.42-14.83,11-21.12,5-6.87,13.5-9.1,21.84-12.72,5.21-2.26,10.69-4.92,15.84-7.2,2.16-1,4.56-1.38,6.48-2.64,1.14-.75,2.14-2.26,3.36-2.88,1.49-.75,4,.28,5.76-.24,2.25-.65,4.16-2.67,6-3.84s3.67-1.82,5.28-3.12c.8-.65.57-2,1-3.12,1-2.68,2-5.25,3.12-7.92,1.35-3.17,3.14-6.65,4.56-9.6.23-.48.73-2.37.48-2.4l-.24-.24c.52-1.06,1.7-1.93,1.68-3.12,0-1.9,2-4.1,1.44-6.24-.31-1.25-1.44-2.48-1.92-3.6a43.4,43.4,0,0,1-2.88-13.2,4.37,4.37,0,0,1-2.16-.24c-2-.71-2.3-2.92-3.12-4.8a83.71,83.71,0,0,1-4.8-13.2c-.84-3.35-.09-7.82,2.16-8.88.43-.4.6-.42,1.44-.48l.24-4.08c-.16-.74-.62-3-.24-4.08.13-.38.83-.82,1-1.2.47-1.42-.57-3.75-.48-5,.34-4.58,1.76-7.23,2.88-10.56.24-.7-.06-1.45.24-1.92,0,.56,0,.68.24,1v-.24c.71-.76.14-1.6.72-2.64.73.06,2.49-3.6,3.12-4.56h-.48c-.32.39-.15.27-.72.48v-.48c1.95-1.17,3.43-3.29,5.28-4.56.93-.64,2-.79,2.88-1.44,1.1-.8,1.85-2.27,2.88-3.12h.72c.66-.44,1.11-1.37,1.68-1.92a3.46,3.46,0,0,0,1.92-.48c0-.29-.45-.48,0-.72l2.64-.48c.61-.33.83-.92,1.68-1.2.15.42,0,.23.24.48l-.24-.72a2.36,2.36,0,0,0,1.2-.48v1c.5-.09.46-.06.72-.24-.39-.32-.27-.15-.48-.72l.24-.24c1,.06.61,0,1.68-.24.34.48.32.5,1,.72a2.88,2.88,0,0,1,.72-2.4c.6.45,1.17.25,1.92.72.16.21.32.75.48,1v-.48c.3-.32.44-.86.72-1.2v.24c2,1.56,6.24,1.22,9.84,2.16l2.88.24c.75.31,1.91,1.35,2.64,1.68,1.24.57,2.31.49,3.36,1.2l1,1.2c.91.52,1.94.25,2.88.72,1.3.66,3,1.56,4.32,2.4,1.65,1,3,2.77,4.56,3.84-.27.37-.26.2-.48.72.87.63,1.13,1.45,2.16,1.2.19,2,3.39,8.28,4.08,9.12v-.24l.48.24c.7,1.68,1,3.86,1.92,5.52l1.2,1.2c.24.44-.35.15-.48.24l.24,2.64c.28.83,1,2,1.44,2.88l.48-.48c0,2.32.83,3.3,1,5.52h-.24a5.29,5.29,0,0,0-.72-2.4,38.14,38.14,0,0,1-.24,4.8l.24-.24c.19-.46.24.48.24.48a2.78,2.78,0,0,0-.48,3.6c-.63,1.49-.67,2.25.24,4.08-.91.42-.52.14-.48,1.2h-1.2v.24l1,1h-.48c-.25.33-.15-.07-.72-.24-.15.42,0,.23-.24.48.15.42,0,.23.24.48s.54.31.72.48c-1,1.41,1,6.39.24,9.36-1.26,4.77-4.13,9-6.24,13-.92,1.74-.91,4.07-3.36,4.32-.26.18-.23.14-.72.24A27.14,27.14,0,0,1,286.56,353c-.94,1.34-2.69,2.26-3.36,3.84-.88,2.08-.16,4.38-.72,7a32.55,32.55,0,0,0-.24,5.76c0,7.68,1.47,11.82,4.32,16.32,3.74-.77,4.89,2,7,3.6,4.57,3.45,9,7,14.64,9.36,4.6,2,9.79,3.07,14.64,4.56,3.52,1.08,7.1,1.31,9.84,3.12,6,3.95,9.12,10,13,16.08,3.62,5.75,7.2,11.85,10.8,17.76,3.46,5.68,5.67,11.85,9.12,17.52,3.64,6,7.11,12,10.8,18,1.23,2,4.13,5.78,4.32,8.4-5.28,2.47-9.93,5.89-14.64,8.88-1.76,1.12-4.54,1.45-4.56,4.32,1.18,1.88.7,5,1.44,7.2.61,1.83,2.15,3.08,2.88,4.8a55.82,55.82,0,0,1,1.92,6.72c.84,3-.5,6.17.24,9.36,1.14,4.92,2,10.23,3.12,15.36l.24,6.24a11.08,11.08,0,0,1,0,4.56c-2.1,8.42-6.47,14.93-13,19-8.63,5.35-19.81,8.16-29.52,12.24-2.09.88-8.46,2-8.64,4.32-.7,1-.51,3.31-.24,4.56a8.87,8.87,0,0,0,2.64.24c1.74,1,6.37.42,8.64,1,6.78,1.61,13.64,2.12,20.16,4.08,9.49,2.85,18.8,5.27,27.6,8.88,3,1.24,6.2,2.48,9.36,3.84a14.22,14.22,0,0,0,2.16,1.2c1.4.22,3.31-1.48,4.32-1.92,4.93-2.16,9.61-4.62,14.4-6.72,8.9-3.9,18.12-7.33,27.12-11,2.06-.85,3.94-1.07,6-1.92,6.05-2.49,12.66-5.6,19.2-7.2.19-3,2.07-3.12,4.56-3.84a4.37,4.37,0,0,1,2.16-.48c.43.1.94.88,1.2,1,1,.32,3.52-1,4.56-1.2h4.08c2.2-.28,5.73-.18,7.92-.72,1.83-.45,4.14,0,5.52-1,.42-.63.27-2.33.24-3.36.66-1.07.65-6.31,1-7.68a2.54,2.54,0,0,1,1.2-.48c0-1.74-.11-5.74.72-7,.91-2.92,5.36-2.4,9.12-2.4l13.92.72.48.72c1.2.62,2.59.44,3.84,1,1,.43,1.82,1.3,2.88,1.68v-.48c.57-.93.7-5.31,1-6.48a6,6,0,0,0,1.2-1l23.76-.48c9.56,0,19.46.26,27.36-1.44l19.68.48,9.84.24c3.17.7,5.89,1.12,8.64.48,3-.69,6.31,1,7,2.64.83,1.3.27,5.35.24,7.2a3,3,0,0,0-1,.24v.48c2.56,1.43,1.78,5.54,1.68,9.36-.74,1.18-.24,4.56-.24,6.24l.24,16.08c8.75,4.17,18.87,15.42,23,24.24h.24V595.92c.79-1.28.24-7.76.24-9.84V559c.48-2.22.24-5.53.24-8.16V535l.24-32.88c0-5.6-.86-12.65.24-17.76v-5.76c0-6.34-.88-14.05.24-19.92h2.88c1.22.77,8,.27,10.08.24l1.2-249.6L652.56,209c-1.59,0-3.47.3-4.08-.72-.41-.72.24-2,.48-2.88,9.44-5.84,19.56-9.78,32.16-12.72l13.68.24h6.48a21.05,21.05,0,0,1,7-1c1.94.11,9.86.88,11,.24-2-.24-4.38-1.27-5-2.88l-.48-2.16c-.68-1-2.3-.94-2.88-2.16,1.79-1.44,2.31-6,3.84-7.92,1.38-1.78,4.35-2,6-3.36.42-.36.61-.95,1.2-1.2,3.65-1.57,6.16-.4,9.12.48,1.3.39,2.47-.72,3.36-1,1.82-.48,3.07.79,4.56.48s2.72-1.3,3.84-1.68h1.92c2-.57,4.61-1.34,6.72-1.92l7.2-.72c2.9-.73,6.22-1.39,9.36-2.16l4.8-.24c4.55-1.17,9.55-5.07,14.88-3.84,2.2-.79,4.1-2.67,6.72-3.36s6.94.7,10.08,0l7.92-1c1-.29,2-1.16,2.88-1.44,1.41-.47,3.31.3,4.08.48,1,.23,2.92-.5,3.84-.72l6.48-.24c2.7-.7,3.36-3.42,6.72-3.6,2.06,2,7.85.61,10.8,0,.53-.11,3,.5,4.32.48l.24-.24c-.08-1.39-.27-2.69.72-3.12,4.23-3.1,17.49-2.4,17.52-9.12-.55-.85-.2-1.86-.48-3.12-1.41-6.28,3-11.11,6.48-13.44,6.23-4.15,14.27-6.1,21.6-9.12,6-2.47,12.27-4.65,18.48-7.2,3.79-1.56,7.53-3.46,12-4.32,1.9-.37,3.34.83,5,1,6.82-7.11,19.83-6,28.08-1a161.54,161.54,0,0,1,13.44,9.6l4.56,4.8c1.38.94,2.92,1.28,4.32,2.16a49.2,49.2,0,0,1,14.88,14.4c2.16,3.24,7.18,11.17,5,16.8-.74,2-3,2.47-3.84,4.08.89,1.13,4,7.21,4.08,8.88-4.3,4.44-8.11,9.31-12.48,13.68-1.54,1.54-5.53,4.76-6.24,6.72h.72c.47-.25,7,1.06,8.4,1.44,3.16.87,6.82.79,10.32,1.68.83.21,2.61.91,3.6.72,2.48-.47,4.09-1.69,7.44-1.68,1.06,1.57,3,2.7,4.56,3.84,3.05,2.29,5.77,5.1,8.88,7.44,2.5,1.89,4.82,4.92,6.72,7.44s4.42,4.51,6.24,7c3.58,4.83,7,9.59,10.32,14.64,2.66,4,7.09,9.41,8.4,14.4.47,1.79-.67,3-1,4.08-.42,1.54.21,3.24-.24,4.56-1.39,4.12-7.95,7.39-11.52,9.6-1.79,1.11-5,2.25-5.52,4.56,1,1,4,5.15,4.32,6.48l-.72,15.12c-2.75,11.78-7.17,17.81-15.36,24l-2.16,2.4a47.53,47.53,0,0,1-4.8,4.08l-3.12,3.36c-9.88,7.47-17.69,17.47-27.6,25-4.49,3.4-7.89,8.46-12.72,11.52-4.58,2.91-10,3.6-15.84,5.52-6.68,2.21-12.47,5.49-19.92,7.2C939.41,369.54,934.92,367.54,930.48,367.44Z"/>
      <path fill="black" d="M778.8,181.2c-.71.6-1.38.33-1.68,1.44.6.62,3.73,4.38,4.8,3.36,1.14-.85,2.94-2.57,3.36-4.08h-3.12A6.22,6.22,0,0,0,778.8,181.2Z"/>
      <path fill="black" d="M764.4,185.76v.72a30.23,30.23,0,0,1,6.48,6.48c.84,1.27.82,3.54,2.64,3.84,1.11-.74,3.24-.42,4.32-1.2,1.13-1.28,2.87-5.87,3.36-7.68-1.61-.74-3.57-1.75-4.56-3.12-.5-.7-.63-1.55-1.2-2.16C773.59,184,767.14,185.39,764.4,185.76Z"/>
      <path fill="black" d="M796.08,197c4.69.14,7.65.31,11-1,1.45-.54,3.23-.27,3.6-1.92a35.22,35.22,0,0,1-5.76-6,17,17,0,0,0-1.44,2.4c-1.74,2.4-4.37,3.42-7.44,4.56Z"/>
      <path fill="black" d="M708.48,207.36l-.24,1.68h1c2-1.25,5.68-.15,7.68-1.44Z"/>
      <path fill="black" d="M1004.4,208.08c-.66.66-1.41.84-1.68,1.92,2.45,2,5.47,7.34,7.44,10.08,5,6.9,10.64,13.51,15.6,20.4,1.83,2.54,3.74,5,5.52,7.44.66.92,1.17,2.56,2.16,3.12,1.78-2.2,9-4.68,9.84-6.72.26-1.61-3.37-4.71-4.56-6a114.49,114.49,0,0,1-11-13.92c-1.33-2-2.37-5.43-5.52-5.52a12.27,12.27,0,0,1-6,1.68l-1.68-1.92.24-1.92c-.2-.52-1.12-1.21-1.44-1.68C1011.34,212.2,1009.05,208.11,1004.4,208.08Z"/>
      <path fill="black" d="M261.6,256.56l1,.24V257C261.81,256.91,262,257,261.6,256.56Z"/>
      <path fill="black" d="M256.8,257l.48.48Z"/>
      <path fill="black" d="M283.92,265.44a18.76,18.76,0,0,0,5,3.6A10.8,10.8,0,0,0,283.92,265.44Z"/>
      <path fill="black" d="M289.2,268.56a3.61,3.61,0,0,1,.48,1h.48v-.24Z"/>
      <path fill="black" d="M231.84,273.6c.26.56-.46,1.3-.72,2.16h-.24C230.93,274.37,231.31,274.39,231.84,273.6Z"/>
      <path fill="black" d="M230.64,275.76c.19.25.09.07.24.48h-.24Z"/>
      <path fill="black" d="M229.68,276.24c.19.25.09.07.24.48h-.24Z"/>
      <path fill="black" d="M229.2,277.44c.19.25.09.07.24.48h-.24Z"/>
      <path fill="black" d="M229,278.4c.18.26.14.23.24.72H229Z"/>
      <path fill="black" d="M297.12,281.28l.24,1h.24A1.64,1.64,0,0,0,297.12,281.28Z"/>
      <path fill="black" d="M301.92,288.72c.39.32.27.15.48.72h-.24v-.24C302,289,302.07,289.13,301.92,288.72Z"/>
      <path fill="black" d="M302.16,295.2c.09.5.06.46.24.72v-.72Z"/>
      <path fill="black" d="M302.88,299.28c.34.54.13.79,0,1.44h-.24V300C302.82,299.74,302.78,299.77,302.88,299.28Z"/>
      <path fill="black" d="M301.2,307.44c0,.7-.23.33,0,.72v.24h.24v-1Z"/>
      <path fill="black" d="M301.92,311.28h.48v.24C302,311.37,302.17,311.47,301.92,311.28Z"/>
      <path fill="black" d="M233.28,361c.19.25.09.07.24.48h-.24Z"/>
      <path fill="black" d="M183.36,511.2l.24,2.16-.24.24a22,22,0,0,0-6.24.48,25.8,25.8,0,0,1-1.2,5.52c-1.2,4.34-1.71,8.5-2.64,12.72h1a6.53,6.53,0,0,0,2.88.24A10.67,10.67,0,0,1,181,528l2.4-.72c.64-.41,1.16-1.35,1.92-1.68,1.4-.61,3.38-.14,4.08-1.44a20.62,20.62,0,0,0-.24-4.32c-.82-1.93-2.95-3.92-4.08-5.76C184.42,513.07,184.45,511.74,183.36,511.2Z"/>
      <path fill="black" d="M235.68,732c-1.69,9.24-3.26,18.25-5.28,27.12v19c-1.31,5.9-2,11.11-3.36,17v3.12c-.94,4.27-.26,9.43-1.2,13.68l.48,25.92c0,7.34.45,15.92-1,22.32-.56,2.52,0,5.21-.48,7.44-.89,4,.14,8.82-.72,12.72l-1,24.24c-1.45,6.63-.48,15.61-.48,23v7c-.87,4,.17,8.67-.72,12.72s-.52,8.24-1.44,12.48c-.58,2.65-1.13,7.5-.72,10.08.35,2.19-.35,4.6.24,6.48,1,3.35,3.65,6.2,5,9.36,2.66,6.06,4.53,12.37,7.68,18h.48L236.4,991c-.15-1.07-1.5-2.18-1.92-3.12-1.92-4.33-3.36-7.27-3.36-13.68v-3.6c2.58-11.27,3.09-24.53,5.76-35.76.82-3.46.46-7.28,1.2-10.56l.72-10.56v-4.56c.8-3.46,1.32-7,2.16-10.8a19.82,19.82,0,0,0-.24-6.72l.24-21.84L243.12,840c1.08-4.92.32-10.51,1.44-15.6,4.69-21.3,0-50.14-4.56-67.92L239,749l-2.88-17Z"/>
    </symbol>
    <mask id="revolution__mask">
      <use xlink:href="#revolution-path" fill="white" />
    </mask>
  </defs>
  <image xlink:href="ROOT_URL/wp-content/themes/aray_med/assets/img/page-revolution/hero-shadow.png" x="0" y="898" width="1090.32" height="258" />
  <image
    class="lazyload"
    mask="url(#revolution__mask)"
    data-responsive="page-revolution/hero.jpg"
    xlink:href="ROOT_URL/wp-content/themes/aray_med/assets/img/page-revolution/hero.jpg"
    x="0"
    y="0"
    width="1090.32"
    height="1144.32"
  />
</svg>
