<svg id="image" data-name="Layer 1" xmlns="http://www.w3.org/2000/svg" xmlns:xlink="http://www.w3.org/1999/xlink" viewBox="0 0 1258.98 1363.98">
  <defs>
    <style>
      #image .cls-1 {
        fill: inherit;
        fill-rule: evenodd;
      }
    </style>

    <filter id="image-blur">
      <feGaussianBlur in="SourceGraphic" stdDeviation="3" />
    </filter>
    <symbol id="image-path">
      <path class="cls-1" d="M1035,521v3c8.69,6.1,16.58,17.5,23,26l33,33c3.81,3.81,20.8,15.86,22,19,6,8.06.54,25.49,3,37,3,13.94,1.82,31.69,4,46v28c2.18,14.57,1,33.74,1,50,0,30.1,0,59.59,0,89,0,20.82,3.11,47.13-1,66-1.34,6.13,1.05,13.06-1,18-2.67,6.43-9.46,7.14-13,12-5.36,7.34-1.42,17.26-10,23-8.12,5.43-20,3.13-32,3-3.32,4.91-8,6.69-13,10-21.59,14.34-40.66,17.06-72,17,1.09,7.68,5.09,15.59,7,23,2.9,11.27,1.15,19.95,4,31l8,22,1,16c3.41,15.33,2.26,31.39,6,48,2.36,10.48,2.86,22.41,6,33,1.1,3.71,5.07,10.14,4,15-1,4.52-4.76,9.71-6,15v48c-1.16,4.32-3.58,20.42-6,24l-8,6c-2.79,4.07-3.09,9.16-6,13l-7,5c-6.87,9.25-9.57,18.22-21,23-10.13,4.24-18.14,1.37-27-1-9.55-2.56-17.47.17-25-3-11.25-4.73-14.31-13.74-21-23l-15-15-3-14-15-15v-11c-1.72-5.33-6.43-10.68-8-17-2.37-9.55-.3-17.64-3-26l-12-29c-2.58-4.24-8.41-9.32-10-14-2.88-8.51,2.69-18.17,4-24,3.52-15.66-10-21.48-15-29-3.49-5.22-3.92-13.66-4-22-79,.23-173.3,1-254,1-52.84,0-108.9,6.28-151-11-28.17-11.56-52.79-32.22-70-55l-22-22c-2.72-4.26-.25-13.46-3-18-2.48-1.64-8.9-1.12-13-1-5,3.12-15.32-.41-22,1-23.49,5-51,1.35-74,6-9.93,2-19.56-2.85-23-8-3.45-4.6-1.46-14.3-5-19-4.13-5.48-11-3.29-14-14l-3-69V849c-3.36-15.61-2-38.76-2-56V774c-2.57-12,1.84-28.8-1-42-2.38-11.07-1-27.2-1-40,0-28.52.34-59.08,1-86,22.27-16.47,41.41-37.88,58-60,5.2-6.93,15.75-12.58,17-23l-108-1c-5.55-1.4-10.54-4.67-15-7-5-2.59-12.17-4.44-15-9l-2-11c-4.13-2.06-9.06-6.54-13-8s-13.67,1.28-17,2c-7.36,1.58-19.12.11-25-1-4.65-9.84-5.26-23.43-8-36V439c-3.32-15.84-4.59-62.54-1-79,1.63-7.46-.36-17.78,1-24V319c2.69-12.19.62-31.68,7-41,3-4.42,13.63-3.1,21-3,2.54,2.41,7.16,4,11,5-.36-15.87,4.72-25.55,16-30,2.14-33.77.44-72.68,9-101,3.54-11.72,5.25-23.73,14-30,7.1-5.09,17.9-3.56,28-6,21.09-5.09,46.37-8.11,66-13,12-23.26,25-44.61,47-58,18-11,45-10.2,68-16,32.82-8.28,71.21-7.42,106-15,15.92-3.47,33.09-.76,48-4l58-3c13.29-2.84,29.25,1.14,44-2,9.87-2.1,24.43-1,36-1h72c28.88,0,64.41-1.55,90,4h20c14.17,3.11,31.88,1.9,46,5l22,1c22,4.86,47,4.07,68,9,32.66,7.66,70.76,6.75,99,19,16.7,7.24,28.75,21.25,38,36,5.37,8.57,8.63,21.58,17,27,5.47,3.54,12.6,2.22,20,4,21.8,5.25,65,4.79,75,21,14,22.64,17.05,88.62,17,126,4,1.35,6.81,1.86,9,5,3,4,3.88,12.45,5,18h2c5.17-3.83,17.63-3.55,25-2,9.54,15.2,6.51,33.17,11,54,2.8,13,2,29.49,2,45,0,40.29-2.76,77.56-10,109a25,25,0,0,0-5,4c-15.34-.51-47.88-5.61-48,10-1,1.55-1,4.09-1,7C1142.9,525.53,1089.26,520.8,1035,521ZM225,801c-2.28-10.58-3.77-49.55,0-57,4.76-9.42,19.25-9.7,28-15,.84-3.74,2.4-13.47,0-17-.08-16-3.39-45.8,1-59,7.05.13,22.12,2.14,27-1h16c.66-2.89,1.84-7.33,0-10V624h2l5,167c.08,5.93.49,13.64-1,18-13.87-.15-29.81-1.19-38,4-2.44,6.05-1,20.52-1,31l2,72H227Zm789-149,2,52c0,7.81-3,17.65,1,23,4.67,5.85,11.78,2.62,18,5,3.56,1.36,5.9,5.06,9,7,2.39,10.55-.77,27.13,2,40,3.26,15.13.65,36,1,53,.54,26.25,1.12,52.49,1,79-27,.07-52.94,1.43-78,2,.09-88.47,2.09-175.13,2-262C984.62,650.91,1003.35,648.43,1014,652ZM908,1052c2.83,4.17,2.11,10.95,4,16l15,35c-.12,5.9-3,11.6-1,19,2.92,11,9.83,19.89,12,30l-3,19c1.15,8.06,4.29,16.12,6,23,2.56,10.33-4.93,23.42-8,30-11.41-1.36-13.79-27.63-17-39-2.76-9.78-6-20.89-11-29-1.55-2.5-4.76-5.09-6-8-3.08-7.23-1.78-14.75-4-23a183.74,183.74,0,0,0-9-26c-2.77-6.3-13.15-23-7-31,6.35-8,20.49-9,27-17C907.71,1051.63,907,1051.18,908,1052Z"/>
    </symbol>
    <mask id="image__mask">
      <use xlink:href="#image-path" fill="white" />
    </mask>
  </defs>
  <use xlink:href="#image-path" fill="black" filter="url(#image-blur)" opacity="0.3" />
  <image
    class="lazyload"
    mask="url(#image__mask)"
    data-responsive="page-revolution/image.jpg"
    xlink:href="ROOT_URL/wp-content/themes/aray_med/assets/img/page-revolution/image.jpg"
    x="0"
    y="0"
    width="1258.98"
    height="1363.98"
  />
</svg>
