<svg id="maneuverability" data-name="Layer 1" xmlns="http://www.w3.org/2000/svg" xmlns:xlink="http://www.w3.org/1999/xlink" viewBox="0 0 1200 1515">
  <defs>
    <style>
      #maneuverability .cls-1 {
        fill: inherit;
        fill-rule: evenodd;
      }
    </style>
    <symbol id="symbol">
      <path class="cls-1" d="M730.43,1307.39c-.29-26.14,6.94-40.18,11.59-59.6l2.48-42.22c.17-8.74,5.26-31.82.41-38.49-4.85,28.84-37,32.93-60.84,43L509.83,1283c-18,7.65-32,15.16-51.32,21.94-4.92,1.73-13.55,7.42-19,5l.83-8.28c-9.73,7.42-18.26,16-30.63,21.11-9.29,3.82-23.31,5.06-34.35,2.48-38.68-9-56.11-38-69.95-71.6-24.47,1.68-42.82-10.26-59.19-18.63l-81.12-40.15-17.38-8.28-7,.41c-8.47-1.43-15-3.78-20.69-7.86-10.53-7.51-21.55-21.67-21.94-38.91-8.87-1.11-25-7-27.73-13.24l-.41-10.76L69,1104.59c2-7.39,8.68-12,10.76-18.63-21.38-6.53-16.66-16.9-19.87-38.08-.61-4,1.88-3.47.83-7-2.84-.82-7.33-3-8.69-5.38-1.72-3,.14-7,.83-9.93,2.16-9.23,2.12-14.51,12.83-14.9-1.41-11.64,28.71-19.4,38.91-22.35-2.85-5.91-4.12-13.52-2.9-22.76l.83-5.79c-.37-1.84-2.39-3.72-1.66-6.62l2.07-4.55c-.18-2.33-3.23-4.7-2.07-9.11.71-2.69,4-9.07,5.79-11.59-1.33-2.07-3.7-4.67-2.9-8.69l5-12.83-1.24-9.52,4.14-8.28-1.24-9.93,3.73-5c-4.36-10.74-2.41-23.23-1.24-35.18l-1.66-9.52,2.48-7.86-2.9-4.14,1.24-9.93-2.9-9.11,1.24-9.52-2.9-4.55c-2.88-8.45-3.58-16.88-5.38-25.25-3-14.06,0-30.86-2.48-45.94-10-60.73-9.48-148.91,10.35-197.84,5.21-12.86,14.23-21,21.94-31-.22-6.42-3.47-33.12-3.31-33.53a240.32,240.32,0,0,1,73.26-14.49c.4-9.69,8.74-20.93,16.14-23.59l10.35-1.24c10.35-3.68,20.47-7.56,33.53-9.93l19-1.24,36-14.07,23.18-4.55,21.94.41,17-2.9c4.25,6.66,10.67,1.23,17,2.07,5.07.67,26.41,6.89,33.53,4.55,6.79-2.23,15.21-9.14,24.42-7.45,4.59.84,9.35,4,15.31,2.9,4-.74,10.27-5.71,15.31-3.73l6.62,5.38,28.14-1.66,19.87-.83,36.42-5c39.72-6.64,85.84-1.11,119.2,6.21,2.05-12.2,9.62-21.95,13.24-32.7l3.31-20.69c3.17-12.27,12.87-28.41,22.35-34.77l19.87-7.45c8.24-5.52,14.65-13.75,23.59-19,11-6.51,25.64-10.33,33.11-20.28l-.83-4.14h-.41c-9.32,3-39.32,6.5-45.94-.83-4.25-4.71-.65-12.09-3.73-18.63-2.38-5-9.11-4.89-11.59-10.76l2.07-5.38c-9-3.34-6.87-12.66-4.55-21.11-5.55-1.08-13-3.86-13.24-10.35,5-11.7,13.51-21.76,12.42-37.25l-2.9-.41c-.62-5.55-5.79-7.31-4.55-14.49C740.31,104,755.24,63,766.85,55l17.8-7.45c22.75-11.5,51.29-19.59,82-10.35,5.5,1.66,10.78,6.66,15.31,9.52l8.28,3.73L896,58.68l7.45,5.79c6.42,9,12,39.09,7.45,54.22-2.16,7.12-7.27,14.43-9.52,21.11l-1.24,16.14c-2.8,16.6-5.37,36,1.24,51.32,1.62,3.75,6.06,11.49,9.93,12.83l10.35.41L927,228l24.83,15.73c24.1,16,43.86,34.9,61.67,57.12,7.11,8.87,16.24,16.21,21.11,27.32,5.79,13.23,11,47.28,5.38,65.81l-8.28,19.45-3.31,27.73-4.14,12.42,8.28,32.28c3.69,14.48,3.82,31.23,8.28,46.36l13.24,34.77c4.07,14.58-1.87,33.53,2.07,49.25L1072.3,653c5,16.35,3.61,34.8,7.86,53l5,14.9c2.9,10.63,2.12,19.56,4.55,31,.93,4.4,3.3,7.79,3.73,13.24-4.62,3.47-8.62,7.55-13.66,10.76l-7.45,33.11c-2,5-5.56,9.09-6.62,14.9-2.19,12,1.23,24.59-.83,36-9,49.69-11.5,105.71-19.87,154.8l.41,17.8-1.66,13.24-.83,25.25c-5.76,36.48-4.45,73.6-10.35,109.27l-1.66,33.11c-5.43,32-5.84,68.13-14.49,97.26-1.56,5.26-11.84,35.92-11.18,38.08L1016,1364.1c2.6,9.91-2.06,27.7-6.21,33.53l-8.69,9.11c-4.65,7.56-6.13,15.09-12,21.11.66,11.61,8.42,42.75,2.9,50.08-5.26,7-20,6.29-31,6.21-46-.34-45-12.08-50.49-50.91-15.58-2-29.43-9.53-37.25-19.45l-5-7c-9.2,7.86-26.95,12.1-41,14.49-10.61,1.8-40.05-8.47-45.94-12.83-3.58-2.65-6.2-7.9-7.45-12.83l-28.14,1.66c-18-2.9-33.42-15.28-39.73-29.8C694.13,1340.11,698.37,1309.24,730.43,1307.39Z"/>
      <path fill="black" d="M133.6,532.59c-8.29,15.42-9.63,28.66-12.83,48.84-.87,5.49,1.64,9.5.41,14.9l-3.31,7.86c-1.63,6.68,3.34,9.19,2.07,15.31l-2.9,6.62c-1.8,7.74,1.8,16.8,2.9,23.59l-1.24,24,2.9,9.11c1,5.69-3.65,6.48-2.48,12.83s2.91,13.59,4.14,20.69c1.09,6.34-.63,12.34.41,17.8,1.38,7.25-2.55,13.93-.41,22.35l5.38,9.52c1.81,5.83-1.18,11.83.41,18.21,2.46,9.87,7.43,21.31,10.35,30.63,2.15,6.88,3.47,18.57,2.07,27.32-.67,4.22-2.94,11.76-1.24,16.14,1.87-10.09,8.23-18.25,10.35-27.32L139,624.89Z"/>
      <path fill="black" d="M318.19,545.83l-5.79,9.93.41.83,8.69-1.66v-.41Z"/>
      <path fill="black" d="M312.4,584.33l.41,8.28,14.49-1.66-.41-5.38Z"/>
      <path fill="black" d="M900.54,1009c-7.58,15.36-19.13,28-29,41.39l-9.93,12.42c-1.56,4.23,1.16,22.48,0,29.39-1.93,11.5-5.2,21.85-7,31.46l-1.24,23.18,2.48,43.87c4.89,29.62,3.72,58.07,8.69,86.5,1.15,6.59,4.07,11.21,5.38,17,4.63,20.33-5.29,37.63-15.31,46.36.11,11.68,6.52,20.16,4.14,33.11l5.79,5.38c7.29-22.68,4.33-28,28.56-34.77,1.71-9.14,8.34-14.89,11.18-21.94l-.83-15.73-.41-53.39c5-32.2,6.59-65.51,5.79-101-.43-19.16.6-38.85-2.07-55.88-3.69-23.57,1-49.41-4.14-70.36C901.1,1019.83,903.79,1013,900.54,1009Z"/>
    </symbol>
    <mask id="maneuverability__mask">
      <use xlink:href="#symbol" fill="white" />
    </mask>
  </defs>
  <image xlink:href="ROOT_URL/wp-content/themes/aray_med/assets/img/page-revolution/maneuverability--shadow.png" x="0" y="1056" width="1200" height="459" />
  <image
    class="lazyload"
    mask="url(#maneuverability__mask)"
    data-responsive="page-revolution/maneuverability.jpg"
    xlink:href="ROOT_URL/wp-content/themes/aray_med/assets/img/page-revolution/maneuverability.jpg"
    x="0"
    y="0"
    width="1200"
    height="1515"
  />
</svg>
