<svg id="Layer_1" data-name="Layer 1" xmlns="http://www.w3.org/2000/svg" xmlns:xlink="http://www.w3.org/1999/xlink" viewBox="0 0 622 709">
  <defs>
    <style>
      .cls-1, .cls-2, .cls-6 {
        fill: none;
      }

      .cls-2 {
        clip-rule: evenodd;
      }

      .cls-3 {
        clip-path: url(#clip-path);
      }

      .cls-4 {
        clip-path: url(#clip-path-2);
      }

      .cls-5 {
        clip-path: url(#clip-path-3);
      }

      .cls-6 {
        stroke-miterlimit: 10;
        stroke-width: 12.92px;
        stroke: url(#New_Gradient_Swatch_1);
      }
    </style>
    <clipPath id="clip-path">
      <path class="cls-1" d="M601.93,397.61c0,161-130.51,291.5-291.5,291.5S18.93,558.61,18.93,397.61,155.78,0,316.78,0,601.93,236.62,601.93,397.61Z"/>
    </clipPath>
    <clipPath id="clip-path-2">
      <path class="cls-2" d="M91.81,203.14c1.18-2.72,3.43-6,8.27-10.4s11.58-9.33,13.7-11.11,8.15-6.26,9.45-7.32,13.11-7.92,16.3-10.16,11.58-7.32,15.36-8.51,58.36-38,58.83-39,7.8-14.89,7.32-15.59a2.81,2.81,0,0,1-.47-1.42l.24-1.42.47-1.89V94.45l.71-.71.47-1.65.47-1.18.24-1.65.71-1.42.24-1.18.47-1.42.47-1.18a13.32,13.32,0,0,0,.24-1.65c0-.47.47-3.54.47-3.54s1.06-.95.71-1.89-.24-1.65-.47-2.13a8.14,8.14,0,0,1-.24-2.13l.24-1.89a4.15,4.15,0,0,0,.24-2.36,5.56,5.56,0,0,1-.47-1.89c-.12-.83.47-1.18.47-1.89a2.87,2.87,0,0,1,.24-1.18,7.2,7.2,0,0,0,0-1.65,4,4,0,0,1,0-2.36c.35-.59,1.18-1.89,1.18-1.89a1.57,1.57,0,0,0,.47-1.18c-.12-.59.71-1.18.71-1.18l.47-.95a4.83,4.83,0,0,1-.24-1.18c0-.47-.47-.71-.24-1.42s.59-.71.71-1.18.71-.47.71-.47a3.33,3.33,0,0,0,.24-2.13c-.12-.71.35-1.06.47-1.65s1.42-.59,1.42-1.42,1.18-.83,1.18-1.42-.24-.47-.24-1.42a5.17,5.17,0,0,1,.71-2.13l.95-.95c.71-.35,1.18,0,1.18-.71s-.35-.24.24-1.42a8.19,8.19,0,0,1,1.65-2.13l1.42-.95a4.48,4.48,0,0,0,.95-1.42c.24-.71,2.84-2.36,2.84-2.36l2.13-1.18s2.13-.12,2.36-.95,1.65-1.42,1.65-1.42l3.07-1.65s1.18-.24,1.18-.71,1.18-.71,1.18-.71a18.71,18.71,0,0,0,3.07-1.18,13.69,13.69,0,0,1,3.07-.95l1.42-.47L269,19.32l2.36.47,2.84-.47h4.25l2.84.24,2.36.24a20.27,20.27,0,0,0,2.13.47c.35,0,1.18.24,1.65.24s2.6.24,2.6.24l1.65.95s.94.83,1.42.71a9.14,9.14,0,0,1,2.36.47l1.65.71,2.13.71,1.18.24,1.42.24,1.18.71,1.18.71,1.18.71,1.18.95,1.42.47L309,29s.71,1.06,1.18.95,1.65.71,1.65.71l1.18.71.95.95,2.6.71c1.18.59,1.89,2.6,1.89,2.6l.95.95,1.42.71,1.65.71a17.26,17.26,0,0,1,1.89,1.42l.71,1.18.94.71,1.65.95,1.65.71,1.18.71,1.18.95,1.42.71,1.18.71,1.18.71,1.42,1.65,1.89,1.89.47.47.95,1.42.95,1.18.71.95L343,55.47l.95.71.71.95.47,1.18.71,1.42.95,1.65,1.89.71.95.71s.12-.24.47,1.18a14.27,14.27,0,0,0,.95,2.6l.95,1.65.71,1.65,1.65,2.36V73.9l.95,2.36v1.42l-.47,2.13-.47,1.42-.95.95-1.18.47s2.19,9.92,1.65,15.36.88,11.1-3.84,17c0,0,63,1.4,92,21,302.45,204.62,134.83,491.45-62,543C170,734,61.46,562.31,35,490-25,326,90.63,205.86,91.81,203.14Z"/>
    </clipPath>
    <clipPath id="clip-path-3">
      <path class="cls-1" d="M403.37,86.17,352.5,101.28a71.13,71.13,0,0,1-2,13.29l-1.6,54.75L182.24,263.86V143.12l16-5.5c6.9-9.31,13.17-18.08,16.48-24.37l-32.45,12.19V114.05C74.59,163-.25,271.51-.25,397.48-.25,569.36,139.09,708.7,311,708.7S622.19,569.36,622.19,397.48C622.19,262.36,523.71,129.18,403.37,86.17Z"/>
    </clipPath>
    <linearGradient id="New_Gradient_Swatch_1" data-name="New Gradient Swatch 1" x1="12.47" y1="396.29" x2="608.39" y2="396.29" gradientUnits="userSpaceOnUse">
      <stop offset="0.17" stop-color="#393277"/>
      <stop offset="1" stop-color="#2a275b"/>
    </linearGradient>
  </defs>
  <title>operator</title>
  <g>
    <g class="cls-3">
      <g class="cls-4">
        <image
          class="lazyload"
          width="1000"
          height="1361"
          transform="translate(11.46 -45) scale(0.66)"
          data-responsive="page-revolution/operator.jpg"
          xlink:href="ROOT_URL/wp-content/themes/aray_med/assets/img/page-revolution/operator.jpg"
        />
      </g>
    </g>
    <g class="cls-5">
      <circle class="cls-6" cx="310.43" cy="396.29" r="291.5"/>
    </g>
  </g>
</svg>
