<svg id="productivity" data-name="Layer 1" xmlns="http://www.w3.org/2000/svg" xmlns:xlink="http://www.w3.org/1999/xlink" viewBox="0 0 1086.48 1081.68">
  <defs>
    <style>
      #productivity .cls-1 {
        fill: inherit;
        fill-rule: evenodd;
      }
    </style>
    <symbol id="productivity-path">
      <path class="cls-1" d="M481.44,357.36a19.23,19.23,0,0,1-5.28-1.44c-.7-1.64-.21-2.93-.72-5a21.51,21.51,0,0,0-2.16-6c-1.65-2.65-4.43-4.45-6.24-7-3.38-4.7-5.42-10.52-7.2-16.8-2.18-7.71-.85-20.93,1.68-27.12a62.92,62.92,0,0,1,2.64-6,12.72,12.72,0,0,0,1.44-2.4l.48-8.16c2-8.35,3.3-16.5,9.12-20.88,14.94-11.23,47.38-12.82,70.32-7.44h25.2c2.47-.14,5.79-.66,8.4,0s4.64,2.23,7,2.88l12.24-.24,29.76-.48c1.13-.4,4.15-3.15,5-4.08,3.07.05,5.6,1.76,8.16,2.4,2.08.52,2.48-1.6,5-1,3.07.77,5.59,2.76,8.4,3.36a9.37,9.37,0,0,0,3.12-.48c2.45-.62,6.4-1.31,9.12-.48,3.52,1.07,5.79,3.6,9.6,4.56a22.81,22.81,0,0,0,8.4,0h5.52a8.47,8.47,0,0,1,3.12-.24c3.43.78,8.65,2.75,12.48,1.92,4.58-1,9,3.13,15.12,1.68,1.62-.38,3.88-.52,5.52-1.2,1-.39,2.11-1.31,3.12-1.68l3.6-.48c.84-.33,1.65-1.31,2.64-1.68,1.6-.61,3.55-.29,5.28-1a13.12,13.12,0,0,0,3.84-3.12A44.28,44.28,0,0,1,756,251l3.36.24c2.81,1,6.7,7.81,7.44,11,.32,1.41-.47,2.79-.72,3.84h.48l4.56,1.2.24-2.4h1.44c.62.45,1.38.38,2.16.72,4.45,1.91,2.91.57,6.72-.72l4.8-.48,1-1c1.46-.45,2.84.94,3.84,1.2l3.6-.24c.54-2,3.34-4,5.28-4.56,1.69-.46,3,1,5,.48a21.85,21.85,0,0,1,5-1l5.76.48a44.7,44.7,0,0,0,4.32-1.68c1.43-.45,3,.45,3.84.72,1.38.43,2.47.27,3.84.72,1.64.53,3.45,1.39,5,1.92,4.66,1.55,8.72,2.12,13.2,4.08,6.56,2.87,11.67,7.47,17,11.52,2.62,2,6.74,7.47,8.64,10.32.53.79,2,4.25,2.64,4.56h5.76c1.41.85,4.81.06,6.72.24l9.6.48h5.76l21.12,1c5.19,1.13,11,.25,16.32,1.44,3.32.74,7,.4,10.56,1.2a48.68,48.68,0,0,0,9.84,1.2c.5-6.86,10.08-7.43,13.2-2.4.91,1.47.76,3,1.44,4.8.44,1.19,2,2.09,2.4,3.36s-.72,3.16-.72,5l-.24,16.32c2.58.92,5.16,3.7,6.72,5.76,1.18,1.57,2.93,2.92,4.08,4.56,3.74,5.32,5.93,11.34,8.4,18,2.92,7.89,4.62,16.82,6.72,25.68,1,4.06.9,11.1,1,15.6v6.48c.74,3.47.76,15.27,0,18.72v4.32c-.42,2.75-.06,6-.72,8.88-.56,2.45-.33,5.29-1,7.92-1.43,6-1.88,12.47-3.36,18.24l-1,7.44L994.08,481c-2.31,7.11-4.56,14.08-7.44,20.64-1.27,2.89-4.78,7-5,10.32,1.55,2.13,2,5.17,3.12,7.68,1.56,3.57,3.75,7.09,5.28,10.56.77,1.75.88,3.44,1.68,5.28s2.61,3.14,3.6,4.8c1.58,2.64,1.87,6,3.12,8.88,1.37,3.13,3.66,6,5,9.12a70.32,70.32,0,0,1,2.88,8.88l.48,3.12c1.55,3.73,4.39,7.38,6.48,10.8,3,4.84,5.45,12.12,7.68,17.52,2.46,6,3.32,12.79,5,19.44.54,2.11.2,3.84.72,6,1.68,7,2,14.47,3.6,21.6l.24,7.68c.46,2.14.8,11.48.24,13.92-.63,2.77-1.07,5.57-1.68,8.16V678c-1.05,4.11-2.54,8.45-3.84,12.48-1.12,3.45-1.05,6.9-2.4,10.08-.93,2.2-2.73,3.67-3.84,5.52-1.46,2.42-2.7,6.54-4.56,8.4-1.69,1.69-4.68,2.55-6.72,3.84-4.65,2.94-9,6.69-13.44,9.84-3.37,2.38-6.63,5.06-10.08,7.2-1.49.92-3.48.51-3.6,2.88,1,1.62-1.21,4.35-.72,4.8,1.33,2.36,1.77,6.7,1.92,10.08a18.51,18.51,0,0,1,5,1.44c3.66,1.22,7.38,2,10.8,3.12,8.32,2.79,16.87,4.52,25,7.2,3.06,1,11.57,2.19,12.48,4.8,1.26,1.34,1,4.71.48,6.48,2.33.51,9.23,2.78,10.32,4.32s.89,3.72,1.44,5.76c.91,3.34,2.35,8,1.44,11.52a16.93,16.93,0,0,1-8.64,2.16c.17,2.2,1.84,2.77,2.16,4.8.14.9-.58,1.24-.72,1.68l.24,1.44a25.31,25.31,0,0,1-.48,3.36l.24,12.24c-.26.75-1.39,1.12-1.68,1.68l-.48,7.44c-4.31,2.49-13.48,3.72-19.92,3.84v.24h.24c.75.73,2,1.06,2.64,1.92,3.9,5.51,9.4,12.75,7.92,22.56-.46,3.06.74,7-.24,9.6-.7,1.88-3.26,3.64-4.8,4.8-2,1.49-3.75,3.89-6,5-3.31,1.7-8.71,1.91-13,2.4-.46,17.06-11.07,32-23.52,37.2-5.16,2.17-13.55,4.12-20.4,1.92-5.78-1.86-11.52-4.24-16.08-7.44-2.66-1.87-4.6-6.18-8.64-6.24l-51.6,7.2c-12.3,2.93-25.87,2.85-38.16,5.76l-10.08,1.2c-13.36,3.23-28.09,3.15-41.52,6.24l-11.76,1c-4.18.92-9.24.51-13.44,1.44H768c-1.79.39-5,1-7.2.48-2.75-.63-5.54-1.77-8.64-1.92-2.32,4-5.49,7.24-8.16,10.8-10.3,13.73-24,22.87-42.24,28.8-8.2,2.67-21.56,4.94-31.44,2.16-5.59-1.58-11.27-2.85-16.32-5-9.23-4-16.75-9.7-24.24-15.36a44,44,0,0,1-5.28-5.76c-1.13-1.53-1.2-3.52-3.84-3.6-.84.54-3,.6-4.08.72a3.72,3.72,0,0,1-.24,1.92c-.37,1.11-1.15,1-2.64,1l-4.32-1.44c-4-1.76-8.06-3.68-12.24-5.52-11.58-5.1-23.08-10.68-34.8-15.84-17.43-7.67-34.47-16.5-52.08-24.24-5.8-2.55-11.54-5.53-17.52-8.16-1.3-.57-2.8-2-4.08-2.4l-2.16.24c-1.63-.47-3.64-2-5-2.88-1.69-1-3.59-1.37-5.28-2.4a71.85,71.85,0,0,0-7.2-4.08c-14-6.29-27.33-13.79-35-26.4-3.09-5.05-3.95-11.12-5.76-17.52-2.32-8.19-3.62-16.81-6-25.2-2.13-7.53-3.44-15.91-5.52-23.76-1.26-4.73-1.24-9.8-2.4-14.4l-.48-5c-1.33-5.46-1.5-11.82-2.88-17.28-.83-3.31-.39-6.3-1.2-9.6-1.78-7.3-2.45-15.28-4.32-22.32l-5-32.4c-1.54-4.94-5.37-7.5-6.72-13-.86-3.47-1.38-13.94-.48-17.76.45-1.93-.15-4.6.24-6.24.73-3.11-.18-6.54.48-9.36v-4.08c.86-3.86.06-8.2,1-12.24.95-4.24,1.23-9.15,2.16-13a17.23,17.23,0,0,0,0-3.84,9.64,9.64,0,0,0-2.4-1.92c-2.15-1.62-3.81-3.86-6-5.52l-6.48-6.72c-3.54-3.54-7.52-6.78-10.56-10.8s-7.81-6.89-10.56-11c-5.05,1-8.49-2-11.28-4.08-.64-.47-3.59-2.68-3.84-2.4-4.89,3.42-8.58,17.17-11.28,23.52-7.3,17.19-12.16,35.67-16.8,55.68-.83,3.57.3,9.64,1,12.24L320.4,667h-.48c-3.19-2.92-7.81-4.62-11.52-7-7.54-4.74-15.27-9.65-22.8-14.4-2.92-1.84-5.84-3.45-8.64-5.28-1.3-.85-3.13-.92-3.36-2.88,1.6-1.29,1.59-6.44,1-9.12-.7-3-2.61-6.75-1.68-10.8.84-3.64,2-10.35,1-14.88-.93-4.27-.51-9.42-1.44-13.68v-3.12a52.06,52.06,0,0,1-.72-8.16v-4.8c-.79-3.68.35-8.35-.48-12.24-.5-2.33.32-5.76-.24-8.4s-.24-6.69-.24-9.84c0-6.69-.55-14.58.72-20.4l.48-9.84a20.94,20.94,0,0,1,3.6-6.24c.85-1.13,2.55-1.74,3.12-3.12-.61-.66-.82-1.75-1.44-2.4v.24c-2,1.63-3.33,4.51-4.8,6.72-1.78,2.67-3.83,5.39-5.52,8.16-.81,1.33-.86,3-1.68,4.32l-1.44,1.44v3.84c-.73,3.27-.52,6.77-1.2,9.84v3.84c-.54,2.41-.19,5.75-.72,8.16V551c-.46,2.09,0,4.64-.48,7-1.38,6.17-.78,13.34-2.16,19.44-.92,4.06,0,8.18-1.2,12-1.32,4.31-4.26,5.81-6.48,8.88s-3.33,7.74-4.56,11.52-1.19,8.13-2.16,12.48l-.24,6.72c-.52,2.39-.14,5.11-.72,7.68-1,4.23-1.22,9.06-2.16,13.2-.7,3.08.44,6.37,1,8.64.67,2.92.11,6.15.72,8.88l.72,14.4c.53,2.45-.11,5.4.48,8.16.83,3.87,1.14,13,.24,17l-.24,14.16c-1.41,6.23-2.22,12.49-3.84,18.24-.88,3.11-1,5.89-2.16,8.64-1,2.34-2.8,4.4-4.08,6.48-1.65,2.69-2.67,5.44-4.32,8.16-.77,1.27-2.21,2.82-2.64,4.32-.6,2.11,2,7.85,2.64,9.6,2.9,8.31,5,16.93,7.68,25.2L241,815c.58,2.45.14,4.74,1,6.72,3.6,8.72,6.94,17.86,10.8,26.64,4.85,11,10.31,22.08,15.12,33.12a40.73,40.73,0,0,1,2.88,9.12l-.24,2.16c.4,2,.77,4.37,1.2,6.24.26,1.11-.25,2.58.24,3.36,1.21,3.32,6.55,6.62,9.36,8.64,2.57,1.85,4.85,4.51,7.44,6.24,1.59,1.06,3.45,1.35,5.28,2.16.88.39,1.74,1.31,2.64,1.68l1.92.24c1.11.44,1.71,1.91,2.88,2.4,2.81,1.18,6.29,1.23,9.36,1.92,7.9,1.77,21.39-1.19,27.12,2.64,4.48,3,9.71,12.9,5,19.68-2.1,3.05-10,8.27-13.68,9.84-1.65.7-3.12.76-4.8,1.44-2.74,1.11-6.06,2.89-9.12,3.36l-.48-1.44-1.2.48a3.45,3.45,0,0,1-1,1.68,10.13,10.13,0,0,1-4.8,1.44,4.39,4.39,0,0,1-.24-1.44,2.49,2.49,0,0,0-1.68.48c-.5.51-1,1.16-1.44,1.68l-5.28.48v-1a4.9,4.9,0,0,0-1.92,0c-.37,1.46-1.53,1.31-3.36,1.2-.91.61-3.59.21-4.56,0v-1h-1.68c-.47,1.44-1.92,1.3-3.84,1.2-.89-.56-3.76-.29-4.8-.48.1-.74.17-.57,0-1.2l-1.92-.24-.24,1.2h-2.64c-1.47-.89-6.26-1.21-8.16-1.92-6.5-2.41-8.89-4.73-18.24-4.8-.38.51-1.07.71-1.44,1.2-1.36,1.83-1.83,3.61-3.84,4.8l.24.24c2.19,1.47,9.62,1,12.72,1.92,3.8,1.16,8.51,6.82,9.6,10.56,3,10.41-4.91,14.8-10.56,18.24a22.6,22.6,0,0,1-2.88,1.92l-1.68-.24c-.84.25-1.7,1.52-2.64,1.92a26.87,26.87,0,0,1-3.84,1.44l-1.68-.24-1,1.2a31.34,31.34,0,0,1-6.72,1.68c-.82-.36-.64-.64-1.92-.72l-1.2,1.92c-.41.24-6.57,1.85-7,1.68-.67-.28-.4-.8-1.68-1-1.61,1.73-4.89,2.39-8.16,2.4v-1H212.4c-1.33,2.19-4.63,1.77-8.16,1.68l-.24-.24a3.77,3.77,0,0,0,.24-1.2c-2,.08-1.67,1-2.88,1.44l-6.24-.24c-.19-1.23-.19-1.65-1.68-1.68-.87,1.22-6,2.08-7.68.72a2.6,2.6,0,0,1-.24-1.44h-1.44c-.85,1.34-2.3,1.28-4.56,1.2a10.84,10.84,0,0,0-2.64-.48c-.33-1.15.19-1.64-1.68-1.68-.61.93-1.27,1.22-2.88,1.2-1.35-1-3-1.21-4.32-2.16-2.71-2-4.17-4.86-7.92-6l-2.88-.24a11,11,0,0,0-4.08-.24c-3,.77-4.46,3.64-7.2,4.8-4,1.68-10.21,1.42-15.6,1.44-.35-.7-.26-.77-1.2-1-.83.74-6.78.69-8.16.24-.56-.18-.75-1-1.44-1l-.72.72-7.92-1-.48-1c-.58-.25-1.15.41-1.44.48l-4.8-.48-2.16-.72-.48-1-3.12.24a13.25,13.25,0,0,1-3.6-1.68l-1.44-1.68c-.7-.3-.84.34-1.44,0a10.89,10.89,0,0,1-2.64-10.08c.45-1.48,1.53-3.12,1.92-4.56s-.46-3.44-.72-4.56c-.58-2.54.34-5.55,1-7.44.93-2.85,3.21-3.54,3.36-7.2-.75-.5-.93-.89-1-2.16,1.64-1.94,1.77-7.93,2.64-10.8,2.14-7.05,3.16-14.8,5-22.32l1.2-9.84c2.47-10.37,2.24-21.59,5-31.68,1.08-3.89,1.84-8.41,2.88-12.48l.48-4.56c.38-1.66,1.25-4.8,1-6.72-1-6.64-2.48-14-4.08-20.64l-.72-6.72c-2-8.57-1.68-18.94-1.68-29a107.88,107.88,0,0,1,2.16-23c.6-2.63-.47-7.66-1-9.84l-.24-13V743c.45-3,.24-7.12.24-10.56l.24-21.36c.31-5.58,0-11.5,0-17.28,0-3.43.43-7.8-.24-10.8V653.28c0-5.43-.84-13.15.24-18,.69-3.08-.38-7.05.24-9.84l.48-11.28c.94-4.32.22-9.12,1.2-13.68.29-1.34.83-3.94.48-5.52-1.78-8.08-1.51-17.08-3.36-25.2-.81-3.56-.45-7.25-1.2-10.56-1-4.41-.49-9-1.44-13.2l-.24-4.32c-.82-3.62-.85-8-1.68-11.52-1.22-5.19-1-10.67-2.16-15.6l-1.44-13.44c-.72-3.24.11-10.23.72-13l.72-10.08c1.1-5,1.17-11.33,1.2-16.8-.86-.41-2.25-.31-3.36-.72C93.27,459.13,89,457.49,85,456c-1.88-.7-5-.55-5.28-2.88,1.44-2,1.56-5.15,2.4-7.68,1.32-3.95,2.45-8.07,3.84-12.24,2-6.06,4.15-12.62,6.24-18.72,1.91-5.58,3.11-11.14,5.28-16.32,1.67-4,2.2-8,3.84-12,2.83-6.91,4.78-14.28,7.68-21.36,5.21-12.71,9.63-25.85,14.88-38.4,2.85-6.82,4.66-14,7.44-20.64l9.84-29.52c3.3-8,6.59-16,10.08-24,1.07-2.45,2.77-5,3.84-7.44,3.1-7,4-15.2,7-22.32a165.59,165.59,0,0,1,14.88-29c6-9,14.44-15.64,23.28-21.84,5.76-4,11.16-8.7,17.28-12.48l13.44-7c4.38-2.71,8.53-5.88,12.72-8.88,1.37-1,2.64-2.46,4.08-3.36l6-2.16c1.09-.58,2.18-1.67,3.36-2.16l4.8-.72c1.26-.42,2.32-1.35,3.84-1.68s2.54,1.26,3.84,1c.43-.1,1.36-.79,1.92-1l4.32-.24a33,33,0,0,0,8.4-3.12A97.59,97.59,0,0,0,302.64,115l6-6c1-1.48.35-3.61,1.2-4.8h.48c.65-.85.63-1.94,1.2-2.88.8-1.32,2.52-2.27,3.36-3.6.49-.76.45-1.62,1-2.4,1.26-1.94,3.7-3,5-4.8,2.57-3.5,5.44-6.8,7.92-10.32.38-.54.11-1,.48-1.68.17-.3,2.94-1.67,1.68-2.4,2.9-2.61,6.57-4.22,9.84-6.48.27-.19.74-.93.24-1.2.51-.39,1.19-.32,1.68-.72V67.2l3.84-1.44a35,35,0,0,0,8.4-7.2h.48l-.24.24c-.46.19.48.24.48.24,0-.76-.41-.32.24-.72,2-1.55,4.86-1.94,7.2-3.12s5-2.48,7.92-3.6l4.08-.24a7.64,7.64,0,0,1,4.08-.48c1,.24,3.25,1.68,3.6,1.44.75.74.25,1.23,1.68,1.44.27-.69,0-.44.72-.72v.48a1.82,1.82,0,0,0-1,1.2c.73,0,.66.18,1,0s.32-.75.48-1a11.8,11.8,0,0,0,.48,1.92c.19-.25.09-.07.24-.48.5-.57.33-.87.48-1.44.36.21.18.68.48.24a16.39,16.39,0,0,0,1-2.4,8.72,8.72,0,0,0,2.16-.72v.48c-.59.31-.16-.1-.48.48h.48c1.14-1.15,2.2-1.1,3.84-.72l-.24.24c-.58.36-.57-.3-1,.48l1,1.92c1.75-.08,7.82-1.22,10.56,1h-.48v.48h.24a1.71,1.71,0,0,0,1,.48V55.2c-.57-.2-.39-.1-.72-.48h.48c2.62,2.66,6.54,3.75,9.36,6.24.79.7,1,2.31,1.68,3.12,1,1.14,2.9,1.38,3.84,2.64a32.77,32.77,0,0,1,2.64,3.6l-.24.72c1,2.06,3.8,3.56,5,5.52.69,1.09.49,2.48,1.2,3.6l1,.48c.75,1,.75,2,1.44,3.12.89,1.42,2.92,2.13,3.84,3.6.5.8.33,1.41.72,2.4s1.55,2,1.92,3.12-.36,1.21,0,2.16,1.32,2.31,1.68,3.36c.69,2,.55,4.21,1.44,6,1,2,2.79,4.26,3.84,6.24.33.61.14,1.27.48,1.92.56,1.08,2,1.88,2.64,2.88s.14,2,1.2,2.64c.26-.18.23-.14.72-.24v.24c-.39.32-.27.15-.48.72h.48c.42-.32.39-.41.72-.24h.24a3.3,3.3,0,0,0-.72,1.92c.55.24.67.18,1,.72-.39.32-.27.15-.48.72h.24c.38-.54.39-.5.72-.48.36.37.19.44.72.72.15.07.11-.07.24.24-.53.35-1.68,1.12-1.44,2.16,0,.19.57-.19.48.48s-1,1.72-1.2,2.88c.64.28.43-.22.72.48-.73.91-.09,1.82-.24,2.88a54,54,0,0,1-2.16,7.44c-.09-.5-.06-.46-.24-.72l-1.2,1.2c.19.41.63.44.24.72l-1,1.2h.24a9.69,9.69,0,0,1,3.12-1.92v.24c-.63.38-1.4,1.5-1.68,1.68l-.72-.24a4.93,4.93,0,0,0-2.88,2.64,3.39,3.39,0,0,0-1-.24v.24h.48l-.24.48c-.34.43-.16.73-.72,1a23,23,0,0,1-9.6,3.6l-.24-.48a9.46,9.46,0,0,0,2.88-.48v-.24c-3.6.22-4.54.43-7.2-1v.24l1,1h-1a8.66,8.66,0,0,0-1.92-1.92c0,1,.39.57-.24,1-1.47-1.87-4.74,2.46-5.76,3.6-1.25,1.4-2.28,3-3.6,4.32-2,2-4.75,3.7-6.48,6-1.52,2-2.85,4.43-5.28,5.52l.24.48h-.24c-.43.29-.42,0-.72.24-.48.64.23.57-1,.72l-.24-.24c-.09.5-.06.46-.24.72l-.48-.72c-5.28,2.16-8.57,4-10.8,9.12-2.52,5.81-2.13,12-8.4,14.16a6.77,6.77,0,0,1-3.6.48,8.52,8.52,0,0,1-4.56-2.64c-1-1.32-1-2.64-3.12-2.88l-5,2.16c-.85.65-1.06,1.5-2.4,2.16-.84.41-2.85.19-3.36,1-.27.4-.2,1.24-.48,1.68-.51.81-1.73,1.24-2.4,1.92-2.1-.07-7-2.22-8.88-1.2-1.39.51-1.81,1.86-2.88,2.64a16.93,16.93,0,0,1-5,2.4c-5.5,1.47-8.92-2.31-12.24-3.12-.93-.22-1.43.36-1.92.48l-4.08-.24v.48c1,1.2,1.31,2.92,2.16,4.32,1.58,2.59,2.8,5.36,4.32,8.16,3.35,6.18,11.31,16.69,8.88,27.12v2.16c-1.48,5.73-2.65,12.35-4.32,18.24-1.14,4-1.09,7.74-2.16,11.76-.71,2.67-3,10.24-2.16,13.68,2.76,11.83,2.39,26.15,6,37,1.41,4.23,4.33,7,5.76,11.28,1.19,3.59,1.67,8.25,2.64,11.76l.24,4.56c.92,3,3.94,4.09,4.8,6.48s-.7,4.86-.72,7.68c.71.46,3.76,2.28,4.08,2.88.93,1.73,1.1,2.61,2.4,3.84-.11,1.48-.62,1.82-.72,3.36,2.09,2.25,3.17,5.19,6.48,6.24-.48,2.49,1.14,2.84,1.68,4.56s-.87,2.87-.24,4.56,2.65,3.06,3.12,4.08.2,3.76.72,5a25.55,25.55,0,0,0,1.44,3.36c.38.62,1.5,1.44,1.68,2.16l-.24,2.4c.22.69,1.19,1.55,1.44,2.16.51,1.23.11,2.16.72,3.12l1,1,.48,3.6c.62,1.7,2.69,1.72,3.12,3.6-1.54,1.37,1.59,6,2.16,7.92l.24,3.84c.45,1.43,2.32,1.48,2.88,2.64s.09,2.18.48,3.12c1.53,3.72,3.61,8.15,5,12,.7,1.88.74,4.21,2.4,5s7.77.2,10.08.72c7.28,1.64,14.87,1.48,21.84,3.36,6.32,1.71,12.82,2.76,19,4.8a272.08,272.08,0,0,1,33.36,13.2l-1.68-3.84-.24-1.92-1.44-1.44c-.48-1.37.35-2.78.48-3.84-3.35-.76-4.81-2.42-6.72-4.56l-3.84-3.36c-3.59-5.29-3.66-16.07-5.28-23.52l-.24-7c-1.2-5.72-.1-18.15,1.2-22.8a57,57,0,0,1,2.4-7.44c.55-1.26,1.69-2.27,2.16-3.6a2,2,0,0,1-.72-1.44c1.62-1.25,5.1-5.84,5.76-7.92l-.24-4.32c-.08-3.95-.23-8.81.48-12,2.77-1.69,8.07-.7,12.24-1.68,1.73-.41,4.45.58,5.76-.24C482,361.17,481.47,359.36,481.44,357.36Z"/>
      <path fill="black" d="M394.08,51.6l.72.24v.24C394.23,51.88,394.41,52,394.08,51.6Z"/>
      <path fill="black" d="M391.44,51.84l.24,1.68h.24v-.24c.25-.42.14-.52.24-1.2Z"/>
      <path fill="black" d="M388.56,52.08l-.24,1.44h.24V53a1.71,1.71,0,0,0,.48-1Z"/>
      <path fill="black" d="M392.88,52.56a4.08,4.08,0,0,0,.24,1.44l.24-.24c.19-.25.09-.07.24-.48Z"/>
      <path fill="black" d="M391,53.76v.48h.48v-.48Z"/>
      <path fill="black" d="M445.68,142.08h.48l-.24.24v.24C445.73,142.31,445.83,142.49,445.68,142.08Z"/>
      <path fill="black" d="M445.44,142.56c.3.38.15.12,0,.48-.29.64-.5.74-1.2,1v-.24h.24A11.8,11.8,0,0,0,445.44,142.56Z"/>
      <path fill="black" d="M442.32,144.24l-.24.72h.48v-.48l.24-.24Z"/>
      <path fill="black" d="M427,146.64c.39.32.27.15.48.72h-.24v-.24C427,146.87,427.11,147.05,427,146.64Z"/>
      <path fill="black" d="M815,277.92a31.47,31.47,0,0,1-2.88,3.12c-2.53-.13-4.88-1.06-7.2-1.44a3.19,3.19,0,0,1-2.4,2.16c-1.95-1.55-5.8-.66-7.44.72-1,.82-.32,1.77-1.92,2.16-2.4-1.62-6.66.66-8.64,1.2l-5-.24c-1,.27-2,1.13-2.88,1.44-2,.74-5.51.26-7.92.24-3,0-5,.25-8.4.24l-4.56-.24-2.4.48a34.33,34.33,0,0,1-4.56-1.2c-1.28-.29-1.68.4-3.12,0-.46-.13-1.34-.85-1.68-1l-7.2.48c-4.8.16-10.22-.27-14.64.72-1.56.35-3.78,0-5,.24H713a63.32,63.32,0,0,0-6.72.48c-1.89.28-4.32-.43-5.52.48.62.6,1.21,2.5,1.92,2.88l37.92.24c35.72,0,71.8.49,107.28.48v-.48c-.93-.8-1.16-2.66-1.44-4.08-1.2-.41-1.67-1.64-2.64-2.16-1.6-.87-5.43-.24-7.2-1-1.58-.65-6.9-4.07-8.16-4.08-.26,0-.59.45-.72.48l-4.8-.48C820.33,279.11,818.31,278,815,277.92Z"/>
      <path fill="black" d="M657.6,363.6a10.41,10.41,0,0,1-.72,3.12,19.14,19.14,0,0,1-5.76,1l-.24,1.68a23.55,23.55,0,0,1,6,2.64c1.36,1,2.08,3.08,3.6,3.84v-.48c.78-1,.89-9.73,1-11.52Z"/>
      <path fill="black" d="M975.36,368.64,973,474h.24v-.24c1-1,3.17-2.17,3.84-3.36,1.74-3.12-.52-7.27.48-11.28.61-2.43,2.13-4.46,2.88-6.48.9-2.4-.2-5.52.48-8.4.39-1.67,1.26-3,1.44-4.8-2.64-2.76-3.62-8.31-2.16-13.2.43-1.44,2.26-3.57,1.68-5.52-.83-2.77-3.41-5.64-2.4-10.32.29-1.32,2.12-8.42,1.92-9.12a12.89,12.89,0,0,0-1-1.44,14.55,14.55,0,0,1-1.68-7.2c.14-2,2.21-7,1.68-8.4-.72-1.9-2.23-4.07-2.88-6.24s.37-7.11-1-8.88c-.25-.19-.07-.09-.48-.24C975.82,368.7,975.85,368.74,975.36,368.64Z"/>
      <path fill="black" d="M776.4,413.28c4,0,10.27.06,13.92-.72H798c6.75,0,13.12.46,19.44.48l.72-41-13-.24a48.93,48.93,0,0,0-12,4.32c-1.12.58-5.25,1.54-5.76,2.4,1.06,1.13,1.41,2.89,2.16,4.32,1.5,2.85,5.28,7.58,3.36,12.72-.78,2.08-4.46,6-6.24,7.2a24.4,24.4,0,0,1-6.24,2.64c-1.45.47-3,.38-4.08,1.2a3.18,3.18,0,0,0-.24,1.68C776.76,409.16,776.43,411.89,776.4,413.28Z"/>
      <path fill="black" d="M683.52,418.56c3.47,0,5.62,1.88,8.64,2.64.21-.8,1.15-1.68.72-2.88s-1.89-2.49-1.44-4.56c.68-3.13,2.52-6.31,4.08-8.88a14.21,14.21,0,0,0,1.68-2.4c.78-2.43-.54-6-1-7.92-1-4.63-.13-11,0-15.6-3.49,0-8.77-.76-11.76.24.64,1.92,0,4.25.48,6.48a32.35,32.35,0,0,1-.48,13.68Z"/>
      <path fill="black" d="M709,415l21.12-.72.48-.48V413a9.31,9.31,0,0,1-2.16-.24V401c-7.11-1.47-11.79-5.65-17-8.88-.17,2.46-1.36,4.76-1.2,7.44.11,1.83,1.28,4.27.72,6.48-.33,1.32-1.31,2.59-1.68,3.84Z"/>
      <path fill="black" d="M332.4,510.72a43.63,43.63,0,0,1,7.68,1.92c3.28.94,6.56,1.29,9.6,2.16,6.45,1.84,13.49,1.82,19.2,4.32L385.2,529.2v-1.92c-.19-.25-.09-.07-.24-.48-4.19-1.07-4.23-4.57-5-9.12-4.57-1.69-10-10.9-13-14.88-1-1.36-3.93-1.94-5-3.6-.78-1.17-.42-2.56-1-4.08a17.75,17.75,0,0,0-2.16-3.6c-1.72-2.4-4.06-4.54-5.76-7-2.49-3.54-4.39-7.35-6.72-11-4.47-7.08-9.91-13.78-14.4-20.88-3.77-6-7.11-12.18-10.8-18.24L302.4,395.52V396c-.49.79-.21,1.79-.48,2.88-.9,3.58-.94,7.45-1.92,11.28-2.22,8.63-3.4,17.47-5.52,25.92-.74,2.95-.26,5.7-.72,8.88-.08.57-.64,2.47-.24,3.36l1.44,1.44c1,2-.35,4.27-.72,5.52-.44,1.48.57,2.79,1,3.6.47,1,.37,1.51,1.44,1.92,1.81,1.17,4.56.06,5,2.64-1.39.73-1.77,1.07-1.68,3.36.61.9.6,2.21,1.2,3.12s2,1.86,2.64,2.88.3,2,.72,3.12a38.89,38.89,0,0,0,2.16,3.84c.83,1.58,1.17,3.11,1.92,4.8a17.26,17.26,0,0,0,2.88,4.32l2.16,1.92c.57.9,0,1.89.24,2.64s3.66,3.16,4.56,3.84c1.17.87,2.17,2.26,3.36,3.12C325.46,503,331.6,505.49,332.4,510.72Z"/>
      <path fill="black" d="M972.48,485l1.2-.24a4.06,4.06,0,0,0,.48-1.44A7,7,0,0,1,973,481h-.24v2.4A3.18,3.18,0,0,0,972.48,485Z"/>
      <path fill="black" d="M415,510c.4,3.22,2.78,5.5,4.32,7.68s3.15,4.3,4.8,6.48l6.48,6.48c1,1.28,3.17,5.89,4.32,6.48v-.24c2.19-.74,3.94-3.28,5.76-4.56,1.52-1.07,3.71-1.59,5-2.88-2-1.26-3.61-3.21-5.52-4.56-4.91-3.46-10.2-6.15-15.36-9.36C421.85,513.69,418.53,511,415,510Z"/>
      <path fill="black" d="M967,721a36.14,36.14,0,0,0,4.08.24,12.93,12.93,0,0,1,.72-2.4,2.51,2.51,0,0,1,1.44-.48c.38.3.12.15.48,0,.73-.87,1-2.21,1.92-2.88,1.52-1.11,3.09-1.13,5-1.92.89-.36,1.58-1.51,2.4-1.92l3.6-.72c.74-1.27,1.5-4.39,2.88-5,.91-.74,2.93-.48,4.08-1,3.56-1.5,5-3.3,7.44-5.76.78-.78,2.07-1.18,2.4-2.4-.37-.57-.05-1.53-.24-2.4-.74-3.48,1.5-4.94,3.6-6.24l1.92-.72,2.16-6c-1.18-.92-1.47-2.91-1.44-5l5.76-5.76c-.21-4.24-4.45-6.56-3.12-12l1.44-4.32c.72-2.84.63-5.88,1.2-8.4.38-1.67-.45-3.27-.72-4.32l.24-2.64c-.28-1.87-1.07-3.9-1.44-5.76-.44-2.2,1.58-4,1-6-.5-1.64-2.66-3.46-3.84-4.56,0-2.38.44-3.55.48-5.76-2.55-.91-7-6.45-7.68-9.36-.49-2,.08-4.76-.24-6.48-2.83-1.49-5.84-5.31-7-8.4l-.48-5c-1-1.68-2.92-3-3.84-4.8-1.3-2.48-1.71-5.12-3.12-7.44-6-9.85-11.43-20.86-16.56-31.44h-.24v4.56c-1.12,1.83.3,7.31-.24,9.84-.46,2.15-.23,5.36-.24,7.92,0,3.38.22,8.51-.48,11.76-.65,3,.34,6.88-.24,9.6v9.84c-.46,2.15-.23,5.36-.24,7.92,0,3.38.22,8.51-.48,11.76-.66,3.09.36,7-.24,9.84v9.6c-.6,2.79.43,6.75-.24,9.84-.7,3.25-.46,8.39-.48,11.76V666c-.86,4-.48,10.28-.48,14.64v4.8c-.6,2.79.43,6.75-.24,9.84-.6,2.79.43,6.75-.24,9.84C966.55,709.24,967,716.35,967,721Z"/>
    </symbol>
    <mask id="productivity__mask">
      <use xlink:href="#productivity-path" fill="white" />
    </mask>
  </defs>
  <image xlink:href="ROOT_URL/wp-content/themes/aray_med/assets/img/page-revolution/productivity-shadow.png" x="0" y="836" width="1086.48" height="249" />
  <image
    class="lazyload"
    mask="url(#productivity__mask)"
    data-responsive="page-revolution/productivity.jpg"
    xlink:href="ROOT_URL/wp-content/themes/aray_med/assets/img/page-revolution/productivity.jpg"
    x="0"
    y="0"
    width="1086.48"
    height="1081.68"
  />
</svg>
