<svg id="reach" data-name="Layer 1" xmlns="http://www.w3.org/2000/svg" xmlns:xlink="http://www.w3.org/1999/xlink" viewBox="0 0 737.93 1118.01">
  <defs>
    <style>
      #reach .cls-1 {
        fill: inherit;
        fill-rule: evenodd;
      }
    </style>
    <symbol id="reach-shape">
      <path class="cls-1" d="M653.84,884.41l.2-365.73a12.64,12.64,0,0,0,2.4,1c.64.08,1.23-.51,1.94-.41a6.14,6.14,0,0,0,3-.73c.92-.49,3.32-1.91,4-2.24a2.5,2.5,0,0,1,1.76-.19,29.87,29.87,0,0,0,5.18-.31c1-.22,1.52-.83,2.25-2.09s3.51-5.6,1.59-8.32a35.54,35.54,0,0,0-4-4.94c-1.38-1.48-1.87-1.6-2.14-2.34a10.61,10.61,0,0,0-2.72-3.52c-1.81-1.78-2.24-3.05-3.36-4.53s-.89-2.45-2-3.51a15.17,15.17,0,0,1-3.18-3.82,30.17,30.17,0,0,0-2.68-5.74c-1.34-2-.86-1.85-.88-2.58s.26-1.84-.61-2.48-2.76-1.3-3.41-3-3-7.32-4-10.09-1.2-4.41-2-4.82-2.07-.35-2.66-2.25-.87-3.62-1.75-4.88-2.41-3-2-4.14,1.57-2.77.34-4.9l-.78-256.91s-.18-.54.65-.58l14.32-.88a1.3,1.3,0,0,0,.9-1.5c-.24-1.16-.19-2.75-2.16-3.58s-9.74-3.28-24.21-6.66a177.29,177.29,0,0,0-29.09-4.54,31.41,31.41,0,0,0-6.62,0l-7.2.6s-1.14-24.5-1.22-33.1-.19-15.18-1-16.56a89.86,89.86,0,0,1-4.23-8.35c-1.78-3.95-2.85-6.73-5.38-9.07a31.38,31.38,0,0,1-4.89-5.72,54.94,54.94,0,0,0-8.5-8.24c-3.89-3.2-5.78-4.94-9.42-6.75s-5.36-2.53-8.08-3.83a70.71,70.71,0,0,0-9.5-4.08C528,66.44,526,65.79,526,65.79a7.12,7.12,0,0,0-.34-2.81,3.45,3.45,0,0,0-3.32-2.18c-2-.11-4.16.85-4.43,3.36,0,0-7-.89-14.19-1.17s-18.29.28-21.22,1-3.51,1.21-5.26.84S472,63.4,472,63.4s-1.77-1-3-.26l-3.63,2.12s.08.76-1.3.49a8.83,8.83,0,0,0-3.16,0c-1.27.11-2.55.44-3.34.09a13.4,13.4,0,0,0-5.26-.59c-2.45.13-3.23.19-4.12,1.07s-2.11.63-3.32.89a3.47,3.47,0,0,1-2.61-.22c-.53-.35-3-2.28-5.62.76a18.27,18.27,0,0,1-2.7-.65c-2.14-.61-1.47-1-3.81-.92s-3,.33-3.34-.1-1-2-5.17-1.78a10.72,10.72,0,0,1-2.17-2.45c-1-1.59-3.26-4.42-5.63-7.3s-3.1-4.42-4.78-5a16.61,16.61,0,0,1-3.5-1.74,31.88,31.88,0,0,0-6.24-3.25A72.51,72.51,0,0,0,388,41.48a49.57,49.57,0,0,0-11.8-1.23c-6.14,0-9.29,0-10.92.69s-2,1-3.64.88a15.11,15.11,0,0,0-5.57.72c-2,.68-3.57.22-5.09.58a37.54,37.54,0,0,1-3.75,1c-1.73.28-2.66,1-4.41.64a26.17,26.17,0,0,0-6-.31,7.71,7.71,0,0,1-4.11-.69c-1.28-.54-4.77-1.8-6.84-1.8s-2.81,0-3.72-.37a6,6,0,0,0-4.17-.76,14.29,14.29,0,0,1-7.44-.88l-5.47-1.84a7.69,7.69,0,0,1-2.46-1.55,7.18,7.18,0,0,0-4.85-1.76c-3-.16-6.2.28-9.58-1.09s-5.88-2.4-7.91-3.09a8.74,8.74,0,0,0-6.07,0,31,31,0,0,0-5.43,2,2.93,2.93,0,0,1-2.12.34c-1.11,0-7.82-.77-7.82-.77s-3.26-7.61-5.74-9.68a30,30,0,0,0-13.66-6.56c-6.74-1.32-20.81-3.53-20.81-3.53l-47.2-7.73S155.57,2,149,1s-13.6-1-22.5-1S75.1.83,35,20c0,0-16,5.25-17.64,32.09,0,0-13.36,11.66-12.91,36.54.17,9.31,3.72,21.31,10.54,31.93a20.8,20.8,0,0,1,4.45,11.68s-.17,4.22,1.33,4.28l1.36.17-.33,17.95a68,68,0,0,0-7.56.63c-1.44.4-2.07.74-3,2.7s-1.57,3.39-1.57,3.39L7.14,164.2s-.71.55-.46,1.2l.4,1.06s-1.76,3.9-3,6.26a18.37,18.37,0,0,0-2,5.05,135.39,135.39,0,0,0-2,24.58c.34,10.05,1.77,22.32,3.89,30.08,0,0,1,4.57,3.67,5.92A2.78,2.78,0,0,1,9,239.43c.46.77,5.06,8.3,16.25,7.7,0,0,2.14,4,4,6.76s5.47,7.53,9.6,10.29a17.84,17.84,0,0,0,11,3.53,48.88,48.88,0,0,1,6.22.4c2.41.25,8.6,1,16.1,1.62s51.71,3.41,51.71,3.41,17,1.55,27.67,1.05l43.68-2a41,41,0,0,0,21.91-8.35A45.87,45.87,0,0,0,246,250.64s5.31,11.83,11.24,10.65c0,0,8-.31,6.81-12.95s-2.56-14.54-3.35-17.91c0,0,4.2-4.6,5.8-6.26s2.78-2.62,3.35-6.08.83-5.88,1.44-7.21,2.17-3.78,2-6.37a20,20,0,0,0-.49-4.62,3.31,3.31,0,0,1,.09-2.36c.19-1,1.6-5.67,1.6-5.67a10.62,10.62,0,0,1,1.39-2.44,11.24,11.24,0,0,0,2.61-6.5c0-2.92.26-6.31.72-7.36a16.89,16.89,0,0,0,.8-5.48,61.44,61.44,0,0,1,.43-8.45c.43-2.4.8-6.72,1.59-12.24s2.47-23.81,2.47-23.81l.58.08,4.15,12.21s.38,1.11,3,1.39,27.54,2.18,27.54,2.18-.11.53,1.17.58,43.91,3.4,43.91,3.4l3,8.87s0,1.91,3.86,2.28,18.86,1.61,18.86,1.61l10,17s6.84,10.68,10.16,15.45,6.49,10.1,16.07,12.76a79.21,79.21,0,0,0,8,1.51c4.66.65,9.6,1.75,9.6,1.75l.12,5.85s.79.72,3,.52l0,16.32s-.14,2.15,1.56,2.16a10.43,10.43,0,0,1,2.37,0,13.4,13.4,0,0,0,3,.22c1.21,0,5.42.26,5.42.26s.94,1,3.93.91,13.86,0,18-.21,4.53-.15,5.25-.88a8.59,8.59,0,0,0,2.57-.42c1.07-.41,1.94-.53,1.92-2.89s-.27-24.57-.27-24.57l18.27-6.49.17,32s0,8.69.72,12.57,1.69,8.68,3.64,12.59,5.59,10.92,5.59,18.29.29,53.65.29,53.65-.28,2.06.16,2.77a3.83,3.83,0,0,1,.57,2.22c0,1,.79,153.42.79,153.42s-.35.31-1.26.08-2.09-.59-2.18.71.44,117,.44,117a54,54,0,0,0-28.06-4.71l-.44-7.53,1.74-.29L491,580.21s.07-2.8-2.18-3.07S456.18,576,456.18,576s-15.76-.93-21.19-.45-27,2.73-27,2.73-2.74-.37-2.81,2.94-.57,10.48-.57,10.48l3,.08-.14,9s-.93,4.95-4.54,5.48-27.62,4-27.62,4,.1-1.11-.68-1.19l.1-2,1.86,0s.44-1.35-.38-1.64a15.37,15.37,0,0,0-5-.65c-2.28.05-5.35.17-5.4,1,0,0-.3,1.12.27,1.08a6.81,6.81,0,0,1,1.66.28l.14,1.78s-.78.16-.77.67-.06,2.14-.06,2.14l-24.66,4.7s-27.7-22.29-68.31-28.67c0,0-11.09-1.24-14.86,8.74,0,0-11.86,1.47-27.14,3-28.24,2.82-68.17,6.66-68.17,6.66A138.69,138.69,0,0,0,148,602.15s-5-1.3-8.44-.45c0,0-4.77,1-7.21,3.8,0,0-.66.5-1.64,1.21s-5.94,3.82-6.88,12.49,3.72,15.31,8.59,17.67a5.23,5.23,0,0,1,2.75,2.19c1.2,1.8,18.35,25.93,18.35,25.93s.16,1,2.57.93a39.9,39.9,0,0,0,6.46-.26c2.67-.45,7.49-1.67,7.49-1.67L180.9,674s1.53,1.86.09,2.76a72,72,0,0,0-28.16,32.4,2.85,2.85,0,0,0-.15,2.27c.45,1.29,4.94,14.7,4.94,14.7a1,1,0,0,0-1,1c0,.92-1,1.11-1.11,1.9a3.79,3.79,0,0,0-3.67,3.15l-.15,2.48s-.85.41-.86,1l-2.39-.11s-1.36-.38-1.52,4.61.58,4.84,1.31,4.85,2.21-.06,2.21-.06a1.28,1.28,0,0,1,1.12,1.35c.08,1.28-.05,8.56-.05,8.56a24.89,24.89,0,0,1,.37,4.7c-.08,2.28.09,2.68-.22,2.45a3.35,3.35,0,0,0-2.66.1c-.57.51-1.29.43-1.37,1.82s.1,9,.1,9a.58.58,0,0,0,.61.45c.49-.05,4.81.1,4.81.1s.06,1.16.26,2.59.39,1.82,0,2.38-1.17,1.91-.43,2.55a5.56,5.56,0,0,0,2.89,1.26c1,.1,2,.16,2,.16l.13,2.38a2.28,2.28,0,0,1-.35,1.37c-.46.93-4.53,7.55-4.53,7.55a11.6,11.6,0,0,1-1.49,1.53c-1,.87-5.59,4.59-5.59,4.59s-1.64.95-1.12,2.33,1.32,2.89,1.89,4a2.6,2.6,0,0,1,.37,1.86c0,.53-.27.79.15.72a.82.82,0,0,1,.7.22l2.56,18.62s2.3,15.66,4,25.92,2.28,14.39,2.63,18.57.68,10.77,1.59,18.51,1.5,13.39,3.61,24.29,4.22,22.18,7.13,33.35,3.77,15.08,8.05,22,8.46,10.11,13,14.37,4,3.69,4,3.69a11.13,11.13,0,0,0,3.22,2.48c2.39,1.37,13.13,7.72,13.13,7.72a6,6,0,0,0,3.11.67,28.89,28.89,0,0,0,3.59-.35s13.25,29.34,39.68,38.57c7.8,2.72,23,5.64,40.66-2.36s24.61-17.58,29.21-28.33l-3.25,14.16a2,2,0,0,0,1.2,2.56,120,120,0,0,0,12,3.47c3.32.69,9.17,1.62,15.77,2.58s56.27,8.84,56.27,8.84l68,11s3.46.51,6,.72l8.18.7a23.39,23.39,0,0,0,4.37-.56c1.59-.46,18.05-6.37,18.05-6.37a49.68,49.68,0,0,0,4,14.27c4.24,9.29,12.82,19.18,24.94,21.4,7.16,1.31,13.76.69,22.22-2.89s19.63-11.72,20.44-29.79l14.76-5.93,7.55.83a8.82,8.82,0,0,0,3.32-.58c1.75-.67,11.76-5,11.76-5l23,3.87s10.47,1.89,20.23-3,19.44-11.32,20.27-30l15-6.86,5.39-3.1s1.09-.42,1.23-2.41-.15-14.79-.15-14.79a4.47,4.47,0,0,0-.66-2.09c-.65-1.05-4.23-8.37-4.23-8.37l2.4-1.11a3.57,3.57,0,0,0,2.52-.2c1.67-.6,7.29-3.63,7.29-3.63s1.11-.33,1.16-2.37.07-5.29.07-5.29a3.67,3.67,0,0,0,1.5-2.48c0-1.39.21-1.59-.48-2.18a2.88,2.88,0,0,0,.37-1.91,72,72,0,0,1-.17-8.3c.24-2.92,1.49-5.43-1.51-7.24l-.18-1.71,6.14-2.67A2.89,2.89,0,0,0,724,927c-.48-2.47-2.37-10.55-2.37-10.55a6.82,6.82,0,0,0-4.41-5.2l-5.42-1.95-.45-3.32s.22-2.31-3.51-3.43-41.07-10-41.07-10S666.84,888,653.84,884.41Z"/>
      <path fill="black" d="M199,621.92a177.21,177.21,0,0,1,37.89,30.48,2.85,2.85,0,0,1,2.25-1.92c1.73-.2,8-1,8-1a8.72,8.72,0,0,1,4.24.87,354.88,354.88,0,0,1,33.82-16.51s-7-4.88-12.67-7.91S262,620.33,260.31,616l-27.6,2.84s-2.44.59-2.72-.13Z"/>
      <path fill="black" d="M420.84,174.86s2.61,7.4,11.89,9.86c0,0,.06,0,1.86-.14s9.71-1.4,9.71-1.4l.09-5.31a38.54,38.54,0,0,1-6-1.54c-1.4-.69-3.06-.55-6.52-.78S420.84,174.86,420.84,174.86Z"/>
      <path fill="black" d="M239.73,216.22s-1,.24-.69,1a27,27,0,0,0,1.7,5,69.39,69.39,0,0,0,3.72,6.91l2.93-.36,2.05-4.52s-.19-.75.2-.84,1-.71.38-.67-.74,0-.77-.26-.26-.4.1-.56,1.06-.75.52-.73-.91.17-.9-.28-.19-.66.06-.92.76-.45.3-.6-.75,0-.72-.49-.26-.61.06-.77.67-.37.21-.52-.62-.18-.59-.63a6.32,6.32,0,0,1,.14-.74c0-.28.12-.15-.11-.53s-.21.05-.27-1-.35-2-.57-3.9a15.14,15.14,0,0,1-.17-2.35l-.78.08s-.28,2.52-1.17,3.32S239.73,216.22,239.73,216.22Z"/>
      <path fill="black" d="M236.65,237.41a23.35,23.35,0,0,1-.6,3.08l1.48-1Z"/>
      <path fill="black" d="M256.3,203.57a60.86,60.86,0,0,0-2-10.39s.4-2,1.19-5.69a84.46,84.46,0,0,1,2.85-11.41c1.59-4.72,2.81-6.63,2.77-9.6s.17-8.61.19-14.1-.16-9.09.39-11.78a29.35,29.35,0,0,0,.81-8.22c-.1-3.95,0-7.8,0-7.8l2.45-.07a36.58,36.58,0,0,0-.75,4.69c-.27,2.77-.4,5-.61,10.42s-.58,8.27-.74,14.45-.27,10.64-.59,14.89-1.16,9-1.88,14.47-1.11,8.56-.73,11.48.52,5.11.52,5.11Z"/>
      <path fill="black" d="M211.14,132.52s10.16-.56,14-1S238.43,129,238.43,129s.25.34-.5,3.15-3.62,11.57-3.62,11.57-1.64-2.52-6.24-3.46-8-1.61-8-1.61a5.56,5.56,0,0,1-3.74-2.1A10.62,10.62,0,0,0,211.14,132.52Z"/>
      <path fill="black" d="M526.36,87.82l.28,8.06,25.71,2.82-.46-2a20.68,20.68,0,0,1-9.65-6.53A27.46,27.46,0,0,1,526.36,87.82Z"/>
      <path fill="black" d="M518.5,82.23l.12,12.82L449,86.59A2.88,2.88,0,0,1,451.91,85c2.11.22,5.26,1.19,6.62,1a7.44,7.44,0,0,0,5.84-3.65,10.41,10.41,0,0,0,1.51-.06c1.24-.1,2-.42,2.89.09a5.64,5.64,0,0,0,4.26.91c1.75-.49,4.5-1.62,5.37-1.26a14.68,14.68,0,0,0,4.08.63c1.71.11,5.27.58,7.32.18S494,81,495.4,81.21a13.66,13.66,0,0,1,3.91,1.49,18.85,18.85,0,0,0,7.65,1,16.55,16.55,0,0,0,5.86-1.22C514.82,81.54,516.86,81,518.5,82.23Z"/>
      <path fill="black" d="M363.67,64.67l14.46,2.16s-.78-2.22.9-2.58a3,3,0,0,0-1.39-1c-1-.43-.93-.16-2-.32a8.84,8.84,0,0,0-2.53-.26c-.62.13-3.69.9-5.6-.14A14.47,14.47,0,0,1,363.67,64.67Z"/>
      <path fill="black" d="M339.95,85.54a84.75,84.75,0,0,1-.91-8.69l28.26,1s.17.06.57.54a1.25,1.25,0,0,1,.44.88c.12.51.24.9,1.48,1.2a15.54,15.54,0,0,0,4.13.34,1.7,1.7,0,0,0,1.15-.46c.35-.27.35,0,1-.07a4,4,0,0,0,1.76-.66c.63-.39,1.23-1.15,2.09-1.17s3.47.25,3.47.25,2.52.36,2.83-2.89l15.23.79a21.66,21.66,0,0,0,4.58,4.7s-5.18-.13-6.59.66-1.55.87-1.56,2.34.19,4,.19,4l-26.68-2.52s-8.77-.82-10,2.31Z"/>
      <path fill="black" d="M266.25,46.78a4.66,4.66,0,0,0,1.81,2.56c1.6,1.28,2.44,1.81,3.14,3.5l4.4-.26s-4.24-3.55-6.74-6.2Z"/>
      <path fill="black" d="M22,218s-.38,4.33-.5,7.08.39,4.06,3.2,6.2l.43-10.34a.88.88,0,0,0-.41-1.1A7.8,7.8,0,0,1,22,218Z"/>
    </symbol>
    <mask id="reach__mask">
      <use xlink:href="#reach-shape" fill="white" />
    </mask>
  </defs>
  <image xlink:href="ROOT_URL/wp-content/themes/aray_med/assets/img/page-revolution/reach--shadow.png" x="0" y="884.01" width="737.93" height="284" />
  <image
    class="lazyload"
    mask="url(#reach__mask)"
    data-responsive="page-revolution/reach.jpg"
    xlink:href="ROOT_URL/wp-content/themes/aray_med/assets/img/page-revolution/reach.jpg"
    x="0"
    y="0"
    width="737.93"
    height="1118.01"
  />
</svg>
