<svg id="vibes" xmlns="http://www.w3.org/2000/svg" xmlns:xlink="http://www.w3.org/1999/xlink" viewBox="0 0 2382.24 1272">
  <defs>
    <style>
      @keyframes vibe {
        0% {
          transform: translateX(-2382.24px);
        }
        100% {
          transform: translateX(0);
        }
      }
      .vibe path {
        fill: none;
        stroke: inherit;
        stroke-miterlimit: 10;
        animation: 2s vibe infinite linear
      }
      #red path {
        animation-duration: 1.5s;
      }
      #orange path {
        animation-duration: 2.5s;
      }
      #yellow path {
        animation-duration: 3.5s;
      }
      #green path {
        animation-duration: 4.5s;
      }
      #blue path {
        animation-duration: 5.5s;
      }
      #indigo path {
        animation-duration: 6.5s;
      }
      #violet path {
        animation-duration: 7.5s;
      }
      #black path {
        animation-duration: 8.5s;
      }
    </style>
    <symbol id="vibe">
      <path d="M4764.48,1216.2c-285,0-201.68-699.74-401.77-699.74S4179,1216.39,3978.94,1216.39s-192.09-699.92-384.77-699.92-178.45,699.92-400.77,699.92-155.47-699.92-352.77-699.92S2696,1216.2,2382.24,1216.2"/>
      <path d="M2382.24,1216.2c-285,0-201.68-699.74-401.77-699.74s-183.68,699.92-383.77,699.92-192.09-699.92-384.77-699.92-178.45,699.92-400.77,699.92S655.69,516.47,458.39,516.47,313.72,1216.2,0,1216.2"/>
    </symbol>
  </defs>
  <g class="vibe" id="black" stroke-width="6px" transform="translate(0 -600)">
    <path d="M4764.48,1216.2c-285,0-201.68-699.74-401.77-699.74S4179,1216.39,3978.94,1216.39s-192.09-699.92-384.77-699.92-178.45,699.92-400.77,699.92-155.47-699.92-352.77-699.92S2696,1216.2,2382.24,1216.2"></path>
    <path d="M2382.24,1216.2c-285,0-201.68-699.74-401.77-699.74s-183.68,699.92-383.77,699.92-192.09-699.92-384.77-699.92-178.45,699.92-400.77,699.92S655.69,516.47,458.39,516.47,313.72,1216.2,0,1216.2"></path>
  </g>
  <g class="vibe" id="violet" stroke-width="7px" transform="translate(0 -500)">
    <path d="M4764.48,1216.2c-285,0-201.68-699.74-401.77-699.74S4179,1216.39,3978.94,1216.39s-192.09-699.92-384.77-699.92-178.45,699.92-400.77,699.92-155.47-699.92-352.77-699.92S2696,1216.2,2382.24,1216.2"></path>
    <path d="M2382.24,1216.2c-285,0-201.68-699.74-401.77-699.74s-183.68,699.92-383.77,699.92-192.09-699.92-384.77-699.92-178.45,699.92-400.77,699.92S655.69,516.47,458.39,516.47,313.72,1216.2,0,1216.2"></path>
  </g>
  <g class="vibe" id="indigo" stroke-width="8px" transform="translate(0 -400)">
    <path d="M4764.48,1216.2c-285,0-201.68-699.74-401.77-699.74S4179,1216.39,3978.94,1216.39s-192.09-699.92-384.77-699.92-178.45,699.92-400.77,699.92-155.47-699.92-352.77-699.92S2696,1216.2,2382.24,1216.2"></path>
    <path d="M2382.24,1216.2c-285,0-201.68-699.74-401.77-699.74s-183.68,699.92-383.77,699.92-192.09-699.92-384.77-699.92-178.45,699.92-400.77,699.92S655.69,516.47,458.39,516.47,313.72,1216.2,0,1216.2"></path>
  </g>
  <g class="vibe" id="blue" stroke-width="9px" transform="translate(0 -300)">
    <path d="M4764.48,1216.2c-285,0-201.68-699.74-401.77-699.74S4179,1216.39,3978.94,1216.39s-192.09-699.92-384.77-699.92-178.45,699.92-400.77,699.92-155.47-699.92-352.77-699.92S2696,1216.2,2382.24,1216.2"></path>
    <path d="M2382.24,1216.2c-285,0-201.68-699.74-401.77-699.74s-183.68,699.92-383.77,699.92-192.09-699.92-384.77-699.92-178.45,699.92-400.77,699.92S655.69,516.47,458.39,516.47,313.72,1216.2,0,1216.2"></path>
  </g>
  <g class="vibe" id="green" stroke-width="10px" transform="translate(0 -200)">
    <path d="M4764.48,1216.2c-285,0-201.68-699.74-401.77-699.74S4179,1216.39,3978.94,1216.39s-192.09-699.92-384.77-699.92-178.45,699.92-400.77,699.92-155.47-699.92-352.77-699.92S2696,1216.2,2382.24,1216.2"></path>
    <path d="M2382.24,1216.2c-285,0-201.68-699.74-401.77-699.74s-183.68,699.92-383.77,699.92-192.09-699.92-384.77-699.92-178.45,699.92-400.77,699.92S655.69,516.47,458.39,516.47,313.72,1216.2,0,1216.2"></path>
  </g>
  <g class="vibe" id="yellow" stroke-width="11px" transform="translate(0 -100)">
    <path d="M4764.48,1216.2c-285,0-201.68-699.74-401.77-699.74S4179,1216.39,3978.94,1216.39s-192.09-699.92-384.77-699.92-178.45,699.92-400.77,699.92-155.47-699.92-352.77-699.92S2696,1216.2,2382.24,1216.2"></path>
    <path d="M2382.24,1216.2c-285,0-201.68-699.74-401.77-699.74s-183.68,699.92-383.77,699.92-192.09-699.92-384.77-699.92-178.45,699.92-400.77,699.92S655.69,516.47,458.39,516.47,313.72,1216.2,0,1216.2"></path>
  </g>
  <g class="vibe" id="orange" stroke-width="12px" transform="translate(0 0)">
    <path d="M4764.48,1216.2c-285,0-201.68-699.74-401.77-699.74S4179,1216.39,3978.94,1216.39s-192.09-699.92-384.77-699.92-178.45,699.92-400.77,699.92-155.47-699.92-352.77-699.92S2696,1216.2,2382.24,1216.2"></path>
    <path d="M2382.24,1216.2c-285,0-201.68-699.74-401.77-699.74s-183.68,699.92-383.77,699.92-192.09-699.92-384.77-699.92-178.45,699.92-400.77,699.92S655.69,516.47,458.39,516.47,313.72,1216.2,0,1216.2"></path>
  </g>
  <g class="vibe" id="red" stroke-width="13px" transform="translate(0 100)">
    <path d="M4764.48,1216.2c-285,0-201.68-699.74-401.77-699.74S4179,1216.39,3978.94,1216.39s-192.09-699.92-384.77-699.92-178.45,699.92-400.77,699.92-155.47-699.92-352.77-699.92S2696,1216.2,2382.24,1216.2"></path>
    <path d="M2382.24,1216.2c-285,0-201.68-699.74-401.77-699.74s-183.68,699.92-383.77,699.92-192.09-699.92-384.77-699.92-178.45,699.92-400.77,699.92S655.69,516.47,458.39,516.47,313.72,1216.2,0,1216.2"></path>
  </g>
</svg>
