<svg id="radiation" xmlns="http://www.w3.org/2000/svg" viewBox="0 0 100 100">
  <defs>
    <style>
      #radiation .cls-1 {
        fill: #ef7622;
      }

      #radiation .cls-2 {
        fill: none;
        stroke: #fff;
        stroke-miterlimit: 10;
        stroke-width: 2.3px;
      }
    </style>
  </defs>
  <title>radiation</title>
  <g id="Layer_2" data-name="Layer 2">
    <g id="Layer_1-2" data-name="Layer 1">
      <circle class="cls-1" cx="50.77" cy="50.77" r="6.77"/>
      <circle class="cls-2" cx="50.77" cy="50.77" r="47.62"/>
      <path class="cls-2" d="M60.12,41.83,73,16.24A40.86,40.86,0,0,0,50.84,9.72h-.1a40.86,40.86,0,0,0-22.19,6.53L41.43,41.83a12.84,12.84,0,0,1,18.69,0Z"/>
      <path class="cls-2" d="M39,56.26a12.53,12.53,0,0,1-.29-10.18l-28.63-.85a41.43,41.43,0,0,0-.37,5.54A40.92,40.92,0,0,0,13,67q.47,1,1,2.06A41.24,41.24,0,0,0,28.87,85.5L46.61,63A12.53,12.53,0,0,1,39,56.26Z"/>
      <path class="cls-2" d="M62.39,56.26a12.53,12.53,0,0,0,.29-10.18l28.63-.85a41.43,41.43,0,0,1,.37,5.54A40.92,40.92,0,0,1,88.36,67q-.47,1-1,2.06A41.24,41.24,0,0,1,72.53,85.5L54.78,63A12.53,12.53,0,0,0,62.39,56.26Z"/>
    </g>
  </g>
</svg>
