<svg id="specialties" data-name="Layer 1" xmlns="http://www.w3.org/2000/svg" viewBox="0 0 252 252">
  <defs>
    <style>
      #specialties .cls-1,
      #specialties .cls-2,
      #specialties .cls-3 {
        fill: none;
        stroke-miterlimit: 10;
      }

      #specialties .cls-1 {
        stroke: #fff;
        stroke-width: 2.31px;
      }

      #specialties .cls-2,
      #specialties .cls-3 {
        stroke-width: 2.19px;
      }

      #specialties .cls-2 {
        stroke-linecap: round;
      }
    </style>
  </defs>
  <g>
    <rect id="specialtiesFrame" class="cls-3" x="73.94" y="64.92" width="114.01" height="122.16" rx="6.54" ry="6.54">
      <animateTransform
        id="specialtiesFrameSlideBack"
        attributeType="XML"
        attributeName="transform"
        type="translate"
        from="300 0"
        to="0 0"
        dur="200ms"
        begin="indefinite"
        fill="freeze"
      />
      <animateTransform
        id="specialtiesFrameSlideOut"
        attributeType="XML"
        attributeName="transform"
        type="translate"
        from="0 0"
        to="300 0"
        dur="1s"
        begin="indefinite"
        fill="freeze"
      />
      <animate
        attributeType="CSS"
        attributeName="opacity"
        from="1"
        to="0"
        dur="500ms"
        begin="indefinite"
        fill="freeze"
        class="specialtiesFrameReset"
        id="specialtiesFrameFadeOut"
      />
      <animate
        attributeType="CSS"
        attributeName="opacity"
        from="0"
        to="1"
        dur="500ms"
        begin="indefinite"
        fill="freeze"
        id="specialtiesFrameFadeIn"
      />
    </rect>
    <g id="head" transform="translate(0 12)">
      <path class="cls-1 head-outline" d="M154.43,193.69V160.07a55.75,55.75,0,0,0,31.84-54.24c-2.17-32.62-32.64-56.57-64.89-51.19-27,4.51-40.12,28.77-51.15,53L59.87,130.24a2.94,2.94,0,0,0,2.67,4.16h13.6v33.07a7.17,7.17,0,0,0,7.17,7.17h25.22v19.06A61.92,61.92,0,0,0,154.43,193.69Z">
      </path>
      <g id="skull">
        <animate
          id="skullFlash"
          attributeType="CSS"
          attributeName="opacity"
          dur="100ms"
          begin="indefinite"
          repeatCount="10"
          from="0"
          to="1"
          fill="freeze"
        />
        <animate
          id="skullFade"
          attributeType="CSS"
          attributeName="opacity"
          from="1"
          to="0"
          dur="2s"
          fill="freeze"
          begin="indefinite"
        />
        <path class="cls-2 svg-stroke-orange" d="M138.49,137.46c19.17,0,37-13.61,34.93-32.42A42.07,42.07,0,0,0,123.48,68.3C109.75,71,100.87,80.48,94,92.08v12l-6.73,7.46a.75.75,0,0,0,0,1l7.28,7.8a1.1,1.1,0,0,1,0,1.46l-3.74,8a12.2,12.2,0,0,1-.64,1.39c-2.37,3.31-.42,5.06-.4,6.29s-.91,4,2.32,7a7.53,7.53,0,0,1,2.13,6.6c-.5,3-3.17,5.09-.52,7.94,3,3.24,25.91,1,33.38-3s9-6,10.46-12.95,1.63-19.1,1.63-19.1.63-7.42-6.62-7.42c-6.47,0-7.32,9.66-7.32,9.66s-.52,7.07-.76,9.32c-.36,3.48-1.11,11.19-8.84,11.19"/>
        <path id="eye" class="cls-2 svg-stroke-orange" d="M103.1,98.82c-.1-.23,0-.47-.07-.71-1.22-4.12,5.39-8.37,8.94-8,4.25.43,4.25,2.09,5.13,8.68,1.3,9.77-4.65,12.48-8.25,13.37-5.93,1.45-3.38-6.72-4.17-9.75A28.65,28.65,0,0,0,103.1,98.82Z"/>
        <path class="cls-3 svg-stroke-orange" d="M90.2,137.92s14.17.56,23.85.18c5.6-.22,9.35-.59,9.35-.59"/>
        <path id="lump" class="cls-2 svg-stroke-orange" d="M142,78.49a13.31,13.31,0,0,0-14.23-.24c-1.88.71-3.24,3.21-2.09,4.87l4.66,6.71s2,9-.32,12.95"/>
      </g>
    </g>
  </g>
</svg>
