<svg id="control-panel" xmlns="http://www.w3.org/2000/svg" xmlns:xlink="http://www.w3.org/1999/xlink" viewBox="0 0 1987.2 1489.92">
  <defs>
    <style>
      #control-panel .cls-1 {
        fill: inherit;
        fill-rule: evenodd;
      }
    </style>
    <symbol id="control-panel-shape">
      <path class="cls-1" d="M1183.68,72.72c23.3-.36,39.34,5.65,55.2,12.48,7.29,3.14,15.61,5.89,20.16,11.76,3.06,4,3.21,9.18,5.28,14.4,1.81,4.57,5.27,8.2,8.4,11.52,10-3.55,9.75,1.68,15.84,3.12,23.07,5.46,32.07,12,44.4,27.84l16.8,21.12,14.4,5.28c18.18,7.46,38.94,12.54,58.8,18.72l25.2,7.44c20.87,8.71,37.69,23.29,52.56,38.16l10.8,11.28,5,6.24a63.53,63.53,0,0,1,6.72,5c1.83,1.65,6.33,5.8,5.76,9.36l-3.12,9.12c-3,9.81-4.56,22.23-11.76,27.84a57.13,57.13,0,0,1-11.76,6.72l-7.2,2.88-3.36,8.4h.48c4.24,1.75,23.59-2.85,27.84-3.84l10.08-20.4c1.14-2.24,2.09-6.37,4.56-7.2,3.36-1.12,12.82-2.32,15.36-.24,2.27,1.86,7,7.77,7.68,10.8l-.48,2.88c.42,1.92,3.89,5.62,4.8,8.64l1,8.16c1.25,6.8,5.13,15.33,10.08,18.48,4.56,2.91,11.09,2.38,15.12,5.52l25.2,31.2c1.16,1.15,4.15.77,5.76,1.44,3.73,1.57,9.16,8,9.84,12.48.58,3.76-2.18,8.48-3.12,11.52-3.29,10.56-4.85,22.33-13.44,27.6-5.12,3.14-15.77,4.28-19.92,7.44-2.69,2-6.2,12.09-7.92,15.6,6.65,5.57,25.8-2,32.4-3.84,2.38-5,14.2-29,17.76-30.48,3.25-1.37,14.14-2.31,16.8-.24,2.08,1.62,5.87,6.79,6.48,9.6l-.24,3.84,6.24,8.16c1.29,3.29-.49,7.17.24,11,1.28,6.81,6.34,14.74,10.8,18.72,4.74,4.23,13.24,5,18.24,8.88l26.4,31.68c1.45,1.74,4.78.64,6.72,1.92,1.7,1.12,8.6,10.72,9.12,13,1.28,5.57-3.06,11.09-4.56,14.88-3,7.61-5.05,17.41-11.28,21.84s-16.94,5.09-22.32,9.12c-2.65,2-9.36,15.91-11.28,19.68,6.83,6.34,21.77,8.55,31.2,2.64l19.68-29.76c1.54-2.36,3-5.62,5.52-7,2.32-1.25,13.34-3.58,15.84-1.92s7.55,8.2,8.4,11.28c.58,2.09-1.09,2.65-.48,3.84l7,10.32c1.49,3.6-.12,9,1,13.2,1.64,6.39,5.43,12,9.12,16.56l5.28,2.64c7.52,3.23,11.63,5.44,14.88,13a181.14,181.14,0,0,1,11.76,39.84l-.24,5.76c.82,5.53,1.74,13.2.72,19.68l-.72,10.56c11,2.23,24.75,11.92,28.8,21.36,3.75,8.74,1.58,22.25,3.36,33.12,3.88,23.63,4.17,47.83,9.6,69.84l7,31.92c1.19,4.72,4.23,11.11,3.12,17.28-2.54,14.1-12.13,19.37-19.2,28.56,11,35.14.51,83-12,107.52-17.33,34-46.2,55.87-76.32,77-21.87,15.37-44.79,30.19-68.16,43.92l-60,29.76c-77.39,37.18-157.14,74.82-237.6,109l-190.8,74.64-95,32.88c-41,15.9-84.51,27-128.4,40.08-30.3,9-70.65,18.52-109.2,10.8-49.81-10-82.15-24.61-115.92-50.16a274.75,274.75,0,0,1-27.36-24l-11-12c-12.51,4.41-25.1,17-43.44,9.12-10.4-4.49-17.44-12.81-25.68-19.44-14.86-12-27.11-26.85-42.24-38.64-23-17.94-46.94-34.87-71-51.84-12.72-9-30.23-16.29-39.36-28.8-4.73-6.47-9.66-19.63-7.68-31.2l1.92-8.64c-10.82-4.1-22.53-14.15-31.44-20.88-17.93-13.53-35.18-29.44-47.28-48.72-9.13-14.56-15.74-31.28-22.8-47.76l-5.28-12.72c-1.4-1.73-4.36-1.85-5.76-3.84-4.37-6.23-9.25-29.34-5.28-40.32,1.72-4.75,6.45-6.09,9.6-9.36-7.42.51-17.59,3-21.84-2.64-5.67-7.51-6.75-19.51-8.64-30.72L349,953.52l-31.2-90.72c-13.58-5.23-6.9-15.81-13-26.16-14.49.21-26.64-3.55-36.72-7.92a80,80,0,0,1-38.16-33.6c-4.62-7.88-6.4-18.12-9.36-27.6l-16.32-55c-2.53-8.14-19.34-16.51-25.2-23.76-12-14.89-19.61-27.86-25.92-49-12.6-42.16,1.68-74.48,21.36-99.12,9.06-11.35,21.16-20.58,32.64-29.52l52.08-42c22.14-16.76,42.52-33,56.88-57.6,3.48-6,10.63-22.38,8.4-32.88-.84-3.93-3.34-6.92-4.8-10.32a173.35,173.35,0,0,1-8.4-26.16c-8.1-32.33,1.6-64,19.68-78.48,19.49-15.58,46.5-24.76,73-33.12C439.3,219.47,475,209.21,511,198c72.26-22.53,146.88-40.74,222.48-60l86.64-18.48c37.57-8.29,76.34-12.5,114.72-20.16L979,92.64c34.26-6.8,70.83-6.77,106.32-12.72l35.52-3.36,41.76-3.12Z"/>
      <path fill="black" d="M1707.84,890.4l-5.76,1.68c-8.46,5.08-14.43,17.16-22.32,23.52a418.17,418.17,0,0,1-40.8,29c-34.06,21.23-70.34,38.91-105.36,59.28l-51.6,26.16c6.18,10.09,8.84,26.6,15.84,35.52,3-2.28,5-5.69,9.12-7l40.56-2.16,25.2-2.4c14.7-2.74,28.83-5.58,42.48-9.36,8.22-2.28,26-8.69,33.84-4.56l64.08-32.4c10.07-5.85,21.11-7.73,25.92-19C1752.83,956.61,1746.47,890,1707.84,890.4Z"/>
      <path fill="black" d="M1159,1156.08c-4.42,1.63-9.3,1.35-13.44,2.64-20.21,6.33-41.69,11-62.64,17.28-61,18.19-123.11,31.24-187.2,46.32-17,4-34.19,4.66-52.8,7.68-15.41,2.5-32.18-3.94-45.84.24-6.68,2-10.44,6.82-15.36,10.56,5.51,13.59,16.16,24.83,26.88,33.36,18.45,14.68,36.5,27.07,62.4,34.8,9.52,2.84,19.16,2.28,30.48,4.08,8,1.28,18.45.38,25.92-1,29.78-5.36,54.36-12.88,80.4-21.12,15.52-4.91,31.05-9.08,45.84-14.88.55-5.48,5.8-7.28,9.84-9.36l26.4-13.68,30.48-17,24.72-18.24,25.44-20.4c5.09-4.08,7.91-9.61,15.12-11.76,5.55-1.65,12.27.7,16.8.48C1195.32,1167.31,1184.84,1156,1159,1156.08Z"/>
    </symbol>
    <mask id="control-panel__mask">
      <use xlink:href="#control-panel-shape" fill="white" />
    </mask>
  </defs>
  <image xlink:href="ROOT_URL/wp-content/themes/aray_med/assets/img/page-ultrasound/panel-shadow.png" width="2387.2" height="930" x="-200" y="644.01" />
  <image
    class="lazyload"
    mask="url(#control-panel__mask)"
    data-responsive="page-ultrasound/control-panel.jpg"
    xlink:href="ROOT_URL/wp-content/themes/aray_med/assets/img/page-ultrasound/control-panel.jpg"
    x="0"
    y="0"
    width="1987.2"
    height="1489.92"
  />
</svg>
