<svg id="control-panel-clean" xmlns="http://www.w3.org/2000/svg" viewBox="0 0 127.51 127.51">
  <defs>
    <style>
      #control-panel-clean .cls-1,
			#control-panel-clean .cls-4 {
        fill: none;
        stroke-miterlimit: 10;
      }

      #control-panel-clean .cls-1 {
        stroke: #f3f3f3;
        stroke-width: 2.41px;
      }

      #control-panel-clean .cls-3 {
        fill: #fff;
      }

      #control-panel-clean .cls-4 {
        stroke: #fff;
        stroke-width: 1.67px;
      }
    </style>
  </defs>
  <title>control-panel-clean</title>
  <g id="Layer_2" data-name="Layer 2">
    <g id="Layer_1-2" data-name="Layer 1">
      <g>
        <circle class="cls-1" cx="63.76" cy="63.76" r="62.55"/>
        <g>
          <path class="cls-2 svg-fill-orange" d="M84.76,60.51c-8.51-10.65-23.83-19.27-27.07-21a1,1,0,0,0-1.14.12C50.71,44.31,37.09,49.23,29,55.17A54,54,0,0,0,16.15,69.31a1,1,0,0,0,.2,1.31l11.6,9.9a130.61,130.61,0,0,0,10.8,8.1,1,1,0,0,0,1.59-.92c0-.55-.06-1-.06-1.18,0-1.21-.24-4.11-.27-4.47V82c-.11-.67-1.76-10.76-2.29-14.49s1.29-4,1.29-4c3-1.1,3.31,2.11,3.31,2.11l2.09,9.66a1,1,0,0,0,1.51.67h0a1,1,0,0,0,.51-.93l-.8-18.6a1,1,0,0,0,0-.17c-.13-.59-.8-4.15,2.32-4.15,3.4,0,3.4,2.57,3.4,2.57L52.63,72.8a1,1,0,0,0,1.11.94c.38,0,.8-.09,1.16-.15a1,1,0,0,0,.87-1c.17-4,.88-20.85.88-21.42A3.16,3.16,0,0,1,60,48.09c2.85,0,2.76,3.13,2.76,3.13V72.87a1,1,0,0,0,.87,1l.58.09a1,1,0,0,0,1.15-.78c.75-3.31,3.25-14.39,3.56-15.71.37-1.56.64-2.85,3.49-2.85s2.3,3.86,2.21,4.87-1.93,13.06-2.11,14.62-.37,7.63,1.65,9.65,5.52-1.2,9.1-3.4,6.53-1.2,7-.55a2.54,2.54,0,0,1-.55,3.31c-1.29,1.1-2.94,3.59-4.78,6.07s-3.59,5-5.15,7.26-3.59,2.94-6.9,5.79a16.41,16.41,0,0,0-2.26,2.36h0c5.53,2.39,7.76,3.41,8.65,3.83a1,1,0,0,0,1.09-.14,201.65,201.65,0,0,0,18.07-18,83,83,0,0,0,12.5-18.76,1,1,0,0,0-1-1.46C105.32,70.39,92.45,70.13,84.76,60.51Z"/>
          <path class="cls-3" d="M37.52,27.77a1,1,0,0,1,1.78,0,3,3,0,0,0,.5.69,3.37,3.37,0,0,0,.69.52,1,1,0,0,1,0,1.78,3,3,0,0,0-.68.49,3.24,3.24,0,0,0-.52.69,1,1,0,0,1-1.78,0,3,3,0,0,0-.5-.68,2.88,2.88,0,0,0-.71-.5,1,1,0,0,1,0-1.8,2.88,2.88,0,0,0,.71-.5A3,3,0,0,0,37.52,27.77Z"/>
          <path class="cls-3" d="M101.33,43.66a1,1,0,0,1,1.91,0,7.33,7.33,0,0,0,1.57,2.77A7.4,7.4,0,0,0,107.49,48a1,1,0,0,1,0,1.9,7.22,7.22,0,0,0-2.68,1.54,7.37,7.37,0,0,0-1.6,2.73,1,1,0,0,1-1.91,0,7.26,7.26,0,0,0-1.54-2.72,7.45,7.45,0,0,0-2.88-1.55,1,1,0,0,1,0-1.94,7.45,7.45,0,0,0,2.88-1.55A7.33,7.33,0,0,0,101.33,43.66Z"/>
          <path class="cls-3" d="M75,23.53a1,1,0,0,1,1.89,0A5.23,5.23,0,0,0,78,25.24a5.47,5.47,0,0,0,1.69,1.1,1,1,0,0,1,0,1.86A5.19,5.19,0,0,0,78,29.25,5.38,5.38,0,0,0,76.91,31,1,1,0,0,1,75,31,4.26,4.26,0,0,0,72.2,28.2a1,1,0,0,1,0-1.91A5.19,5.19,0,0,0,74,25.24,5.22,5.22,0,0,0,75,23.53Z"/>
          <path class="cls-4" d="M68.08,125.08s-.29-12,.1-14.93c.3-2.27,1.35-5.06,4.66-7.91s5.33-3.49,6.9-5.79,3.31-4.78,5.15-7.26,3.49-5,4.78-6.07a2.54,2.54,0,0,0,.55-3.31c-.46-.64-3.4-1.65-7,.55s-7.08,5.42-9.1,3.4-1.84-8.09-1.65-9.65,2-13.61,2.11-14.62.64-4.87-2.21-4.87-3.13,1.29-3.49,2.85c-.31,1.33-2.81,12.41-3.56,15.71a1,1,0,0,1-1.15.78l-.58-.09a1,1,0,0,1-.87-1V51.22s.09-3.13-2.76-3.13a3.16,3.16,0,0,0-3.31,3.13c0,.57-.72,17.46-.88,21.42a1,1,0,0,1-.87,1c-.36.05-.78.11-1.16.15a1,1,0,0,1-1.11-.94L51.32,54.62s0-2.57-3.4-2.57c-3.12,0-2.45,3.55-2.32,4.15a1,1,0,0,1,0,.17l.8,18.6a1,1,0,0,1-.51.93h0a1,1,0,0,1-1.51-.67l-2.09-9.66S42,62.34,39,63.44c0,0-1.84.18-1.29,4S39.89,81.31,40,82v.07c0,.36.27,3.26.27,4.47s.53,9.29,3.31,13.42c4,5.9,3.16,23.87,3.16,23.87"/>
        </g>
      </g>
    </g>
  </g>
</svg>
