<svg id="ultrasound-hero" data-name="Layer 1" xmlns="http://www.w3.org/2000/svg" xmlns:xlink="http://www.w3.org/1999/xlink" viewBox="0 0 349.44 369.84">
  <defs>
    <style>
      #ultrasound-hero .cls-1 {
        fill: inherit;
        fill-rule: evenodd;
      }
    </style>
    <symbol id="hero-path">
      <path class="cls-1" d="M269,104.64a3.61,3.61,0,0,1,1.92.48l.24,12c2.11,1.17,6.59,4,7.2,6.48.85,3.54-1.65,6.75.24,9.84,3,.11,18.8,1.6,19.68,2.88l.48,4.08-.72.72c-5.37.41-12.43-.17-17.28,1v.24l2.16.48.24,6.24,5.76.72.24.48c-.46,4.65-6.79,20.15-9.6,22.08l-5.52,1.2c-1.91,1.2-1.93,3.77-4.56,4.56-4.59,1.38-12.69.5-17,2.4l-.24,1.2a2.08,2.08,0,0,1,2.16.48c-.59,1.14-1,5.89,0,7,4.29,1.57,20.39-.11,22.32,2.64.8,1.78-.4,5,.48,7.2,1,2.55,1.83,2.37,2.64,6.72l.72.24.72-4.8,1-.48c1.79,1.19,3.44,8.66,2.4,11.52-3.42,9.35-1.92,27-1.92,39.6l.24,16.08c1.23.25,1.46.44,1.92,1.44.83,3-.16,9-1,11.76l-.72.24-1-1-1-4.32h-1.2l.24,5.28c5.12.16,20,1.69,23.76,3.84,2.61,1.51,4.1,4.69,5.76,7.2,1.35,2,3.23,3.62,2.64,7C307.21,301.93,300,303.42,294,305l-.24.48c1.28,3.53,4.5,9,2.4,14.4a10.61,10.61,0,0,1-7.92,6.72l-4.56-.48c-2.36.64-5,3.6-9.12,2.16-2.37-.82-3.35-2.85-5-4.32l-17.28,5.52c-5,1.16-11.38-1.49-15.6-2.4.67,8.89-.31,16.39-8.4,18.24l-4.08-.24c-2.38.7-4.07,3.61-8.64,2.64-10.44-2.22-14.56-16.69-7.92-25.68h-.48l-10.32-1.92L195.6,318l-17.76-3.12-5.28-4.08-8.64-1.68v-2.4c-7.49-.2-12.4,1.71-18.48,3.36,3,6,2.33,16.48-3.6,19-1.79.75-4.06-.08-6.24.72-2.38.87-5.6,3.41-9.6,1.68-5.87-2.54-11.05-14.59-6.24-22.32,1.58-2.54,4.28-2.45,6.48-4.32-5,.13-8.47-.15-10.8-2.64H115L113.52,306c-4.16,1.29-10.57,2.93-16.08,1.44L91,304.8c-6.19-1.21-12.29.63-17-1.2-3.18-7.08,3-20.63.72-26.88v.48c-3.8,5.74-4.19,20.26-13.2,18.72v.72c1.1,2.59,1.94,6.64,1.2,9.6-6.53,4.86-16.39-1.7-18-7.2l-1.2-12.72-3.12-8.16c-.61-3.92,2-7.56,2.88-11l6.72-3.6,2.88-10.08c5.38-15.3,8.52-22.68,21.84-30.24-.42-3-3.55-2.21-4.32-5-1.07-3.94.27-9.44.72-13.2l-2.4-23.52c-1.94-.08-3.25-.29-4.56.24L66.48,168,67,144,71,127.68c.85-4.69-5.2-20.42-6.72-21.36-1.84-.73-4.08-.54-5-2.16-2.07-5.13.78-31.28,2.4-33.84l7.44-6.24L72,47.76c1.18-4.12,3.87-8.39,5.76-12.24-2.07-1.17-2.42-9.3-1.44-13C78.39,14.84,84.79,5.12,96,7.92c9.41,2.35,19,6.44,16.56,18.48-.31,1.53.78,1.78,1,2.64.24,1.13-1.33,4.71-1.44,5l.72,6.48c-.69,3.45-3.35,5.38-4.56,8.4-.71,1.77-.62,3.22-1.44,4.56l-6.24,1v5.76c3.27.72,4.53,3.32,7.2,4.32s5.2,1,7.44,2.4c8.23,5,8.46,15.55,12.24,25.2l3.36,6c.74,2.69.78,5.64,2.16,8.64l2.16,2.16-.24,1.92c.6,1.65,3,3.45,4.08,4.8l1.2,3.12,7.44,9.12c2.59,3.56,3.71,8.42,7.2,11,4.22,3.17,35.15.57,43-.72,9.08-1.5,33.24.65,38.16-4.08-2.09-2.62-12-.93-14.88-2.64-4.56-2.74-7.51-7.12-12.72-9.36l-36.48-11.52c-5.46-1.71-22.6-5.59-25.68-8.64l1.44-4.56,7.2-.24,4.8-3.12,19.68-.24,34.32-.48,7.68,2.4a10,10,0,0,1,.72-6c4.88,0,18.64-1.8,21.36,0,2.21,1.46,1.41,4,2.88,6.24l5,3.84V94.32c4.45-1.23,12.91-2.55,17,0Z"/>
      <path fill="black" d="M122.88,124.32c-2,7.09,2.08,12.58,3.36,17.76,3.78.77,15.37,1.47,19.44-.48-5.7-1.41-14.71-8.23-18-12.24C125.92,127.21,125,125.41,122.88,124.32Z"/>
      <path fill="black" d="M125.52,155.52l.24,11c2.91,0,5.76-.11,6.72-2.16v-4.56l-2.64-.48-1.68-3.84Z"/>
      <path fill="black" d="M234,187.92l-.24-7.92c-4.54,0-10.17-.34-13.2-1.68l-13.2-.48-19.68-.72c-7-1.07-16.88-1.26-23-.24C158,178,151.54,173,151,168l.72-.48,2.64-.48c-.15-.87-.1-.73-.48-1.2l-14.64.72-1.44-3.12-1.92.48c-4.22,2.45-1.08,4.53-9.84,4.56l1.2,10.08-3.6.72c.33,15.87-5.2,34.55-8.64,48.24l-5.52,37.68L103,281.28l-3.6,6,.24,3.84,5.76,7.68c1.73.93,3.31-.14,5.52.72.92.36,1.28,1.23,2.64.72,5.79-11.87,24.1-13.2,37.2-17.76l.24-15.36c.64-2.2,2.8-3.64,4.08-5.28l-.48-52.8c0-6.12-1.45-17.27.72-20.64C181,182.46,206.44,187.7,234,187.92Z"/>
    </symbol>
    <mask id="hero-mask">
      <use xlink:href="#hero-path" fill="white" />
    </mask>
  </defs>
  <image xlink:href="ROOT_URL/wp-content/themes/aray_med/assets/img/page-ultrasound/hero-shadow.png" x="0" y="96" width="349.44" height="459" />
  <image
    class="lazyload"
    mask="url(#hero-mask)"
    data-responsive="page-ultrasound/hero.jpg"
    xlink:href="ROOT_URL/wp-content/themes/aray_med/assets/img/page-ultrasound/hero.jpg"
    x="0"
    y="0"
    width="349.44"
    height="369.84"
  />
</svg>
