<svg version="1.1" xmlns="http://www.w3.org/2000/svg" xmlns:xlink="http://www.w3.org/1999/xlink" x="0px" y="0px" width="41.1px" height="60.3px" viewBox="0 0 41.1 60.3" style="enable-background:new 0 0 41.1 60.3;" xml:space="preserve" id="icon-screen-mount">
	<defs>
		<style type="text/css">
			#icon-screen-mount .st0 {
				fill: none;
				stroke: #FFFFFF;
				stroke-width: 4.0189;
				stroke-linecap: round;
				stroke-miterlimit: 10;
			}
			#icon-screen-mount .st1 {
				fill: none;
				stroke: #FFFFFF;
				stroke-width: 1.2;
				stroke-linecap: round;
				stroke-miterlimit: 10;
			}
			#icon-screen-mount .st2 {
				fill: none;
				stroke-width: 1.2;
				stroke-linecap: round;
				stroke-miterlimit: 10;
			}
			#icon-screen-mount .st3 {
				fill: none;
				stroke-width: 1.0364;
				stroke-linecap: round;
				stroke-miterlimit: 10;
			}
		</style>
	</defs>
	<path class="st0" d="M20.6,27.2"/>
	<path class="st1" d="M25.9,54.9H20L7.7,45.2c0.6-0.6,1-1.3,1-2.2c0-0.7-0.2-1.3-0.6-1.8l12.2-7.9h1c1.3,0,2.3-1,2.3-2.3 c0-0.5-0.1-0.9-0.4-1.2h-5.4c-0.2,0.4-0.4,0.8-0.4,1.2c0,0.2,0,0.4,0.1,0.5l-13,8.4H3.6c-1.7,0-3,1.4-3,3c0,1.7,1.4,3,3,3h0.3 l11.3,8.9H8.9c-1.7,0-3,1.4-3,3v1.7h24.2v-2.1C30.1,55.2,28.2,54.9,25.9,54.9z"/>
	<rect x="1.5" y="0.6" class="st1" width="39" height="28.9"/>
	<rect x="4.1" y="3.3" class="st2 svg-stroke-orange" width="33.9" height="23.4"/>
	<polyline class="st3 svg-stroke-orange" points="22.6,39.7 19.5,42.7 22.6,45.8 	"/>
	<line class="st3 svg-stroke-orange" x1="28.5" y1="42.7" x2="19.5" y2="42.7"/>
</svg>
