<svg version="1.1" xmlns="http://www.w3.org/2000/svg" xmlns:xlink="http://www.w3.org/1999/xlink" x="0px" y="0px" width="58.1px" height="41.5px" viewBox="0 0 58.1 41.5" style="enable-background:new 0 0 58.1 41.5;" xml:space="preserve" id="icon-touch-screen">
	<style type="text/css">
		#icon-touch-screen .st0 {
			fill: none;
			stroke: #FFFFFF;
			stroke-width: 4.0189;
			stroke-linecap: round;
			stroke-miterlimit: 10;
		}
		#icon-touch-screen .st1 {
			fill: none;
			stroke: #FFFFFF;
			stroke-width: 1.2;
			stroke-linecap: round;
			stroke-miterlimit: 10;
		}
		#icon-touch-screen .st2 {
			fill: none;
			stroke-linecap: round;
			stroke-miterlimit: 10;
		}
		#icon-touch-screen .st3 {
			fill: #FFFFFF;
		}
	</style>
	<defs>
	</defs>
	<path class="st0" d="M7.5,40.8"/>
	<path class="st0" d="M50.1,0"/>
	<path class="st1" d="M8.6,39.8"/>
	<path class="st1" d="M48.9,1.1"/>
	<path class="st1" d="M52.6,40.9H5.5c-2.7,0-4.9-2.2-4.9-4.9V5.9C0.6,3.2,2.8,1,5.5,1h47.1c2.7,0,4.9,2.2,4.9,4.9V36
	C57.5,38.7,55.3,40.9,52.6,40.9z"/>
	<rect x="7.6" y="7.6" class="st2 svg-stroke-orange" width="14.8" height="4.4"/>
	<rect x="7.6" y="15.7" class="st2 svg-stroke-orange" width="14.8" height="4.4"/>
	<rect x="7.6" y="23.7" class="st2 svg-stroke-orange" width="14.8" height="4.4"/>
	<ellipse class="st2 svg-stroke-orange" cx="44.9" cy="29.3" rx="6.5" ry="6.5"/>
	<path class="st1" d="M40.7,11.9h8.6c1.2,0,2.1-0.9,2.1-2.1v0c0-1.2-0.9-2.1-2.1-2.1h-8.6c-1.2,0-2.1,0.9-2.1,2.1v0
	C38.6,10.9,39.5,11.9,40.7,11.9z"/>
	<path class="st1" d="M40.7,18.5h8.6c1.2,0,2.1-0.9,2.1-2.1v0c0-1.2-0.9-2.1-2.1-2.1h-8.6c-1.2,0-2.1,0.9-2.1,2.1v0
	C38.6,17.6,39.5,18.5,40.7,18.5z"/>
	<rect x="32.1" y="7" class="st3" width="1.7" height="11.6"/>
	<rect x="28.6" y="7" class="st3" width="1.7" height="11.6"/>
	<rect x="28.5" y="21.6" class="st4 svg-fill-orange" width="5.4" height="1.5"/>
	<rect x="28.5" y="25.5" class="st4 svg-fill-orange" width="5.4" height="1.5"/>
	<rect x="7" y="33.1" class="st3" width="5.4" height="1.8"/>
	<rect x="15.1" y="33.1" class="st3" width="5.4" height="1.8"/>
	<rect x="23.2" y="33.1" class="st3" width="5.4" height="1.8"/>
</svg>
