<svg id="monitor" data-name="Layer 1" xmlns="http://www.w3.org/2000/svg" xmlns:xlink="http://www.w3.org/1999/xlink" viewBox="0 0 1238 1778" preserveAspectRatio="xMinYMax slice">
  <defs>
    <style>
      #monitor .cls-1 {
        fill: inherit;
        fill-rule: evenodd;
      }
    </style>
    <symbol id="monitor-path">
      <path class="cls-1" d="M203,1190l2,44-5,12,145,65,125,57,54,34,41,7a419.48,419.48,0,0,1,62,22l23,14,21-5c12.15,9.6,17.91,12.46,23,30,16.79.39,52.27,11,60,3,17.38-8.24,37.91-41.43,63-35,40.06,10.27,36.86,106.13,44,152l1,53-2,3H833l1,11c62,15.48,81.51-3.89,115,46,59.42,2.06,123.78,8,179,18,28.57,5.15,55.27-3,75,9,14.57,8.88,25,32.43,34,47v1H7v-1c3.09-7.53,18.48-40.18,24-44,20.33-14.06,134.41-24.6,171-25,5.74-60.88,77.28-47.1,132-57v-6c-12.41.34-29.15,1.37-37-3l6-126c3.46-22.92-1.25-45.75,7-63,3.64-7.62,18-17.34,32-14,29.64,7.09,45.73,38.65,73,50l-30-25-62-52-83-36-43-20-57,6c-41.76,6.88-108.41,2.24-133-15-.33-69.65-4.87-129.68-5-201,0-17.61-5.77-69.15,1-80,10.31-16.54,31.28-11.33,53-17-.2-246.29,4-491.73,4-741V104c0-28-5.19-68.4,5-86C76.9-2.55,104.57,1,137,1h973c23.82,0,54.17-3.24,68,7,18.87,14,15,45.62,15,78l1,188,3,673c0,75.75,27.05,202.31-21,236-19.89,13.95-55.32,12-89,12l-181-2-435-5-84-1C332.37,1178.48,252.51,1186.36,203,1190Z"/>
      <path fill="black" d="M712,1052c.26,26.78,3.3,62.25-3,84l165,1c26.34,0,54.88,2.17,65-14,11.5-18.36,12-76.42-5-88-13.25-9-45.86-5-67-5-16.74,0-39.87-4.51-51,3C806.21,1064.45,749.5,1052.73,712,1052Z"/>
    </symbol>
    <mask id="monitor__mask">
      <use xlink:href="#monitor-path" fill="white" />
    </mask>
  </defs>
  <image
    class="lazyload"
    mask="url(#monitor__mask)"
    data-responsive="page-ultrasound/monitor.jpg"
    xlink:href="ROOT_URL/wp-content/themes/aray_med/assets/img/page-ultrasound/monitor.jpg"
    x="0"
    y="0"
    width="1238"
    height="1778"
    />
</svg>
