<svg id="tech-breakthrough" data-name="Layer 1" xmlns="http://www.w3.org/2000/svg" xmlns:xlink="http://www.w3.org/1999/xlink" viewBox="0 0 916.08 1512.72">
  <defs>
    <style>
      #tech-breakthrough .cls-1 {
        fill: inherit;
        fill-rule: evenodd;
      }
    </style>
    <symbol id="tech-breakthrough-path">
      <path class="cls-1" d="M581.28,565.92c12.23-.17,37.6,5.26,40.8,13.2,2,5-.26,13.17.72,18.24l13,5.52c9.52,4.05,20.64,7.63,18.24,22.56l-.24,8.88-2.64,3.36c-.7,1.95.25,4.23-1,6l-4.08,3.12-2.16,4.8c-4.33,5.67-8.4,11.61-13.2,16.8-1.2,1.3-3.88,1.34-5,2.64l-1.44,3.12L620.88,677l-.72,4.08-11.28,12.72-5.28,1c-1.32,6.17-13.85,21.84-19,24.24-3,1.42-9.41.37-13,.24L562.8,726l-2.64-.24-26.88,20.88c6.36,1.83,31.14,13.4,33.84,17.76,2,3.31.53,8.87,1.68,13.44,8.48,1.68,16.67,7.46,24.24,10.8,18.69,8.24,47.92,21.74,55.2,40.56,2.42,6.26,1.2,16.25,1.2,24.24v217.92c4.62.84,3.3,12.86,9.12,16.32,17.7,10.5,34.41,21.52,50.88,33.12,4,2.8,15.23,8.94,16.8,13.2l1.44,40.08c.55,3.51-1,12.94.72,14.88l14.4,2.64,39.6,6c6.86,1.3,13.27,1.14,19,3.36,8.29,3.23,14.4,8.88,21.12,13.68,7.83,5.59,17.26,10.63,22.32,19l4.56,11.76c3.68,9.29,6.89,19,10.32,28.8,3.64,10.35,13.24,27.28,5,38.64-4.87,6.75-14.66,6.72-24.72,8.4-4.16.7-8.49,0-11.76,1.2,6.67,17.66,13.53,63.88,5.28,85.2-1.65,4.26-4,10-8.16,11.76-5.08,2.14-18.17,2.43-19.92-2.4-8.91-.26-20.12-.49-26.4,3.12l-3.36,3.12c-3.64,2-12.53,3.18-17.28,1.44-7-2.55-10.21-12-12.72-19.2-7.16-20.44-10.11-51.18-6.24-76.8l-12.24.48c-5.13,1-12.87,3.42-19.44,2.16-2.12-.41-3.9-1.89-5.52-2.4L643,1334.4l-26.64,2.16-84.48,8.88-45.84,5c-6,1-13.11.94-15.6-2.88-2.21-3.38-.25-11.49.48-14.88-1.56-.07-4-.06-4.8.72l-1.44,8.16a22,22,0,0,1-8.64,12c-6.75,4.39-16.47,3.59-26.16,5.28L377,1365.6v.24l3.84,17.52c3.93,16.94,6.73,42.62,3.12,62.64-1.4,7.74-1.68,15.91-6.48,20.16-2.82,2.49-11.18,2.71-15.84,1.68l-.72-1.2-.24-1.44c-11.39-.34-23.1-.71-32.4,2.4-2.43.81-3,3.4-5,4.56-2.48,1.41-11.52,2.68-14.88,1.44-6.42-2.38-9-13.25-11-20.16-3.05-10.25-4.7-22.62-6.72-34.08l-.72-12.48c-.83-5.29-1.4-13-.48-18.72,1.48-9.27-.27-18.42,2.88-25.44-2.6-3.06-4.16-8.05-5.28-12.48l-1-5.52-7.2-7.68L263,1317.6c-6.31,2.29-9.63-4.07-9.6-9.84-6.29-.11-12.37,0-16.8,1.68-.16,5.27-1.17,9.95-5.76,11-.61,10.53-19.53,12.41-22.56,5.52-3.59-8.17-3.78-17.61-5.52-27.84-3.48-20.43-2.49-45.95-.48-66.72-14.42-1.94-22.31-15.47-29.76-24.72-5.65-7-12.93-9.19-14.64-20.88-3.42-.5-6.75-2.83-7.92-5.52-3.17-7.27,4.53-31.19,8.64-33.36,2.58-1.36,6.29-.83,9.6-1.44l29.76-3.84,91-11.76.72-19.92c2.45-7,11.22-12.92,17.28-16.56L305,1009.2l.24-218.64L270,787.44l-27.84-2.88c-16-2.71-22.73.63-31.2-10.08-2.63-3.33-13.73-16.59-11.28-22.8,1.11-2.81,4.16-3.91,6-6L151,743.28c-7.58,16.12-8.23,17.87-27.6,22.32-4,.92-9.89,2.56-14.4,1.2-4.12-1.24-5.19-4.23-7.92-5.76l-3.6-.72c-5.23-2.09-12.59-8.37-13-15.12,7-9.83,17,3.38,21.84,7.44,11.17-2,20.85-1.75,25.2-10.56v-.24c-26.49.26-61.94-3-61.68-29-3.56.05-8.17.38-10.56-1-4.51-2.53-2.74-7.42-4.56-12.72-2.28-6.66-14.76-19.29.24-23,0-6.8-1-14.55,3.12-17.28l3.6-1.2c2.31-2.55,1.23-5.46,5.28-7.92L72.48,648c1.07-.85,1.21-3,2.4-3.84L80.4,642c4-2.09,4.62-5.46,11-6.48.42-3.26,3.39-7.28,6-8.4,1.45-.62,3.72-.44,4.8-1.44l2.88-4.08c-2-5-1.75-13.77,1.68-16.56l4.56-2.64c10.87-12.5,28.4-13.6,49-16.8l22.32-1,6.24-5,19.2-13.92c4.46-3.27,8.63-7.42,14.4-9.36,6.24-2.1,23-2.12,30.72-1l18,.48L347.28,553c-.11-7.83,4-8.33,6-13.2,3.79-9.24-2.09-21,6.48-26.64,3.58-2.36,10.13-3.22,14.88-4.08,3.68-.67,4.57,1,6.72-.48v-.72c-6.78-4.83-13.47-11.18-22.8-13.44L281,491.52c-21.79-3.29-40.71,4.44-48.48-13.68-4.23-9.86-.7-24.77,1.2-35.52,2.17-12.3.89-25,2.88-38.16l.24-15.84,1.44-217.68.48-70.56c1.61-10.65-1.52-20.23,3.6-26.64,3.92-4.91,15.52-3.6,24.24-3.6h65l205.68.24h59.52c8.85,0,21-1.4,27.6,1.44a14.89,14.89,0,0,1,8.16,9.84c1.15,4.19.29,10.32.24,14.88l-.48,35.28-.24,16.56V164.4l-4.32,233.76-.24,19.68-2.88,42.72c-1.52,9.9-.44,18.85-4.56,25.68-7.58,12.57-24.72,19.39-46.56,16.08l-11.52-.24L432,497.28l.48.72c5.54,1.85,14,1.92,20.64,3.36a146.26,146.26,0,0,1,26.4,8.4c5.91,2.54,12.86,3.51,12.72,12.24,5.74-.88,20.79-7.39,25.2-2.4,1.43,1.62,1.22,4,2.16,6.24l.48-.48,9.6-7c6.69-4.05,19.38-7.22,24.48-.24,2,2.68,1.25,6.12,1.92,10.32L556.8,539c5.47.67,20.72,2.41,23,5.76C581.77,547.59,581.36,561.15,581.28,565.92Z"/>
      <path fill="black" d="M324.72,440.16c-1,1.37-2.53,3.25-2.16,5.28l68.16,31,22.8.72,28.56,1v-.24l-7.68-5.52Z"/>
      <path fill="black" d="M508.32,442.32,507.84,461c-.73,4.86.54,10.71-.48,14.88l-7.68,4.32c10.67.48,25.87,2.48,31-4.08,3.29-4.24,8.4-26.37,2.4-31.2C528.32,441.15,516.69,442.21,508.32,442.32Z"/>
    </symbol>
    <mask id="tech-breakthrough__mask">
      <use xlink:href="#tech-breakthrough-path" fill="white" />
    </mask>
  </defs>
  <image xlink:href="ROOT_URL/wp-content/themes/aray_med/assets/img/page-ultrasound/tech-breakthrough-shadow.png" x="0" y="1215.72" width="916.08" height="357" />
  <image
    class="lazyload"
    mask="url(#tech-breakthrough__mask)"
    data-responsive="page-ultrasound/tech-breakthrough.jpg"
    xlink:href="ROOT_URL/wp-content/themes/aray_med/assets/img/page-ultrasound/tech-breakthrough.jpg"
    x="0"
    y="0"
    width="916.08"
    height="1512.72"
    />
</svg>
