<svg id="icon__image_quality" xmlns="http://www.w3.org/2000/svg" viewBox="0 0 195.87 195.87">
  <defs>
    <style>
      #icon__image_quality .cls-1 {
        fill: #2a275b;
        stroke: #fff;
        stroke-linecap: round;
        stroke-width: 3px;
      }

      #icon__image_quality .cls-1,
      #icon__image_quality .cls-4 {
        stroke-miterlimit: 10;
      }

      #icon__image_quality .cls-2,
      #icon__image_quality .cls-3 {
        fill: #fff;
      }

      #icon__image_quality .cls-2 {
        opacity: 0.3;
      }

      #icon__image_quality .cls-3 {
        opacity: 0.6;
      }

      #icon__image_quality .cls-4 {
        fill: none;
        stroke: #ef7622;
        stroke-width: 2.88px;
      }

      #icon__image_quality .cls-5 {
        fill: #ef7622;
      }
    </style>
  </defs>
  <circle class="cls-1" cx="97.94" cy="97.94" r="96.44"/>
  <path class="cls-2" d="M153.71,63,88.38,35.55a8.17,8.17,0,0,0-10.7,4.37L74.7,47,141.78,61.7a12.32,12.32,0,0,1,9.41,14.67L144.93,105l13.16-31.35A8.17,8.17,0,0,0,153.71,63Z"/>
  <path class="cls-3" d="M140.9,65.76,71.68,50.62a8.17,8.17,0,0,0-9.73,6.24L59.49,68.09h66.6a12.34,12.34,0,0,1,12.32,12.32v34.95l8.72-39.88A8.17,8.17,0,0,0,140.9,65.76Z"/>
  <path class="cls-4" d="M124.65,73.7h-68a7.84,7.84,0,0,0-7.84,7.85v55.38a7.85,7.85,0,0,0,7.84,7.86h68a7.85,7.85,0,0,0,7.84-7.86V81.55A7.84,7.84,0,0,0,124.65,73.7Z"/>
  <path class="cls-5" d="M102.65,133.22a1.34,1.34,0,0,1-1.34-1.34,4.46,4.46,0,1,0-8.91,0,1.34,1.34,0,0,1-1.34,1.34h-.19a1.35,1.35,0,0,1-1.4-1.33,4.46,4.46,0,1,0-8.91,0,1.34,1.34,0,0,1-2.67,0A7.14,7.14,0,0,1,85,124.76a7.06,7.06,0,0,1,2.56.48l1.36.53V114.69H73.69a1.34,1.34,0,0,1,0-2.67H88.94v-7.37H68.08a1.34,1.34,0,1,1,0-2.67H88.94V94.6H73.69a1.34,1.34,0,0,1,0-2.67H88.94V85.71a1.34,1.34,0,1,1,2.67,0v6.22h15.25a1.34,1.34,0,0,1,0,2.67H91.61V102h20.85a1.34,1.34,0,0,1,0,2.67H91.61V112h15.25a1.34,1.34,0,0,1,0,2.67H91.61v12.06l1.52-.94A7.12,7.12,0,0,1,104,131.88,1.34,1.34,0,0,1,102.65,133.22Z"/>
</svg>
