<svg id="ge" xmlns="http://www.w3.org/2000/svg" viewBox="0 0 1266 490">
  <title>ge</title>
  <g id="Layer_2" data-name="Layer 2">
    <g id="svg2">
      <g id="g10">
        <g id="g12">
          <path id="path16" d="M300,181.21c0-27.86,18.86-54.88,29.15-49.79,11.73,5.88-8.79,32.12-29.15,49.79M171.71,191.36c0-22.4,22.1-65,35.6-60.46,16,5.32-13.22,48.25-35.6,60.46M149.3,351.56c-10.16.46-17-6-17-16.89,0-29.15,40.45-57,71-72-5.42,40.7-19.17,87.27-54,88.84m186.62-95c-23.07,0-40.7,17-40.7,37.32,0,17,10.2,30.54,23.73,30.54,4.79,0,9.53-2.73,9.53-8.79,0-8.87-11.7-11-10.82-24.19.59-8.7,8.79-14.52,16.93-14.52,16.27,0,23.88,15.77,23.88,32-.66,25.13-19.16,42.58-40.84,42.58-28.52,0-46.84-27.12-46.84-56.31,0-43.46,28.52-60.42,43.46-64.47.14,0,39,6.91,37.81-10.23-.56-7.54-11.77-10.44-19.87-10.75-9-.35-18.11,2.89-18.11,2.89-4.72-2.4-8-7.09-10-12.49,27.83-21.06,47.51-41.4,47.51-64.48,0-12.21-8.16-23.07-23.77-23.07-27.83,0-48.87,35.29-48.87,67.19,0,5.41,0,10.86,1.4,15.6-17.66,12.88-30.79,20.91-54.52,35.16A121.11,121.11,0,0,1,228.42,210c8.13-8.83,19.3-22.06,19.3-32.25,0-4.74-2.69-8.83-8.17-8.83-13.55,0-23.71,20.38-26.43,34.63-6.11,7.5-18.33,17-28.53,17-8.13,0-10.86-7.47-11.55-10.2,25.8-8.83,57.7-44.12,57.7-76,0-6.77-2.72-21.72-23.07-21.72-30.54,0-56.3,45.49-56.3,80.74-10.89,0-14.94-11.52-14.94-20.35s3.39-17.63,3.39-20.36-1.36-6.1-5.45-6.1c-10.16,0-16.27,13.57-16.27,29.18.7,21.72,14.94,35.33,33.93,36.66,2.72,12.91,14.24,25.13,28.48,25.13,8.84,0,19.69-2.72,27.16-9.49-.66,4.74-1.32,8.83-2,12.88-29.88,15.64-51.6,26.49-71.28,44.13C118.8,299.33,110,318.32,110,333.23c0,20.39,12.88,39.38,39.34,39.38,31.2,0,55-25.1,66.53-59.73,5.41-16.27,7.58-40,9-61.72,31.18-17.67,46-27.85,62.28-39.41a27.29,27.29,0,0,0,6.77,8.13c-14.24,7.47-48.17,28.52-48.17,78.05,0,35.29,23.73,74.67,70.59,74.67,38.68,0,65.14-31.91,65.14-62.46,0-27.8-15.62-53.57-45.5-53.57m116.69,58.3c-.1.21-.48.49-1.25.24-.6-.21-.73-.49-.73-.88s8.2-24.54,8.13-52.22c-.07-29.92-12.21-48.25-27.78-48.25-9.53,0-16.31,6.81-16.31,17,0,18.32,22.38,19.69,22.38,59.72,0,16.27-3.39,31.88-8.79,48.84C403.12,424.15,323,463.53,245,463.53c-36,0-61.55-7.4-69.15-10.81a1.14,1.14,0,0,1-.35-1.37c.17-.45.7-.8,1-.66,3.08,1.19,25,8.1,52.19,8.1,29.85,0,47.51-12.21,47.51-27.16a16.8,16.8,0,0,0-17-17c-18.33,0-19.72,23.07-59.07,23.07-17,0-31.9-3.39-49.53-8.84C66.5,403.12,26.43,323.74,26.46,245c0-38.36,10.79-68.91,11-69.19a1.07,1.07,0,0,1,1.21-.2.91.91,0,0,1,.7.87,179.62,179.62,0,0,0-8.1,52.23c0,29.88,12.21,47.51,27.82,47.51A16.06,16.06,0,0,0,75.32,260c0-18.35-22.41-20.38-22.41-59.75,0-17,3.42-31.91,8.83-49.54C87.54,66.52,167,27.08,245,26.47,281.28,26.19,313,37,314.23,38a1.08,1.08,0,0,1,.21,1.19c-.29.66-.71.73-.91.69-.38,0-21-8.66-52.26-8.66-29.18,0-47.51,12.19-47.51,27.82,0,8.8,6.81,16.27,17,16.27C249,75.33,250.41,53,289.79,53c16.92,0,31.87,3.35,49.5,8.8C424.15,87.54,462.76,167.62,463.49,245c.4,39.63-10.77,69.61-10.88,69.86M245,11.55C116.07,11.55,11.56,116,11.56,245S116.07,478.44,245,478.44,478.45,374,478.45,245C478.45,116.73,373.94,11.55,245,11.55M245,490C110,490,0,380.74,0,245,0,109.92,110,0,245,0S490,109.92,490,245c0,135.72-110,245-245,245"/>
        </g>
      </g>
      <g>
        <path d="M697.43,192.74q0,7.94-4.12,12.11t-16.13,8.41A81.42,81.42,0,0,1,650,217.48q-29.87,0-47.25-20.1t-17.39-53.83q0-23.08,8.61-40.2A61.79,61.79,0,0,1,618.39,77a65.52,65.52,0,0,1,33.52-9.19,71.17,71.17,0,0,1,18.48,2.3,60.1,60.1,0,0,1,15.3,6.32q6.74,4,7.88,5.69a6.33,6.33,0,0,1,1.15,3.65,7,7,0,0,1-2,4.75A6.13,6.13,0,0,1,688,92.81a5.29,5.29,0,0,1-2.82-.84q-1.36-.83-2.92-1.88a53.58,53.58,0,0,0-30.8-9.61q-22.76,0-37.7,17t-14.93,46.1q0,27.88,13.89,44.64T650.65,205a64.71,64.71,0,0,0,20.57-3.13q9.4-3.13,11.07-4.75t1.67-6.32V152.54H651.7q-6.58,0-6.58-6.68t6.58-6.58h39.37q6.37,0,6.37,6.58Z"/>
        <path d="M736.59,165q0,17.44,10,28.72T772.09,205a44.26,44.26,0,0,0,13.37-2.14,46.6,46.6,0,0,0,11.7-5.38q3.34-2.19,4.91-2.19a5.2,5.2,0,0,1,4.23,2.19,7.47,7.47,0,0,1,1.72,4.7q0,4.7-11.23,10a57.37,57.37,0,0,1-24.9,5.33q-22.45,0-35.61-15.14t-13.16-40.41q0-25.06,12.95-41.4t35.19-16.34q19.63,0,30.86,13.21t11.23,35.35q0,6-2.66,9.08a9.14,9.14,0,0,1-7.36,3.13Zm63.49-12.43q0-15.87-7.78-25.79t-21.46-9.92q-14.31,0-23.49,9.76T737,152.54Z"/>
        <path d="M923.29,209.44q0,6.58-6.47,6.58-6.79,0-6.79-6.58V146.58q0-14.51-6.58-22.14t-19.32-7.62q-14.41,0-23.55,10.23t-9.14,27.78v54.61q0,6.58-6.68,6.58t-6.58-6.58V112.33q0-6.68,6.58-6.68t6.68,6.68v11.28a36.74,36.74,0,0,1,14.15-14.2,40,40,0,0,1,20.21-5.22q18.27,0,27.88,10.39t9.61,28.35Z"/>
        <path d="M961.72,165q0,17.44,10,28.72T997.22,205a44.26,44.26,0,0,0,13.37-2.14,46.6,46.6,0,0,0,11.7-5.38q3.34-2.19,4.91-2.19a5.2,5.2,0,0,1,4.23,2.19,7.47,7.47,0,0,1,1.72,4.7q0,4.7-11.23,10a57.37,57.37,0,0,1-24.9,5.33q-22.45,0-35.61-15.14t-13.16-40.41q0-25.06,12.95-41.4t35.19-16.34q19.63,0,30.86,13.21t11.23,35.35q0,6-2.66,9.08a9.14,9.14,0,0,1-7.36,3.13Zm63.49-12.43q0-15.87-7.78-25.79T996,116.82q-14.31,0-23.49,9.76t-10.34,25.95Z"/>
        <path d="M1076.58,119.54a29.28,29.28,0,0,1,10.7-11.49,29.89,29.89,0,0,1,15.51-3.86q7.83,0,11.64,2.14t3.81,5.38a9.19,9.19,0,0,1-1.2,4.75,3.83,3.83,0,0,1-3.5,2,10.5,10.5,0,0,1-3.24-.63,27.33,27.33,0,0,0-7.73-1q-11.8,0-18.9,8.35t-7.1,22v62.23q0,6.58-6.68,6.58t-6.58-6.58V112.12q0-6.47,6.58-6.47t6.68,6.47Z"/>
        <path d="M1221.1,209.44q0,6.58-6.68,6.58t-6.58-6.58V199.11a36.62,36.62,0,0,1-13.68,13.78,39.07,39.07,0,0,1-19.32,4.59q-21.09,0-33-15.56t-11.9-41.25q0-25.27,12.16-40.88t34.3-15.61a38.11,38.11,0,0,1,18.38,4.23,34.73,34.73,0,0,1,13.05,12.69v-9q0-6.47,6.58-6.47t6.68,6.47Zm-13.26-59.1q0-14.83-8.77-24.17t-22.24-9.35q-15.87,0-24.75,12.43t-8.88,31.43q0,20.57,8.46,32.42T1176.83,205q13.68,0,22.35-9.35t8.67-24.07Z"/>
        <path d="M1266,209.65q0,6.37-6.68,6.37t-6.58-6.37V61.38q0-6.37,6.58-6.37t6.68,6.37Z"/>
        <path d="M608.47,347H661.3q6.68,0,6.68,6.79,0,6.37-6.68,6.37H608.47v52.63q0,3.24,2.82,3.24H668.2q6.79,0,6.79,6.37,0,6.89-6.79,6.89H609.41q-6.79,0-10.6-3.65T595,415.15V300.08q0-7.2,3.71-11.75t12-4.54H668.2q6.79,0,6.79,6.68t-6.79,6.58H612.12a3.38,3.38,0,0,0-2.61,1.15,4.18,4.18,0,0,0-1,2.92Z"/>
        <path d="M712.68,423.51q0,6.37-6.68,6.37t-6.58-6.37V275.23q0-6.37,6.58-6.37t6.68,6.37Z"/>
        <path d="M751.52,378.81q0,17.44,10,28.72T787,418.81a44.25,44.25,0,0,0,13.37-2.14,46.59,46.59,0,0,0,11.7-5.38q3.34-2.19,4.91-2.19a5.2,5.2,0,0,1,4.23,2.19,7.47,7.47,0,0,1,1.72,4.7q0,4.7-11.23,10a57.37,57.37,0,0,1-24.9,5.33q-22.45,0-35.61-15.14t-13.16-40.41q0-25.06,12.95-41.4T786.19,318q19.63,0,30.86,13.21t11.23,35.35q0,6-2.66,9.08a9.14,9.14,0,0,1-7.36,3.13ZM815,366.39q0-15.87-7.78-25.79t-21.46-9.92q-14.31,0-23.49,9.76t-10.34,25.95Z"/>
        <path d="M931.75,335.37a6.48,6.48,0,0,1-1.88,4.59,6,6,0,0,1-4.49,2q-1.88,0-5.85-2.92a43.71,43.71,0,0,0-12.32-6.68,38.52,38.52,0,0,0-11.38-1.67q-16,0-25.84,11.9t-9.87,32.16q0,20.26,9.55,32.16t25.53,11.9q12.95,0,24.64-9,4-3,6-3a5.39,5.39,0,0,1,4.44,2.19,7.34,7.34,0,0,1,1.72,4.59q0,5-11.59,11.38a52.23,52.23,0,0,1-25.58,6.37q-21.61,0-34.77-15.51t-13.16-41.09q0-25.58,13.94-41.14T896.25,318q14.72,0,25.11,6.16T931.75,335.37Z"/>
        <path d="M975.4,332.35v68.08q0,9.19,3.13,13.78t9.5,4.59a16.93,16.93,0,0,0,4.28-.47,40.81,40.81,0,0,0,6-2.45,6.25,6.25,0,0,1,2.4-.52,4.8,4.8,0,0,1,3.71,1.88,6.38,6.38,0,0,1,1.62,4.28q0,3.76-5.53,6.79a26.35,26.35,0,0,1-12.84,3q-13.58,0-19.53-7.41t-6-22.45V332.35h-12q-6.58,0-6.58-6,0-6.16,6.58-6.16h12V295.17q0-6.47,6.58-6.47t6.68,6.47v25.06h18.17q6.58,0,6.58,6.16,0,6-6.58,6Z"/>
        <path d="M1037.22,333.39a29.28,29.28,0,0,1,10.7-11.49,29.89,29.89,0,0,1,15.51-3.86q7.83,0,11.64,2.14t3.81,5.38a9.19,9.19,0,0,1-1.2,4.75,3.83,3.83,0,0,1-3.5,2,10.5,10.5,0,0,1-3.24-.63,27.33,27.33,0,0,0-7.73-1q-11.8,0-18.9,8.35t-7.1,22V423.3q0,6.58-6.68,6.58T1024,423.3V326q0-6.47,6.58-6.47t6.68,6.47Z"/>
        <path d="M1103.42,293.19a8.29,8.29,0,0,1-6.37-2.71,9,9,0,0,1-2.51-6.27,8.72,8.72,0,0,1,2.61-6.32,8.46,8.46,0,0,1,6.27-2.66,8.81,8.81,0,0,1,6.32,2.56,8.54,8.54,0,0,1,2.66,6.42,8.67,8.67,0,0,1-2.56,6.47A8.81,8.81,0,0,1,1103.42,293.19Zm6.68,130.11q0,6.58-6.89,6.58-6.37,0-6.37-6.58V326q0-6.47,6.58-6.47t6.68,6.47Z"/>
        <path d="M1220.37,335.37a6.48,6.48,0,0,1-1.88,4.59,6,6,0,0,1-4.49,2q-1.88,0-5.85-2.92a43.71,43.71,0,0,0-12.32-6.68,38.52,38.52,0,0,0-11.38-1.67q-16,0-25.84,11.9t-9.87,32.16q0,20.26,9.55,32.16t25.53,11.9q12.95,0,24.64-9,4-3,6-3a5.39,5.39,0,0,1,4.44,2.19,7.34,7.34,0,0,1,1.72,4.59q0,5-11.59,11.38a52.23,52.23,0,0,1-25.58,6.37q-21.61,0-34.77-15.51t-13.16-41.09q0-25.58,13.94-41.14T1184.87,318q14.72,0,25.11,6.16T1220.37,335.37Z"/>
      </g>
    </g>
  </g>
</svg>
