<svg id="integrate" xmlns="http://www.w3.org/2000/svg" xmlns:xlink="http://www.w3.org/1999/xlink" viewBox="0 0 162.42 162.42">
  <defs>
    <style>
      #integrate .cls-1,
      #integrate .cls-2,
      #integrate .cls-4,
      #integrate .cls-5 {
        fill: none;
      }

      #integrate .cls-2,
      #integrate .cls-4 {
        stroke: #f3f3f3;
      }

      #integrate .cls-2,
      #integrate .cls-4,
      #integrate .cls-5 {
        stroke-miterlimit: 10;
      }

      #integrate .cls-2 {
        stroke-width: 2.29px;
      }

      #integrate .cls-3 {
        clip-path: url(#integrate-clip-path);
      }

      #integrate .cls-4 {
        stroke-width: 2.01px;
      }

      #integrate .cls-5 {
        stroke: #ef7622;
        stroke-width: 2.2px;
      }
    </style>
    <clipPath id="integrate-clip-path">
      <polygon class="cls-1" points="44.34 138.93 141.66 138.93 141.66 24.45 44.34 24.45 98.83 82.24 44.34 138.93"/>
    </clipPath>
  </defs>
  <title>integrate</title>
  <g id="Layer_2" data-name="Layer 2">
    <g id="Guides">
      <circle class="cls-2" cx="81.21" cy="81.21" r="80.06"/>
      <g>
        <g class="cls-3">
          <path class="cls-4" d="M123.52,75.72l-5.76-.9a30.36,30.36,0,0,0-3.86-9.29l3.45-4.72a1.05,1.05,0,0,0,.08-1.32l-7.21-7.21a1.05,1.05,0,0,0-1.32.08l-4.72,3.45a30.36,30.36,0,0,0-9.29-3.86L94,46.18c-.09-.56-.47-1-.88-1H82.91c-.41,0-.79.42-.88,1l-.9,5.76a30.36,30.36,0,0,0-9.29,3.86l-4.72-3.45a1.05,1.05,0,0,0-1.32-.08l-7.21,7.21a1.05,1.05,0,0,0,.08,1.32l3.45,4.72a30.36,30.36,0,0,0-3.86,9.29l-5.76.9c-.56.09-1,.47-1,.88v10.2c0,.41.42.79,1,.88l5.76.9a30.36,30.36,0,0,0,3.86,9.29l-3.45,4.72a1.05,1.05,0,0,0-.08,1.32l7.21,7.21a1.05,1.05,0,0,0,1.32-.08l4.72-3.44a30.36,30.36,0,0,0,9.29,3.86l.9,5.76c.09.56.47,1,.88,1h10.2c.41,0,.79-.42.88-1l.9-5.76a30.36,30.36,0,0,0,9.3-3.86L108.9,111a1.05,1.05,0,0,0,1.32.08l7.21-7.21a1.05,1.05,0,0,0-.08-1.32l-3.45-4.72a30.36,30.36,0,0,0,3.86-9.29l5.76-.9c.56-.09,1-.47,1-.88V76.59C124.51,76.18,124.09,75.8,123.52,75.72ZM88,103.34a21.65,21.65,0,1,1,21.65-21.65A21.67,21.67,0,0,1,88,103.34Z"/>
        </g>
        <path class="cls-5" d="M64.76,55.37a6,6,0,1,0-8.48,8.49L68.67,76.24H31.38a6,6,0,0,0,0,12H68.67L56.28,100.63a6,6,0,1,0,8.48,8.49L91.64,82.24Z"/>
      </g>
    </g>
  </g>
</svg>
