<svg id="shimadzu" xmlns="http://www.w3.org/2000/svg" viewBox="0 0 369.52 48.74">
  <title>shimadzu</title>
  <g id="Layer_2" data-name="Layer 2">
    <g id="Guides">
      <g id="aHo0K7.tif">
        <g>
          <path class="cls-1" d="M48.72,24.49c0,7.66,0,15.32,0,23,0,.93-.14,1.27-1.2,1.27q-23.15-.06-46.3,0c-1,0-1.25-.19-1.24-1.21Q.06,24.37,0,1.22C0,.22.27,0,1.25,0Q24.34.05,47.44,0c1,0,1.31.24,1.31,1.29C48.69,9,48.72,16.76,48.72,24.49Zm-3.36-.08a21,21,0,0,0-42-.64,21,21,0,1,0,42,.64Z"/>
          <path class="cls-1" d="M81.69,28A38.27,38.27,0,0,1,69,26.66a17.56,17.56,0,0,1-3.09-1.31c-5.84-3.13-4.79-9.72-1.11-12.89,2.76-2.38,6.1-3.39,9.59-4.08,8.64-1.7,16.54.57,24.14,4.48.77.39,1.51.84,2.28,1.21.54.26.65.49.19,1-1.38,1.43-2.74,2.88-4.06,4.37-.43.49-.74.27-1.15.07a48.82,48.82,0,0,0-9.71-3.74,24.49,24.49,0,0,0-12.23-.09A5.1,5.1,0,0,0,71,17.31c-1,1.23-.74,2.25.71,2.84a13.74,13.74,0,0,0,5,.84c3.71.09,7.42.11,11.13.23,2,.07,4,.21,6.06.45a8.78,8.78,0,0,1,7.45,7.25c.34,3-1,5.4-3.1,7.39-2.83,2.68-6.38,3.8-10.1,4.54-7.53,1.5-14.58,0-21.35-3.36q-2.52-1.24-5-2.64c-.68-.39-.82-.65-.23-1.28,1.23-1.32,2.38-2.7,3.54-4.08a.85.85,0,0,1,1.28-.26c4.21,2.12,8.46,4.23,13.19,4.89a24.78,24.78,0,0,0,10.79-.93,5,5,0,0,0,2.22-1.28c1.09-1.14.89-2.32-.54-3A12.72,12.72,0,0,0,87.2,28C85.37,27.95,83.53,28,81.69,28Z"/>
          <path class="cls-1" d="M196.1,22.24,184,41.1l-12.2-18.67c-.38.28-.21.64-.21.94,0,5.14-.09,10.28-.08,15.42,0,.79-.19,1-1,1-2-.06-4,0-6,0-.63,0-.83-.14-.83-.79q0-14.58,0-29.17c0-.61.13-.85.79-.84,2.1,0,4.2,0,6.31,0a1.19,1.19,0,0,1,1.15.67q5.71,8.82,11.46,17.62l.57.85,3.74-5.81c2.67-4.16,5.35-8.31,8-12.49A1.55,1.55,0,0,1,197.34,9c2,.06,4.05,0,6.08,0,.58,0,.76.15.76.74q0,14.64,0,29.28c0,.7-.27.77-.85.76-2,0-4.06,0-6.08,0-.78,0-.93-.25-.93-1,0-5.14,0-10.29,0-15.43q0-.55,0-1.1Z"/>
          <path class="cls-1" d="M269.37,39.77c-4.73,0-9.45,0-14.18,0-.89,0-1.21-.16-1.21-1.14q.06-14.24,0-28.48c0-.92.22-1.2,1.16-1.19,7.73,0,15.46.06,23.18,0a11.12,11.12,0,0,1,9.07,4.15,24.23,24.23,0,0,1,5.78,15.46,11.77,11.77,0,0,1-7.85,10.88,7,7,0,0,1-2.33.31Zm2.58-7.28c3.12,0,6.23,0,9.35,0a3.16,3.16,0,0,0,3.26-2.93,19.38,19.38,0,0,0-.51-6.9c-.76-3.13-4.67-6.61-8.15-6.42-4.38.25-8.78.08-13.17,0-.8,0-.9.3-.89,1,0,4.77,0,9.53,0,14.3,0,.83.26,1,1,1C265.86,32.46,268.9,32.49,271.94,32.49Z"/>
          <path class="cls-1" d="M307.5,32.4a2,2,0,0,0,1.18.16c7.17,0,14.34,0,21.51,0,.88,0,1.06.25,1,1.07-.06,1.84,0,3.68,0,5.52,0,.46,0,.73-.64.73q-9.85-.08-19.71-.09c-5,0-10,0-15,0-.86,0-1.07-.22-1-1.06.07-1.76.06-3.53,0-5.29a1.72,1.72,0,0,1,.79-1.6q7.51-5.65,15-11.33l5.57-4.22h-1.44c-5.78,0-11.56,0-17.34.07-1,0-1.19-.26-1.15-1.17.07-1.72.07-3.46,0-5.18,0-.89.26-1,1.07-1q11.43,0,22.86,0c2.51,0,5,0,7.54-.1.71,0,1,.17,1,.94,0,1.84,0,3.68.07,5.51a1.68,1.68,0,0,1-.79,1.58q-9.85,7.4-19.66,14.84Z"/>
          <path class="cls-1" d="M105.46,24.39c0-4.77,0-9.53,0-14.3,0-.79.12-1.11,1-1.07,1.95.08,3.9.07,5.85,0,.82,0,1.07.16,1.06,1-.05,4.17,0,8.33,0,12.5,0,.85.2,1,1,1q10.47-.06,20.95,0c.94,0,1.27-.15,1.25-1.2-.07-4.13,0-8.26,0-12.39,0-.76.13-1,1-1,1.95.07,3.9,0,5.85,0,.69,0,1,.12,1,.9q0,14.47,0,28.94c0,.71-.15,1-.91,1-2-.06-4-.05-6,0-.72,0-1-.17-.94-.92,0-2.51,0-5,0-7.54,0-.75-.14-1-1-1q-10.64.05-21.28,0c-.8,0-1,.24-1,1,0,2.51,0,5,0,7.54,0,.9-.29,1.06-1.09,1-1.88-.05-3.76-.07-5.63,0-.87,0-1.06-.25-1.06-1.07,0-4.8,0-9.61,0-14.41Z"/>
          <path class="cls-1" d="M251.71,39.76c-3,0-6,0-8.95,0a.78.78,0,0,1-.76-.52,10.28,10.28,0,0,1-.86-1.58c-.55-1.73-1.72-2-3.41-2-5.82.11-11.64.05-17.46,0a1.34,1.34,0,0,0-1.4.81c-.56,1.09-1,2.54-1.91,3.08s-2.4.17-3.64.18c-1.58,0-3.15,0-4.73,0-.89,0-1-.14-.55-.95q7-11.83,14-23.7c1.08-1.84,2.19-3.67,3.24-5.52A1,1,0,0,1,226.33,9q3.38,0,6.76,0a1,1,0,0,1,1,.55q8.77,14.91,17.55,29.82A2.11,2.11,0,0,1,251.71,39.76Zm-22-23.19-6.28,11.62c-.22.4-.34.68.33.68q6,0,11.93,0c.51,0,.59-.18.36-.6Z"/>
          <path class="cls-1" d="M333.53,19.65c0-3.23,0-6.46,0-9.68,0-.73.17-1,.94-.94q2.93.09,5.85,0c.81,0,1.07.15,1.06,1,0,5.33,0,10.66,0,16a5.15,5.15,0,0,0,3.43,5.27,18.21,18.21,0,0,0,13.4.08,5.17,5.17,0,0,0,3.55-5.31c0-5.33,0-10.66,0-16,0-.83.18-1.1,1-1.07,2,.07,4,0,6,0,.61,0,.84.12.83.79,0,6.53.05,13.06,0,19.59,0,2.9-1.67,5.06-3.94,6.74a18.54,18.54,0,0,1-8.74,3.25,32.8,32.8,0,0,1-15-1.08,13,13,0,0,1-6.82-4.7,7.52,7.52,0,0,1-1.44-4.52C333.54,26,333.53,22.8,333.53,19.65Z"/>
          <path class="cls-1" d="M158.2,24.39c0,4.8,0,9.6,0,14.4,0,.77-.16,1-1,1-2-.06-4,0-6.07,0-.66,0-.83-.21-.82-.83q0-14.57,0-29.14c0-.65.21-.83.83-.82,2.06,0,4.13.05,6.19,0,.75,0,.84.25.84.9C158.19,14.71,158.2,19.55,158.2,24.39Z"/>
          <path class="cls-1" d="M33.49,21.48c-1.76,0-3.52,0-5.28,0-.62,0-.94-.09-.94-.84,0-3.63,0-7.27,0-10.9,0-.63.19-.75.79-.62,5.33,1.1,10.52,6.29,11.56,11.56.12.6,0,.81-.64.8C37.16,21.46,35.32,21.48,33.49,21.48Z"/>
          <path class="cls-1" d="M27.29,33.54c0-1.76,0-3.53,0-5.29,0-.69.13-1,.92-1,3.56,0,7.13,0,10.69,0,.76,0,.9.24.7.93A15.63,15.63,0,0,1,28.11,39.59c-.66.18-.87,0-.86-.65,0-1.8,0-3.6,0-5.4Z"/>
          <path class="cls-1" d="M15.15,21.48c-1.73,0-3.45,0-5.18,0-.87,0-1-.24-.76-1A15.62,15.62,0,0,1,20.52,9.18c.76-.22,1-.07,1,.74q-.06,5.35,0,10.7c0,.71-.26.89-.92.87C18.75,21.45,16.95,21.48,15.15,21.48Z"/>
          <path class="cls-1" d="M15.24,27.28c1.76,0,3.53,0,5.29,0,.71,0,1,.17,1,.93,0,3.57,0,7.13,0,10.7,0,.77-.26.89-.95.69A15.65,15.65,0,0,1,9.17,28.11c-.2-.71,0-.85.66-.84,1.8,0,3.6,0,5.41,0Z"/>
        </g>
      </g>
    </g>
  </g>
</svg>
